<?xml version="1.0" encoding="utf-8"?>
<svg xmlns="http://www.w3.org/2000/svg" xmlns:xlink="http://www.w3.org/1999/xlink" width="600" height="400" viewBox="0 0 2400 1600">
<defs>
  <clipPath id="clip650">
    <rect x="0" y="0" width="2400" height="1600"/>
  </clipPath>
</defs>
<path clip-path="url(#clip650)" d="
M0 1600 L2400 1600 L2400 0 L0 0  Z
  " fill="#ffffff" fill-rule="evenodd" fill-opacity="1"/>
<defs>
  <clipPath id="clip651">
    <rect x="480" y="0" width="1681" height="1600"/>
  </clipPath>
</defs>
<path clip-path="url(#clip650)" d="
M188.612 1486.45 L2352.76 1486.45 L2352.76 47.2441 L188.612 47.2441  Z
  " fill="#ffffff" fill-rule="evenodd" fill-opacity="1"/>
<defs>
  <clipPath id="clip652">
    <rect x="188" y="47" width="2165" height="1440"/>
  </clipPath>
</defs>
<polyline clip-path="url(#clip652)" style="stroke:#000000; stroke-width:2; stroke-opacity:0.1; fill:none" points="
  249.351,1486.45 249.351,47.2441 
  "/>
<polyline clip-path="url(#clip652)" style="stroke:#000000; stroke-width:2; stroke-opacity:0.1; fill:none" points="
  759.89,1486.45 759.89,47.2441 
  "/>
<polyline clip-path="url(#clip652)" style="stroke:#000000; stroke-width:2; stroke-opacity:0.1; fill:none" points="
  1270.43,1486.45 1270.43,47.2441 
  "/>
<polyline clip-path="url(#clip652)" style="stroke:#000000; stroke-width:2; stroke-opacity:0.1; fill:none" points="
  1780.97,1486.45 1780.97,47.2441 
  "/>
<polyline clip-path="url(#clip652)" style="stroke:#000000; stroke-width:2; stroke-opacity:0.1; fill:none" points="
  2291.51,1486.45 2291.51,47.2441 
  "/>
<polyline clip-path="url(#clip650)" style="stroke:#000000; stroke-width:4; stroke-opacity:1; fill:none" points="
  188.612,1486.45 2352.76,1486.45 
  "/>
<polyline clip-path="url(#clip650)" style="stroke:#000000; stroke-width:4; stroke-opacity:1; fill:none" points="
  249.351,1486.45 249.351,1469.18 
  "/>
<polyline clip-path="url(#clip650)" style="stroke:#000000; stroke-width:4; stroke-opacity:1; fill:none" points="
  759.89,1486.45 759.89,1469.18 
  "/>
<polyline clip-path="url(#clip650)" style="stroke:#000000; stroke-width:4; stroke-opacity:1; fill:none" points="
  1270.43,1486.45 1270.43,1469.18 
  "/>
<polyline clip-path="url(#clip650)" style="stroke:#000000; stroke-width:4; stroke-opacity:1; fill:none" points="
  1780.97,1486.45 1780.97,1469.18 
  "/>
<polyline clip-path="url(#clip650)" style="stroke:#000000; stroke-width:4; stroke-opacity:1; fill:none" points="
  2291.51,1486.45 2291.51,1469.18 
  "/>
<path clip-path="url(#clip650)" d="M 0 0 M249.351 1515.64 Q245.74 1515.64 243.911 1519.2 Q242.105 1522.75 242.105 1529.87 Q242.105 1536.98 243.911 1540.55 Q245.74 1544.09 249.351 1544.09 Q252.985 1544.09 254.791 1540.55 Q256.619 1536.98 256.619 1529.87 Q256.619 1522.75 254.791 1519.2 Q252.985 1515.64 249.351 1515.64 M249.351 1511.93 Q255.161 1511.93 258.216 1516.54 Q261.295 1521.12 261.295 1529.87 Q261.295 1538.6 258.216 1543.21 Q255.161 1547.79 249.351 1547.79 Q243.541 1547.79 240.462 1543.21 Q237.406 1538.6 237.406 1529.87 Q237.406 1521.12 240.462 1516.54 Q243.541 1511.93 249.351 1511.93 Z" fill="#000000" fill-rule="evenodd" fill-opacity="1" /><path clip-path="url(#clip650)" d="M 0 0 M709.751 1543.18 L717.39 1543.18 L717.39 1516.82 L709.08 1518.49 L709.08 1514.23 L717.344 1512.56 L722.02 1512.56 L722.02 1543.18 L729.658 1543.18 L729.658 1547.12 L709.751 1547.12 L709.751 1543.18 Z" fill="#000000" fill-rule="evenodd" fill-opacity="1" /><path clip-path="url(#clip650)" d="M 0 0 M744.728 1515.64 Q741.117 1515.64 739.288 1519.2 Q737.482 1522.75 737.482 1529.87 Q737.482 1536.98 739.288 1540.55 Q741.117 1544.09 744.728 1544.09 Q748.362 1544.09 750.168 1540.55 Q751.996 1536.98 751.996 1529.87 Q751.996 1522.75 750.168 1519.2 Q748.362 1515.64 744.728 1515.64 M744.728 1511.93 Q750.538 1511.93 753.593 1516.54 Q756.672 1521.12 756.672 1529.87 Q756.672 1538.6 753.593 1543.21 Q750.538 1547.79 744.728 1547.79 Q738.918 1547.79 735.839 1543.21 Q732.783 1538.6 732.783 1529.87 Q732.783 1521.12 735.839 1516.54 Q738.918 1511.93 744.728 1511.93 Z" fill="#000000" fill-rule="evenodd" fill-opacity="1" /><path clip-path="url(#clip650)" d="M 0 0 M771.742 1515.64 Q768.13 1515.64 766.302 1519.2 Q764.496 1522.75 764.496 1529.87 Q764.496 1536.98 766.302 1540.55 Q768.13 1544.09 771.742 1544.09 Q775.376 1544.09 777.181 1540.55 Q779.01 1536.98 779.01 1529.87 Q779.01 1522.75 777.181 1519.2 Q775.376 1515.64 771.742 1515.64 M771.742 1511.93 Q777.552 1511.93 780.607 1516.54 Q783.686 1521.12 783.686 1529.87 Q783.686 1538.6 780.607 1543.21 Q777.552 1547.79 771.742 1547.79 Q765.931 1547.79 762.853 1543.21 Q759.797 1538.6 759.797 1529.87 Q759.797 1521.12 762.853 1516.54 Q765.931 1511.93 771.742 1511.93 Z" fill="#000000" fill-rule="evenodd" fill-opacity="1" /><path clip-path="url(#clip650)" d="M 0 0 M798.755 1515.64 Q795.144 1515.64 793.315 1519.2 Q791.51 1522.75 791.51 1529.87 Q791.51 1536.98 793.315 1540.55 Q795.144 1544.09 798.755 1544.09 Q802.389 1544.09 804.195 1540.55 Q806.024 1536.98 806.024 1529.87 Q806.024 1522.75 804.195 1519.2 Q802.389 1515.64 798.755 1515.64 M798.755 1511.93 Q804.565 1511.93 807.621 1516.54 Q810.7 1521.12 810.7 1529.87 Q810.7 1538.6 807.621 1543.21 Q804.565 1547.79 798.755 1547.79 Q792.945 1547.79 789.866 1543.21 Q786.811 1538.6 786.811 1529.87 Q786.811 1521.12 789.866 1516.54 Q792.945 1511.93 798.755 1511.93 Z" fill="#000000" fill-rule="evenodd" fill-opacity="1" /><path clip-path="url(#clip650)" d="M 0 0 M1224.56 1543.18 L1240.88 1543.18 L1240.88 1547.12 L1218.94 1547.12 L1218.94 1543.18 Q1221.6 1540.43 1226.18 1535.8 Q1230.79 1531.15 1231.97 1529.81 Q1234.21 1527.28 1235.09 1525.55 Q1236 1523.79 1236 1522.1 Q1236 1519.34 1234.05 1517.61 Q1232.13 1515.87 1229.03 1515.87 Q1226.83 1515.87 1224.38 1516.63 Q1221.95 1517.4 1219.17 1518.95 L1219.17 1514.23 Q1221.99 1513.09 1224.45 1512.51 Q1226.9 1511.93 1228.94 1511.93 Q1234.31 1511.93 1237.5 1514.62 Q1240.7 1517.31 1240.7 1521.8 Q1240.7 1523.93 1239.88 1525.85 Q1239.1 1527.74 1236.99 1530.34 Q1236.41 1531.01 1233.31 1534.23 Q1230.21 1537.42 1224.56 1543.18 Z" fill="#000000" fill-rule="evenodd" fill-opacity="1" /><path clip-path="url(#clip650)" d="M 0 0 M1255.95 1515.64 Q1252.34 1515.64 1250.51 1519.2 Q1248.7 1522.75 1248.7 1529.87 Q1248.7 1536.98 1250.51 1540.55 Q1252.34 1544.09 1255.95 1544.09 Q1259.58 1544.09 1261.39 1540.55 Q1263.22 1536.98 1263.22 1529.87 Q1263.22 1522.75 1261.39 1519.2 Q1259.58 1515.64 1255.95 1515.64 M1255.95 1511.93 Q1261.76 1511.93 1264.82 1516.54 Q1267.89 1521.12 1267.89 1529.87 Q1267.89 1538.6 1264.82 1543.21 Q1261.76 1547.79 1255.95 1547.79 Q1250.14 1547.79 1247.06 1543.21 Q1244.01 1538.6 1244.01 1529.87 Q1244.01 1521.12 1247.06 1516.54 Q1250.14 1511.93 1255.95 1511.93 Z" fill="#000000" fill-rule="evenodd" fill-opacity="1" /><path clip-path="url(#clip650)" d="M 0 0 M1282.96 1515.64 Q1279.35 1515.64 1277.52 1519.2 Q1275.72 1522.75 1275.72 1529.87 Q1275.72 1536.98 1277.52 1540.55 Q1279.35 1544.09 1282.96 1544.09 Q1286.6 1544.09 1288.4 1540.55 Q1290.23 1536.98 1290.23 1529.87 Q1290.23 1522.75 1288.4 1519.2 Q1286.6 1515.64 1282.96 1515.64 M1282.96 1511.93 Q1288.77 1511.93 1291.83 1516.54 Q1294.91 1521.12 1294.91 1529.87 Q1294.91 1538.6 1291.83 1543.21 Q1288.77 1547.79 1282.96 1547.79 Q1277.15 1547.79 1274.07 1543.21 Q1271.02 1538.6 1271.02 1529.87 Q1271.02 1521.12 1274.07 1516.54 Q1277.15 1511.93 1282.96 1511.93 Z" fill="#000000" fill-rule="evenodd" fill-opacity="1" /><path clip-path="url(#clip650)" d="M 0 0 M1309.98 1515.64 Q1306.37 1515.64 1304.54 1519.2 Q1302.73 1522.75 1302.73 1529.87 Q1302.73 1536.98 1304.54 1540.55 Q1306.37 1544.09 1309.98 1544.09 Q1313.61 1544.09 1315.42 1540.55 Q1317.25 1536.98 1317.25 1529.87 Q1317.25 1522.75 1315.42 1519.2 Q1313.61 1515.64 1309.98 1515.64 M1309.98 1511.93 Q1315.79 1511.93 1318.84 1516.54 Q1321.92 1521.12 1321.92 1529.87 Q1321.92 1538.6 1318.84 1543.21 Q1315.79 1547.79 1309.98 1547.79 Q1304.17 1547.79 1301.09 1543.21 Q1298.03 1538.6 1298.03 1529.87 Q1298.03 1521.12 1301.09 1516.54 Q1304.17 1511.93 1309.98 1511.93 Z" fill="#000000" fill-rule="evenodd" fill-opacity="1" /><path clip-path="url(#clip650)" d="M 0 0 M1744.69 1528.49 Q1748.05 1529.2 1749.93 1531.47 Q1751.82 1533.74 1751.82 1537.07 Q1751.82 1542.19 1748.31 1544.99 Q1744.79 1547.79 1738.31 1547.79 Q1736.13 1547.79 1733.82 1547.35 Q1731.52 1546.93 1729.07 1546.08 L1729.07 1541.56 Q1731.01 1542.7 1733.33 1543.28 Q1735.64 1543.86 1738.17 1543.86 Q1742.57 1543.86 1744.86 1542.12 Q1747.17 1540.38 1747.17 1537.07 Q1747.17 1534.02 1745.02 1532.31 Q1742.89 1530.57 1739.07 1530.57 L1735.04 1530.57 L1735.04 1526.73 L1739.25 1526.73 Q1742.7 1526.73 1744.53 1525.36 Q1746.36 1523.97 1746.36 1521.38 Q1746.36 1518.72 1744.46 1517.31 Q1742.59 1515.87 1739.07 1515.87 Q1737.15 1515.87 1734.95 1516.29 Q1732.75 1516.7 1730.11 1517.58 L1730.11 1513.42 Q1732.77 1512.68 1735.09 1512.31 Q1737.43 1511.93 1739.49 1511.93 Q1744.81 1511.93 1747.91 1514.37 Q1751.01 1516.77 1751.01 1520.89 Q1751.01 1523.76 1749.37 1525.75 Q1747.73 1527.72 1744.69 1528.49 Z" fill="#000000" fill-rule="evenodd" fill-opacity="1" /><path clip-path="url(#clip650)" d="M 0 0 M1766.89 1515.64 Q1763.28 1515.64 1761.45 1519.2 Q1759.65 1522.75 1759.65 1529.87 Q1759.65 1536.98 1761.45 1540.55 Q1763.28 1544.09 1766.89 1544.09 Q1770.53 1544.09 1772.33 1540.55 Q1774.16 1536.98 1774.16 1529.87 Q1774.16 1522.75 1772.33 1519.2 Q1770.53 1515.64 1766.89 1515.64 M1766.89 1511.93 Q1772.7 1511.93 1775.76 1516.54 Q1778.84 1521.12 1778.84 1529.87 Q1778.84 1538.6 1775.76 1543.21 Q1772.7 1547.79 1766.89 1547.79 Q1761.08 1547.79 1758 1543.21 Q1754.95 1538.6 1754.95 1529.87 Q1754.95 1521.12 1758 1516.54 Q1761.08 1511.93 1766.89 1511.93 Z" fill="#000000" fill-rule="evenodd" fill-opacity="1" /><path clip-path="url(#clip650)" d="M 0 0 M1793.91 1515.64 Q1790.3 1515.64 1788.47 1519.2 Q1786.66 1522.75 1786.66 1529.87 Q1786.66 1536.98 1788.47 1540.55 Q1790.3 1544.09 1793.91 1544.09 Q1797.54 1544.09 1799.35 1540.55 Q1801.18 1536.98 1801.18 1529.87 Q1801.18 1522.75 1799.35 1519.2 Q1797.54 1515.64 1793.91 1515.64 M1793.91 1511.93 Q1799.72 1511.93 1802.77 1516.54 Q1805.85 1521.12 1805.85 1529.87 Q1805.85 1538.6 1802.77 1543.21 Q1799.72 1547.79 1793.91 1547.79 Q1788.1 1547.79 1785.02 1543.21 Q1781.96 1538.6 1781.96 1529.87 Q1781.96 1521.12 1785.02 1516.54 Q1788.1 1511.93 1793.91 1511.93 Z" fill="#000000" fill-rule="evenodd" fill-opacity="1" /><path clip-path="url(#clip650)" d="M 0 0 M1820.92 1515.64 Q1817.31 1515.64 1815.48 1519.2 Q1813.68 1522.75 1813.68 1529.87 Q1813.68 1536.98 1815.48 1540.55 Q1817.31 1544.09 1820.92 1544.09 Q1824.56 1544.09 1826.36 1540.55 Q1828.19 1536.98 1828.19 1529.87 Q1828.19 1522.75 1826.36 1519.2 Q1824.56 1515.64 1820.92 1515.64 M1820.92 1511.93 Q1826.73 1511.93 1829.79 1516.54 Q1832.87 1521.12 1832.87 1529.87 Q1832.87 1538.6 1829.79 1543.21 Q1826.73 1547.79 1820.92 1547.79 Q1815.11 1547.79 1812.03 1543.21 Q1808.98 1538.6 1808.98 1529.87 Q1808.98 1521.12 1812.03 1516.54 Q1815.11 1511.93 1820.92 1511.93 Z" fill="#000000" fill-rule="evenodd" fill-opacity="1" /><path clip-path="url(#clip650)" d="M 0 0 M2254 1516.63 L2242.19 1535.08 L2254 1535.08 L2254 1516.63 M2252.77 1512.56 L2258.65 1512.56 L2258.65 1535.08 L2263.58 1535.08 L2263.58 1538.97 L2258.65 1538.97 L2258.65 1547.12 L2254 1547.12 L2254 1538.97 L2238.39 1538.97 L2238.39 1534.46 L2252.77 1512.56 Z" fill="#000000" fill-rule="evenodd" fill-opacity="1" /><path clip-path="url(#clip650)" d="M 0 0 M2278.65 1515.64 Q2275.04 1515.64 2273.21 1519.2 Q2271.4 1522.75 2271.4 1529.87 Q2271.4 1536.98 2273.21 1540.55 Q2275.04 1544.09 2278.65 1544.09 Q2282.28 1544.09 2284.09 1540.55 Q2285.92 1536.98 2285.92 1529.87 Q2285.92 1522.75 2284.09 1519.2 Q2282.28 1515.64 2278.65 1515.64 M2278.65 1511.93 Q2284.46 1511.93 2287.51 1516.54 Q2290.59 1521.12 2290.59 1529.87 Q2290.59 1538.6 2287.51 1543.21 Q2284.46 1547.79 2278.65 1547.79 Q2272.84 1547.79 2269.76 1543.21 Q2266.7 1538.6 2266.7 1529.87 Q2266.7 1521.12 2269.76 1516.54 Q2272.84 1511.93 2278.65 1511.93 Z" fill="#000000" fill-rule="evenodd" fill-opacity="1" /><path clip-path="url(#clip650)" d="M 0 0 M2305.66 1515.64 Q2302.05 1515.64 2300.22 1519.2 Q2298.42 1522.75 2298.42 1529.87 Q2298.42 1536.98 2300.22 1540.55 Q2302.05 1544.09 2305.66 1544.09 Q2309.3 1544.09 2311.1 1540.55 Q2312.93 1536.98 2312.93 1529.87 Q2312.93 1522.75 2311.1 1519.2 Q2309.3 1515.64 2305.66 1515.64 M2305.66 1511.93 Q2311.47 1511.93 2314.53 1516.54 Q2317.61 1521.12 2317.61 1529.87 Q2317.61 1538.6 2314.53 1543.21 Q2311.47 1547.79 2305.66 1547.79 Q2299.85 1547.79 2296.77 1543.21 Q2293.72 1538.6 2293.72 1529.87 Q2293.72 1521.12 2296.77 1516.54 Q2299.85 1511.93 2305.66 1511.93 Z" fill="#000000" fill-rule="evenodd" fill-opacity="1" /><path clip-path="url(#clip650)" d="M 0 0 M2332.68 1515.64 Q2329.06 1515.64 2327.24 1519.2 Q2325.43 1522.75 2325.43 1529.87 Q2325.43 1536.98 2327.24 1540.55 Q2329.06 1544.09 2332.68 1544.09 Q2336.31 1544.09 2338.12 1540.55 Q2339.94 1536.98 2339.94 1529.87 Q2339.94 1522.75 2338.12 1519.2 Q2336.31 1515.64 2332.68 1515.64 M2332.68 1511.93 Q2338.49 1511.93 2341.54 1516.54 Q2344.62 1521.12 2344.62 1529.87 Q2344.62 1538.6 2341.54 1543.21 Q2338.49 1547.79 2332.68 1547.79 Q2326.87 1547.79 2323.79 1543.21 Q2320.73 1538.6 2320.73 1529.87 Q2320.73 1521.12 2323.79 1516.54 Q2326.87 1511.93 2332.68 1511.93 Z" fill="#000000" fill-rule="evenodd" fill-opacity="1" /><polyline clip-path="url(#clip652)" style="stroke:#000000; stroke-width:2; stroke-opacity:0.1; fill:none" points="
  188.612,1275.25 2352.76,1275.25 
  "/>
<polyline clip-path="url(#clip652)" style="stroke:#000000; stroke-width:2; stroke-opacity:0.1; fill:none" points="
  188.612,976.189 2352.76,976.189 
  "/>
<polyline clip-path="url(#clip652)" style="stroke:#000000; stroke-width:2; stroke-opacity:0.1; fill:none" points="
  188.612,677.128 2352.76,677.128 
  "/>
<polyline clip-path="url(#clip652)" style="stroke:#000000; stroke-width:2; stroke-opacity:0.1; fill:none" points="
  188.612,378.066 2352.76,378.066 
  "/>
<polyline clip-path="url(#clip652)" style="stroke:#000000; stroke-width:2; stroke-opacity:0.1; fill:none" points="
  188.612,79.0044 2352.76,79.0044 
  "/>
<polyline clip-path="url(#clip650)" style="stroke:#000000; stroke-width:4; stroke-opacity:1; fill:none" points="
  188.612,1486.45 188.612,47.2441 
  "/>
<polyline clip-path="url(#clip650)" style="stroke:#000000; stroke-width:4; stroke-opacity:1; fill:none" points="
  188.612,1275.25 214.582,1275.25 
  "/>
<polyline clip-path="url(#clip650)" style="stroke:#000000; stroke-width:4; stroke-opacity:1; fill:none" points="
  188.612,976.189 214.582,976.189 
  "/>
<polyline clip-path="url(#clip650)" style="stroke:#000000; stroke-width:4; stroke-opacity:1; fill:none" points="
  188.612,677.128 214.582,677.128 
  "/>
<polyline clip-path="url(#clip650)" style="stroke:#000000; stroke-width:4; stroke-opacity:1; fill:none" points="
  188.612,378.066 214.582,378.066 
  "/>
<polyline clip-path="url(#clip650)" style="stroke:#000000; stroke-width:4; stroke-opacity:1; fill:none" points="
  188.612,79.0044 214.582,79.0044 
  "/>
<path clip-path="url(#clip650)" d="M 0 0 M82.2651 1288.6 L98.5845 1288.6 L98.5845 1292.53 L76.6401 1292.53 L76.6401 1288.6 Q79.3022 1285.84 83.8855 1281.21 Q88.4919 1276.56 89.6725 1275.22 Q91.9178 1272.69 92.7975 1270.96 Q93.7002 1269.2 93.7002 1267.51 Q93.7002 1264.75 91.7558 1263.02 Q89.8345 1261.28 86.7327 1261.28 Q84.5336 1261.28 82.0799 1262.04 Q79.6494 1262.81 76.8716 1264.36 L76.8716 1259.64 Q79.6957 1258.5 82.1494 1257.92 Q84.6031 1257.35 86.6401 1257.35 Q92.0104 1257.35 95.2049 1260.03 Q98.3993 1262.72 98.3993 1267.21 Q98.3993 1269.34 97.5891 1271.26 Q96.8021 1273.16 94.6956 1275.75 Q94.1169 1276.42 91.0151 1279.64 Q87.9132 1282.83 82.2651 1288.6 Z" fill="#000000" fill-rule="evenodd" fill-opacity="1" /><path clip-path="url(#clip650)" d="M 0 0 M113.654 1261.05 Q110.043 1261.05 108.214 1264.61 Q106.408 1268.16 106.408 1275.29 Q106.408 1282.39 108.214 1285.96 Q110.043 1289.5 113.654 1289.5 Q117.288 1289.5 119.094 1285.96 Q120.922 1282.39 120.922 1275.29 Q120.922 1268.16 119.094 1264.61 Q117.288 1261.05 113.654 1261.05 M113.654 1257.35 Q119.464 1257.35 122.52 1261.95 Q125.598 1266.54 125.598 1275.29 Q125.598 1284.01 122.52 1288.62 Q119.464 1293.2 113.654 1293.2 Q107.844 1293.2 104.765 1288.62 Q101.709 1284.01 101.709 1275.29 Q101.709 1266.54 104.765 1261.95 Q107.844 1257.35 113.654 1257.35 Z" fill="#000000" fill-rule="evenodd" fill-opacity="1" /><path clip-path="url(#clip650)" d="M 0 0 M140.668 1261.05 Q137.056 1261.05 135.228 1264.61 Q133.422 1268.16 133.422 1275.29 Q133.422 1282.39 135.228 1285.96 Q137.056 1289.5 140.668 1289.5 Q144.302 1289.5 146.107 1285.96 Q147.936 1282.39 147.936 1275.29 Q147.936 1268.16 146.107 1264.61 Q144.302 1261.05 140.668 1261.05 M140.668 1257.35 Q146.478 1257.35 149.533 1261.95 Q152.612 1266.54 152.612 1275.29 Q152.612 1284.01 149.533 1288.62 Q146.478 1293.2 140.668 1293.2 Q134.857 1293.2 131.779 1288.62 Q128.723 1284.01 128.723 1275.29 Q128.723 1266.54 131.779 1261.95 Q134.857 1257.35 140.668 1257.35 Z" fill="#000000" fill-rule="evenodd" fill-opacity="1" /><path clip-path="url(#clip650)" d="M 0 0 M89.0012 962.983 L77.1957 981.432 L89.0012 981.432 L89.0012 962.983 M87.7743 958.909 L93.6539 958.909 L93.6539 981.432 L98.5845 981.432 L98.5845 985.321 L93.6539 985.321 L93.6539 993.469 L89.0012 993.469 L89.0012 985.321 L73.3994 985.321 L73.3994 980.807 L87.7743 958.909 Z" fill="#000000" fill-rule="evenodd" fill-opacity="1" /><path clip-path="url(#clip650)" d="M 0 0 M113.654 961.988 Q110.043 961.988 108.214 965.553 Q106.408 969.094 106.408 976.224 Q106.408 983.33 108.214 986.895 Q110.043 990.437 113.654 990.437 Q117.288 990.437 119.094 986.895 Q120.922 983.33 120.922 976.224 Q120.922 969.094 119.094 965.553 Q117.288 961.988 113.654 961.988 M113.654 958.284 Q119.464 958.284 122.52 962.891 Q125.598 967.474 125.598 976.224 Q125.598 984.951 122.52 989.557 Q119.464 994.14 113.654 994.14 Q107.844 994.14 104.765 989.557 Q101.709 984.951 101.709 976.224 Q101.709 967.474 104.765 962.891 Q107.844 958.284 113.654 958.284 Z" fill="#000000" fill-rule="evenodd" fill-opacity="1" /><path clip-path="url(#clip650)" d="M 0 0 M140.668 961.988 Q137.056 961.988 135.228 965.553 Q133.422 969.094 133.422 976.224 Q133.422 983.33 135.228 986.895 Q137.056 990.437 140.668 990.437 Q144.302 990.437 146.107 986.895 Q147.936 983.33 147.936 976.224 Q147.936 969.094 146.107 965.553 Q144.302 961.988 140.668 961.988 M140.668 958.284 Q146.478 958.284 149.533 962.891 Q152.612 967.474 152.612 976.224 Q152.612 984.951 149.533 989.557 Q146.478 994.14 140.668 994.14 Q134.857 994.14 131.779 989.557 Q128.723 984.951 128.723 976.224 Q128.723 967.474 131.779 962.891 Q134.857 958.284 140.668 958.284 Z" fill="#000000" fill-rule="evenodd" fill-opacity="1" /><path clip-path="url(#clip650)" d="M 0 0 M87.0567 675.264 Q83.9086 675.264 82.0568 677.417 Q80.2281 679.57 80.2281 683.32 Q80.2281 687.046 82.0568 689.222 Q83.9086 691.375 87.0567 691.375 Q90.2049 691.375 92.0336 689.222 Q93.8854 687.046 93.8854 683.32 Q93.8854 679.57 92.0336 677.417 Q90.2049 675.264 87.0567 675.264 M96.3391 660.611 L96.3391 664.871 Q94.5799 664.037 92.7743 663.598 Q90.9919 663.158 89.2327 663.158 Q84.6031 663.158 82.1494 666.283 Q79.7188 669.408 79.3716 675.727 Q80.7373 673.713 82.7975 672.648 Q84.8577 671.56 87.3345 671.56 Q92.5428 671.56 95.5521 674.732 Q98.5845 677.88 98.5845 683.32 Q98.5845 688.644 95.4363 691.861 Q92.2882 695.079 87.0567 695.079 Q81.0614 695.079 77.8901 690.496 Q74.7189 685.889 74.7189 677.162 Q74.7189 668.968 78.6077 664.107 Q82.4966 659.223 89.0475 659.223 Q90.8067 659.223 92.5891 659.57 Q94.3947 659.917 96.3391 660.611 Z" fill="#000000" fill-rule="evenodd" fill-opacity="1" /><path clip-path="url(#clip650)" d="M 0 0 M113.654 662.926 Q110.043 662.926 108.214 666.491 Q106.408 670.033 106.408 677.162 Q106.408 684.269 108.214 687.833 Q110.043 691.375 113.654 691.375 Q117.288 691.375 119.094 687.833 Q120.922 684.269 120.922 677.162 Q120.922 670.033 119.094 666.491 Q117.288 662.926 113.654 662.926 M113.654 659.223 Q119.464 659.223 122.52 663.829 Q125.598 668.412 125.598 677.162 Q125.598 685.889 122.52 690.496 Q119.464 695.079 113.654 695.079 Q107.844 695.079 104.765 690.496 Q101.709 685.889 101.709 677.162 Q101.709 668.412 104.765 663.829 Q107.844 659.223 113.654 659.223 Z" fill="#000000" fill-rule="evenodd" fill-opacity="1" /><path clip-path="url(#clip650)" d="M 0 0 M140.668 662.926 Q137.056 662.926 135.228 666.491 Q133.422 670.033 133.422 677.162 Q133.422 684.269 135.228 687.833 Q137.056 691.375 140.668 691.375 Q144.302 691.375 146.107 687.833 Q147.936 684.269 147.936 677.162 Q147.936 670.033 146.107 666.491 Q144.302 662.926 140.668 662.926 M140.668 659.223 Q146.478 659.223 149.533 663.829 Q152.612 668.412 152.612 677.162 Q152.612 685.889 149.533 690.496 Q146.478 695.079 140.668 695.079 Q134.857 695.079 131.779 690.496 Q128.723 685.889 128.723 677.162 Q128.723 668.412 131.779 663.829 Q134.857 659.223 140.668 659.223 Z" fill="#000000" fill-rule="evenodd" fill-opacity="1" /><path clip-path="url(#clip650)" d="M 0 0 M86.7327 378.934 Q83.3994 378.934 81.4781 380.716 Q79.5799 382.499 79.5799 385.624 Q79.5799 388.749 81.4781 390.531 Q83.3994 392.314 86.7327 392.314 Q90.066 392.314 91.9873 390.531 Q93.9086 388.726 93.9086 385.624 Q93.9086 382.499 91.9873 380.716 Q90.0891 378.934 86.7327 378.934 M82.0568 376.943 Q79.0475 376.203 77.3577 374.142 Q75.6911 372.082 75.6911 369.119 Q75.6911 364.976 78.6309 362.568 Q81.5938 360.161 86.7327 360.161 Q91.8947 360.161 94.8345 362.568 Q97.7743 364.976 97.7743 369.119 Q97.7743 372.082 96.0845 374.142 Q94.4178 376.203 91.4317 376.943 Q94.8113 377.73 96.6863 380.022 Q98.5845 382.314 98.5845 385.624 Q98.5845 390.647 95.5058 393.332 Q92.4502 396.017 86.7327 396.017 Q81.0151 396.017 77.9364 393.332 Q74.8809 390.647 74.8809 385.624 Q74.8809 382.314 76.779 380.022 Q78.6772 377.73 82.0568 376.943 M80.3438 369.559 Q80.3438 372.244 82.0105 373.749 Q83.7003 375.253 86.7327 375.253 Q89.7419 375.253 91.4317 373.749 Q93.1447 372.244 93.1447 369.559 Q93.1447 366.874 91.4317 365.369 Q89.7419 363.865 86.7327 363.865 Q83.7003 363.865 82.0105 365.369 Q80.3438 366.874 80.3438 369.559 Z" fill="#000000" fill-rule="evenodd" fill-opacity="1" /><path clip-path="url(#clip650)" d="M 0 0 M113.654 363.865 Q110.043 363.865 108.214 367.429 Q106.408 370.971 106.408 378.101 Q106.408 385.207 108.214 388.772 Q110.043 392.314 113.654 392.314 Q117.288 392.314 119.094 388.772 Q120.922 385.207 120.922 378.101 Q120.922 370.971 119.094 367.429 Q117.288 363.865 113.654 363.865 M113.654 360.161 Q119.464 360.161 122.52 364.767 Q125.598 369.351 125.598 378.101 Q125.598 386.828 122.52 391.434 Q119.464 396.017 113.654 396.017 Q107.844 396.017 104.765 391.434 Q101.709 386.828 101.709 378.101 Q101.709 369.351 104.765 364.767 Q107.844 360.161 113.654 360.161 Z" fill="#000000" fill-rule="evenodd" fill-opacity="1" /><path clip-path="url(#clip650)" d="M 0 0 M140.668 363.865 Q137.056 363.865 135.228 367.429 Q133.422 370.971 133.422 378.101 Q133.422 385.207 135.228 388.772 Q137.056 392.314 140.668 392.314 Q144.302 392.314 146.107 388.772 Q147.936 385.207 147.936 378.101 Q147.936 370.971 146.107 367.429 Q144.302 363.865 140.668 363.865 M140.668 360.161 Q146.478 360.161 149.533 364.767 Q152.612 369.351 152.612 378.101 Q152.612 386.828 149.533 391.434 Q146.478 396.017 140.668 396.017 Q134.857 396.017 131.779 391.434 Q128.723 386.828 128.723 378.101 Q128.723 369.351 131.779 364.767 Q134.857 360.161 140.668 360.161 Z" fill="#000000" fill-rule="evenodd" fill-opacity="1" /><path clip-path="url(#clip650)" d="M 0 0 M51.6634 92.3493 L59.3023 92.3493 L59.3023 65.9837 L50.9921 67.6503 L50.9921 63.3911 L59.256 61.7244 L63.9319 61.7244 L63.9319 92.3493 L71.5707 92.3493 L71.5707 96.2844 L51.6634 96.2844 L51.6634 92.3493 Z" fill="#000000" fill-rule="evenodd" fill-opacity="1" /><path clip-path="url(#clip650)" d="M 0 0 M86.6401 64.8031 Q83.029 64.8031 81.2003 68.3679 Q79.3948 71.9096 79.3948 79.0392 Q79.3948 86.1456 81.2003 89.7104 Q83.029 93.252 86.6401 93.252 Q90.2743 93.252 92.0799 89.7104 Q93.9086 86.1456 93.9086 79.0392 Q93.9086 71.9096 92.0799 68.3679 Q90.2743 64.8031 86.6401 64.8031 M86.6401 61.0994 Q92.4502 61.0994 95.5058 65.7059 Q98.5845 70.2892 98.5845 79.0392 Q98.5845 87.766 95.5058 92.3724 Q92.4502 96.9557 86.6401 96.9557 Q80.8299 96.9557 77.7512 92.3724 Q74.6957 87.766 74.6957 79.0392 Q74.6957 70.2892 77.7512 65.7059 Q80.8299 61.0994 86.6401 61.0994 Z" fill="#000000" fill-rule="evenodd" fill-opacity="1" /><path clip-path="url(#clip650)" d="M 0 0 M113.654 64.8031 Q110.043 64.8031 108.214 68.3679 Q106.408 71.9096 106.408 79.0392 Q106.408 86.1456 108.214 89.7104 Q110.043 93.252 113.654 93.252 Q117.288 93.252 119.094 89.7104 Q120.922 86.1456 120.922 79.0392 Q120.922 71.9096 119.094 68.3679 Q117.288 64.8031 113.654 64.8031 M113.654 61.0994 Q119.464 61.0994 122.52 65.7059 Q125.598 70.2892 125.598 79.0392 Q125.598 87.766 122.52 92.3724 Q119.464 96.9557 113.654 96.9557 Q107.844 96.9557 104.765 92.3724 Q101.709 87.766 101.709 79.0392 Q101.709 70.2892 104.765 65.7059 Q107.844 61.0994 113.654 61.0994 Z" fill="#000000" fill-rule="evenodd" fill-opacity="1" /><path clip-path="url(#clip650)" d="M 0 0 M140.668 64.8031 Q137.056 64.8031 135.228 68.3679 Q133.422 71.9096 133.422 79.0392 Q133.422 86.1456 135.228 89.7104 Q137.056 93.252 140.668 93.252 Q144.302 93.252 146.107 89.7104 Q147.936 86.1456 147.936 79.0392 Q147.936 71.9096 146.107 68.3679 Q144.302 64.8031 140.668 64.8031 M140.668 61.0994 Q146.478 61.0994 149.533 65.7059 Q152.612 70.2892 152.612 79.0392 Q152.612 87.766 149.533 92.3724 Q146.478 96.9557 140.668 96.9557 Q134.857 96.9557 131.779 92.3724 Q128.723 87.766 128.723 79.0392 Q128.723 70.2892 131.779 65.7059 Q134.857 61.0994 140.668 61.0994 Z" fill="#000000" fill-rule="evenodd" fill-opacity="1" /><polyline clip-path="url(#clip652)" style="stroke:#009af9; stroke-width:4; stroke-opacity:1; fill:none" points="
  249.861,907.405 250.372,671.146 250.882,1306.65 251.393,1175.06 251.903,1185.53 252.414,1004.6 252.925,867.032 253.435,1227.4 253.946,955.255 254.456,87.9763 
  254.967,693.576 255.477,1218.43 255.988,881.985 256.498,997.123 257.009,1064.41 257.519,756.379 258.03,802.733 258.54,1157.12 259.051,914.881 259.562,1086.84 
  260.072,1025.53 260.583,615.82 261.093,1091.33 261.604,956.75 262.114,1134.69 262.625,792.266 263.135,1164.6 263.646,959.741 264.156,792.266 264.667,1095.81 
  265.177,977.684 265.688,976.189 266.199,1130.21 266.709,923.853 267.22,1098.8 267.73,1137.68 268.241,864.041 268.751,899.928 269.262,1003.1 269.772,1086.84 
  270.283,862.546 270.793,1071.89 271.304,976.189 271.814,895.442 272.325,1185.53 272.836,955.255 273.346,1201.98 273.857,594.886 274.367,1065.91 274.878,823.668 
  275.388,1152.64 275.899,1073.38 276.409,1148.15 276.92,899.928 277.43,1290.2 277.941,775.818 278.451,890.957 278.962,1137.68 279.473,1251.33 279.983,699.557 
  280.494,829.649 281.004,1010.58 281.515,1033.01 282.025,705.538 282.536,1154.13 283.046,862.546 283.557,814.696 284.067,1041.98 284.578,986.656 285.088,1323.1 
  285.599,892.452 286.11,717.501 286.62,925.349 287.131,1113.76 287.641,1122.73 288.152,890.957 288.662,1022.54 289.173,911.891 289.683,1070.39 290.194,1049.46 
  290.704,1136.19 291.215,968.713 291.726,1049.46 292.236,1006.1 292.747,1152.64 293.257,1047.96 293.768,947.778 294.278,1030.02 294.789,1294.69 295.299,983.666 
  295.81,907.405 296.32,1191.51 296.831,976.189 297.341,675.632 297.852,361.618 298.363,716.006 298.873,841.611 299.384,1059.93 299.894,1044.97 300.405,741.426 
  300.915,1140.67 301.426,1169.08 301.936,1145.16 302.447,1142.17 302.957,795.257 303.468,638.25 303.978,1106.28 304.489,1013.57 305,1038.99 305.51,1112.26 
  306.021,751.893 306.531,962.731 307.042,964.227 307.552,1282.73 308.063,1200.49 308.573,1167.59 309.084,1209.46 309.594,735.445 310.105,1176.56 310.615,1239.36 
  311.126,1115.25 311.637,1191.51 312.147,1027.03 312.658,876.003 313.168,1200.49 313.679,997.123 314.189,904.414 314.7,1170.58 315.21,982.17 315.721,907.405 
  316.231,1296.18 316.742,813.201 317.252,1098.8 317.763,1242.35 318.274,950.769 318.784,1110.77 319.295,1101.79 319.805,1044.97 320.316,1134.69 320.826,1055.44 
  321.337,846.097 321.847,1178.06 322.358,1228.9 322.868,877.499 323.379,1142.17 323.889,1092.82 324.4,965.722 324.911,1315.62 325.421,689.09 325.932,1182.54 
  326.442,1245.34 326.953,1044.97 327.463,1013.57 327.974,1154.13 328.484,1033.01 328.995,1080.86 329.505,1015.07 330.016,1119.74 330.526,1000.11 331.037,955.255 
  331.548,955.255 332.058,871.518 332.569,1278.24 333.079,1046.47 333.59,765.351 334.1,1016.56 334.611,1136.19 335.121,970.208 335.632,1209.46 336.142,1101.79 
  336.653,1270.76 337.163,949.274 337.674,1125.72 338.185,1278.24 338.695,1119.74 339.206,1157.12 339.716,878.994 340.227,1121.23 340.737,1009.09 341.248,941.797 
  341.758,1142.17 342.269,1252.82 342.779,1115.25 343.29,974.694 343.8,883.48 344.311,1109.27 344.822,1040.49 345.332,1019.55 345.843,1079.37 346.353,1080.86 
  346.864,1094.32 347.374,1152.64 347.885,1173.57 348.395,1160.11 348.906,1033.01 349.416,1142.17 349.927,1164.6 350.437,916.377 350.948,995.628 351.459,578.437 
  351.969,1092.82 352.48,922.358 352.99,825.163 353.501,1203.48 354.011,1236.37 354.522,751.893 355.032,884.975 355.543,1015.07 356.053,844.602 356.564,1178.06 
  357.074,1273.76 357.585,1178.06 358.096,1139.18 358.606,823.668 359.117,711.52 359.627,1055.44 360.138,935.816 360.648,1143.66 361.159,1372.45 361.669,1149.64 
  362.18,1053.95 362.69,680.118 363.201,1275.25 363.711,1284.22 364.222,1130.21 364.733,1184.04 365.243,878.994 365.754,1030.02 366.264,1210.95 366.775,908.9 
  367.285,1097.31 367.796,1154.13 368.306,1169.08 368.817,1115.25 369.327,902.919 369.838,1203.48 370.348,968.713 370.859,587.409 371.37,985.161 371.88,1003.1 
  372.391,925.349 372.901,1067.4 373.412,967.217 373.922,1201.98 374.433,1161.61 374.943,1306.65 375.454,1024.04 375.964,1314.13 376.475,1107.78 376.986,1370.95 
  377.496,938.806 378.007,1188.52 378.517,1094.32 379.028,871.518 379.538,1231.89 380.049,1157.12 380.559,724.977 381.07,1219.92 381.58,923.853 382.091,1041.98 
  382.601,874.508 383.112,1101.79 383.623,1376.93 384.133,1131.7 384.644,1326.09 385.154,1191.51 385.665,980.675 386.175,1198.99 386.686,1128.71 387.196,1240.86 
  387.707,1282.73 388.217,1173.57 388.728,958.245 389.238,1139.18 389.749,766.846 390.26,980.675 390.77,1252.82 391.281,864.041 391.791,876.003 392.302,1285.72 
  392.812,1203.48 393.323,1191.51 393.833,1267.77 394.344,1182.54 394.854,1149.64 395.365,913.386 395.875,1178.06 396.386,994.133 396.897,964.227 397.407,659.184 
  397.918,1031.52 398.428,1338.05 398.939,1320.11 399.449,940.302 399.96,1254.32 400.47,1233.38 400.981,1315.62 401.491,1179.55 402.002,1239.36 402.512,1170.58 
  403.023,1225.91 403.534,1122.73 404.044,953.759 404.555,1275.25 405.065,1166.09 405.576,1068.9 406.086,1164.6 406.597,1354.5 407.107,1128.71 407.618,1341.04 
  408.128,1249.83 408.639,1158.62 409.149,1028.52 409.66,865.536 410.171,1266.28 410.681,736.94 411.192,570.961 411.702,1284.22 412.213,1118.24 412.723,1140.67 
  413.234,1345.53 413.744,1172.07 414.255,1182.54 414.765,798.247 415.276,878.994 415.786,1134.69 416.297,1148.15 416.808,1187.03 417.318,1001.61 417.829,756.379 
  418.339,1231.89 418.85,1251.33 419.36,1127.22 419.871,1285.72 420.381,1137.68 420.892,1130.21 421.402,1154.13 421.913,1239.36 422.423,916.377 422.934,1254.32 
  423.445,717.501 423.955,1059.93 424.466,1224.41 424.976,1210.95 425.487,1040.49 425.997,1249.83 426.508,1109.27 427.018,952.264 427.529,943.292 428.039,1251.33 
  428.55,1206.47 429.06,1209.46 429.571,1312.63 430.082,1064.41 430.592,730.959 431.103,940.302 431.613,1036 432.124,1318.61 432.634,1245.34 433.145,1113.76 
  433.655,1098.8 434.166,1243.85 434.676,1193.01 435.187,1148.15 435.697,1284.22 436.208,1311.14 436.719,1173.57 437.229,1127.22 437.74,484.233 438.25,1266.28 
  438.761,1263.29 439.271,1001.61 439.782,974.694 440.292,1146.65 440.803,1067.4 441.313,1308.15 441.824,1157.12 442.334,1212.45 442.845,1100.3 443.356,1213.94 
  443.866,1315.62 444.377,962.731 444.887,1112.26 445.398,1196 445.908,1172.07 446.419,1139.18 446.929,1034.51 447.44,1323.1 447.95,1278.24 448.461,1231.89 
  448.971,1257.31 449.482,1267.77 449.993,1243.85 450.503,1027.03 451.014,1201.98 451.524,1267.77 452.035,1047.96 452.545,1068.9 453.056,1236.37 453.566,1296.18 
  454.077,1230.39 454.587,1311.14 455.098,946.283 455.609,1212.45 456.119,1257.31 456.63,1007.59 457.14,1001.61 457.651,1088.34 458.161,1278.24 458.672,910.396 
  459.182,1270.76 459.693,1125.72 460.203,1179.55 460.714,1260.3 461.224,1170.58 461.735,1178.06 462.246,1198.99 462.756,976.189 463.267,1155.63 463.777,1269.27 
  464.288,1158.62 464.798,1197.49 465.309,1178.06 465.819,1215.44 466.33,1185.53 466.84,1080.86 467.351,1288.71 467.861,1248.34 468.372,1166.09 468.883,1267.77 
  469.393,1179.55 469.904,1221.42 470.414,1122.73 470.925,1299.18 471.435,1109.27 471.946,1284.22 472.456,1109.27 472.967,941.797 473.477,1007.59 473.988,1372.45 
  474.498,1012.08 475.009,1204.97 475.52,1228.9 476.03,1270.76 476.541,1257.31 477.051,1314.13 477.562,1056.94 478.072,992.637 478.583,1088.34 479.093,1068.9 
  479.604,1248.34 480.114,1348.52 480.625,1254.32 481.135,1396.37 481.646,1240.86 482.157,1278.24 482.667,1130.21 483.178,1146.65 483.688,1149.64 484.199,1303.66 
  484.709,1175.06 485.22,1273.76 485.73,1266.28 486.241,1209.46 486.751,1130.21 487.262,1112.26 487.772,1095.81 488.283,1230.39 488.794,1260.3 489.304,1176.56 
  489.815,1122.73 490.325,1059.93 490.836,1088.34 491.346,1218.43 491.857,1044.97 492.367,1173.57 492.878,1200.49 493.388,1100.3 493.899,1193.01 494.409,1137.68 
  494.92,1107.78 495.431,1046.47 495.941,1311.14 496.452,980.675 496.962,1034.51 497.473,1239.36 497.983,1306.65 498.494,1227.4 499.004,1104.79 499.515,1345.53 
  500.025,1052.45 500.536,1055.44 501.046,1179.55 501.557,1255.81 502.068,1190.02 502.578,1266.28 503.089,1224.41 503.599,1252.82 504.11,1080.86 504.62,1119.74 
  505.131,1200.49 505.641,1333.57 506.152,1234.88 506.662,1281.23 507.173,1303.66 507.683,1149.64 508.194,1079.37 508.705,1091.33 509.215,1182.54 509.726,1318.61 
  510.236,1326.09 510.747,1225.91 511.257,1040.49 511.768,1281.23 512.278,1364.97 512.789,1291.7 513.299,1424.78 513.81,1176.56 514.32,1224.41 514.831,1198.99 
  515.342,1188.52 515.852,1309.64 516.363,1033.01 516.873,1266.28 517.384,1104.79 517.894,1284.22 518.405,1204.97 518.915,1273.76 519.426,1033.01 519.936,1152.64 
  520.447,1025.53 520.957,1338.05 521.468,1203.48 521.979,1143.66 522.489,1167.59 523,1318.61 523.51,1210.95 524.021,1245.34 524.531,1230.39 525.042,1361.98 
  525.552,1151.14 526.063,995.628 526.573,1252.82 527.084,1239.36 527.594,1360.48 528.105,1299.18 528.616,1216.93 529.126,1169.08 529.637,1240.86 530.147,1097.31 
  530.658,1270.76 531.168,1169.08 531.679,1228.9 532.189,1317.12 532.7,1318.61 533.21,1185.53 533.721,1225.91 534.232,1219.92 534.742,1245.34 535.253,1251.33 
  535.763,1294.69 536.274,1324.6 536.784,1151.14 537.295,1212.45 537.805,1172.07 538.316,1225.91 538.826,1224.41 539.337,908.9 539.847,1294.69 540.358,1206.47 
  540.869,1194.5 541.379,1107.78 541.89,1107.78 542.4,1146.65 542.911,1210.95 543.421,1149.64 543.932,1281.23 544.442,1264.78 544.953,1228.9 545.463,1327.59 
  545.974,1036 546.484,1074.88 546.995,1184.04 547.506,1400.86 548.016,1263.29 548.527,940.302 549.037,1170.58 549.548,1219.92 550.058,1077.87 550.569,1049.46 
  551.079,953.759 551.59,1091.33 552.1,1387.4 552.611,1228.9 553.121,1278.24 553.632,1309.64 554.143,1305.16 554.653,1030.02 555.164,980.675 555.674,1275.25 
  556.185,1252.82 556.695,1272.26 557.206,1110.77 557.716,1187.03 558.227,1333.57 558.737,1097.31 559.248,1219.92 559.758,1022.54 560.269,1134.69 560.78,1173.57 
  561.29,1178.06 561.801,1155.63 562.311,1106.28 562.822,1257.31 563.332,1333.57 563.843,1119.74 564.353,1245.34 564.864,1248.34 565.374,1222.91 565.885,1269.27 
  566.395,1134.69 566.906,1228.9 567.417,1402.35 567.927,1083.85 568.438,1258.8 568.948,1299.18 569.459,1203.48 569.969,1216.93 570.48,1173.57 570.99,1237.87 
  571.501,1173.57 572.011,1088.34 572.522,1187.03 573.032,1324.6 573.543,1335.06 574.054,1278.24 574.564,1134.69 575.075,1230.39 575.585,1317.12 576.096,1143.66 
  576.606,1285.72 577.117,1194.5 577.627,1240.86 578.138,1133.2 578.648,1306.65 579.159,1178.06 579.669,1184.04 580.18,1270.76 580.691,1041.98 581.201,1270.76 
  581.712,988.152 582.222,1378.43 582.733,1264.78 583.243,991.142 583.754,1285.72 584.264,1062.92 584.775,1323.1 585.285,1281.23 585.796,1113.76 586.306,1306.65 
  586.817,1133.2 587.328,1197.49 587.838,1221.42 588.349,1109.27 588.859,986.656 589.37,1230.39 589.88,1263.29 590.391,1282.73 590.901,1225.91 591.412,1329.08 
  591.922,1345.53 592.433,1136.19 592.943,1242.35 593.454,1269.27 593.965,1194.5 594.475,1276.75 594.986,1272.26 595.496,1172.07 596.007,1049.46 596.517,1246.84 
  597.028,1252.82 597.538,1131.7 598.049,1272.26 598.559,1166.09 599.07,1109.27 599.58,1137.68 600.091,1128.71 600.602,1330.58 601.112,1243.85 601.623,1119.74 
  602.133,1191.51 602.644,1237.87 603.154,1157.12 603.665,1248.34 604.175,1372.45 604.686,1070.39 605.196,1107.78 605.707,1104.79 606.217,1207.96 606.728,1287.21 
  607.239,1233.38 607.749,1308.15 608.26,1335.06 608.77,1255.81 609.281,1173.57 609.791,1098.8 610.302,1239.36 610.812,1264.78 611.323,1148.15 611.833,1290.2 
  612.344,1179.55 612.854,1342.54 613.365,1206.47 613.876,1234.88 614.386,1239.36 614.897,1285.72 615.407,1309.64 615.918,1212.45 616.428,1098.8 616.939,1125.72 
  617.449,1324.6 617.96,1201.98 618.47,1137.68 618.981,1025.53 619.492,1252.82 620.002,1297.68 620.513,1227.4 621.023,1246.84 621.534,952.264 622.044,1257.31 
  622.555,1306.65 623.065,1311.14 623.576,1145.16 624.086,1344.03 624.597,1285.72 625.107,1311.14 625.618,1173.57 626.129,1130.21 626.639,1255.81 627.15,1272.26 
  627.66,1272.26 628.171,1324.6 628.681,1172.07 629.192,1221.42 629.702,944.788 630.213,1184.04 630.723,1196 631.234,1248.34 631.744,1157.12 632.255,1222.91 
  632.766,1267.77 633.276,1263.29 633.787,1263.29 634.297,998.619 634.808,1007.59 635.318,1376.93 635.829,1367.96 636.339,1402.35 636.85,1134.69 637.36,1270.76 
  637.871,1065.91 638.381,1275.25 638.892,1281.23 639.403,1044.97 639.913,1329.08 640.424,1323.1 640.934,1281.23 641.445,1336.56 641.955,1257.31 642.466,1179.55 
  642.976,1445.72 643.487,1248.34 643.997,1287.21 644.508,1068.9 645.018,1124.22 645.529,1151.14 646.04,1335.06 646.55,1296.18 647.061,1216.93 647.571,1342.54 
  648.082,1198.99 648.592,1167.59 649.103,1287.21 649.613,1251.33 650.124,1097.31 650.634,1172.07 651.145,1327.59 651.655,1187.03 652.166,1276.75 652.677,1207.96 
  653.187,1255.81 653.698,1207.96 654.208,1200.49 654.719,1327.59 655.229,1306.65 655.74,1305.16 656.25,1287.21 656.761,1297.68 657.271,1203.48 657.782,1341.04 
  658.292,1158.62 658.803,1290.2 659.314,985.161 659.824,1354.5 660.335,1097.31 660.845,1038.99 661.356,1086.84 661.866,1139.18 662.377,1149.64 662.887,1263.29 
  663.398,1204.97 663.908,1158.62 664.419,1121.23 664.929,1041.98 665.44,1242.35 665.951,1336.56 666.461,1175.06 666.972,1085.35 667.482,1261.79 667.993,1312.63 
  668.503,1339.55 669.014,1248.34 669.524,1320.11 670.035,1167.59 670.545,1399.36 671.056,1345.53 671.566,1358.99 672.077,1341.04 672.588,1299.18 673.098,1252.82 
  673.609,1242.35 674.119,1297.68 674.63,1107.78 675.14,1209.46 675.651,1260.3 676.161,1246.84 676.672,1376.93 677.182,1167.59 677.693,1350.02 678.203,1406.84 
  678.714,1218.43 679.225,1294.69 679.735,1391.88 680.246,1379.92 680.756,1219.92 681.267,1185.53 681.777,1201.98 682.288,1221.42 682.798,1306.65 683.309,1314.13 
  683.819,1228.9 684.33,1231.89 684.84,1336.56 685.351,952.264 685.862,1178.06 686.372,1013.57 686.883,1290.2 687.393,1255.81 687.904,1273.76 688.414,1219.92 
  688.925,1324.6 689.435,1335.06 689.946,1157.12 690.456,1341.04 690.967,1330.58 691.477,1222.91 691.988,1176.56 692.499,1369.45 693.009,1330.58 693.52,1290.2 
  694.03,1408.33 694.541,1197.49 695.051,1317.12 695.562,1287.21 696.072,1140.67 696.583,1276.75 697.093,476.756 697.604,1178.06 698.115,1267.77 698.625,1339.55 
  699.136,1305.16 699.646,1261.79 700.157,1083.85 700.667,1324.6 701.178,1181.05 701.688,1041.98 702.199,1040.49 702.709,1324.6 703.22,1224.41 703.73,923.853 
  704.241,1178.06 704.752,1143.66 705.262,1290.2 705.773,1197.49 706.283,1245.34 706.794,1097.31 707.304,1179.55 707.815,1034.51 708.325,1321.61 708.836,1231.89 
  709.346,1336.56 709.857,1317.12 710.367,1323.1 710.878,1204.97 711.389,1224.41 711.899,1326.09 712.41,1276.75 712.92,1354.5 713.431,1207.96 713.941,1112.26 
  714.452,1364.97 714.962,1373.94 715.473,1263.29 715.983,1309.64 716.494,1341.04 717.004,1264.78 717.515,1276.75 718.026,1284.22 718.536,1234.88 719.047,968.713 
  719.557,1193.01 720.068,1339.55 720.578,1193.01 721.089,1275.25 721.599,1193.01 722.11,1314.13 722.62,1092.82 723.131,1281.23 723.641,1222.91 724.152,1118.24 
  724.663,1213.94 725.173,1191.51 725.684,1082.36 726.194,1082.36 726.705,1236.37 727.215,1210.95 727.726,1146.65 728.236,1261.79 728.747,1278.24 729.257,1257.31 
  729.768,1290.2 730.278,1181.05 730.789,1344.03 731.3,1305.16 731.81,1221.42 732.321,1330.58 732.831,1406.84 733.342,985.161 733.852,1061.42 734.363,1321.61 
  734.873,1305.16 735.384,1263.29 735.894,1338.05 736.405,1222.91 736.915,1350.02 737.426,1212.45 737.937,1181.05 738.447,1375.44 738.958,1221.42 739.468,1306.65 
  739.979,1257.31 740.489,1139.18 741,1148.15 741.51,1055.44 742.021,952.264 742.531,1320.11 743.042,1300.67 743.552,1157.12 744.063,1207.96 744.574,1287.21 
  745.084,1176.56 745.595,1387.4 746.105,1191.51 746.616,1246.84 747.126,1149.64 747.637,1345.53 748.147,1221.42 748.658,1254.32 749.168,1285.72 749.679,1261.79 
  750.189,1237.87 750.7,1176.56 751.211,1215.44 751.721,1291.7 752.232,1148.15 752.742,1306.65 753.253,1091.33 753.763,1125.72 754.274,1219.92 754.784,1143.66 
  755.295,1246.84 755.805,1347.03 756.316,1276.75 756.826,1210.95 757.337,1278.24 757.848,1118.24 758.358,1311.14 758.869,1378.43 759.379,1234.88 759.89,1249.83 
  760.4,1318.61 760.911,1318.61 761.421,1266.28 761.932,1213.94 762.442,1137.68 762.953,1231.89 763.463,1296.18 763.974,1287.21 764.485,1339.55 764.995,1327.59 
  765.506,1237.87 766.016,1125.72 766.527,1255.81 767.037,1330.58 767.548,1245.34 768.058,1218.43 768.569,1338.05 769.079,1219.92 769.59,1261.79 770.1,1302.17 
  770.611,1216.93 771.122,1131.7 771.632,1264.78 772.143,1184.04 772.653,1245.34 773.164,1269.27 773.674,1273.76 774.185,1260.3 774.695,1237.87 775.206,1360.48 
  775.716,1079.37 776.227,1125.72 776.737,1342.54 777.248,1288.71 777.759,1279.74 778.269,1203.48 778.78,1288.71 779.29,1356 779.801,1323.1 780.311,1252.82 
  780.822,1303.66 781.332,1284.22 781.843,1272.26 782.353,1279.74 782.864,1085.35 783.375,1222.91 783.885,1201.98 784.396,1116.75 784.906,1213.94 785.417,1276.75 
  785.927,1131.7 786.438,1305.16 786.948,1110.77 787.459,1101.79 787.969,1127.22 788.48,1145.16 788.99,1204.97 789.501,1242.35 790.012,1261.79 790.522,1288.71 
  791.033,1231.89 791.543,1077.87 792.054,1308.15 792.564,1158.62 793.075,1288.71 793.585,1300.67 794.096,1366.46 794.606,1160.11 795.117,1200.49 795.627,1233.38 
  796.138,1341.04 796.649,1278.24 797.159,1176.56 797.67,1248.34 798.18,1291.7 798.691,1203.48 799.201,941.797 799.712,1130.21 800.222,1124.22 800.733,1288.71 
  801.243,1193.01 801.754,1281.23 802.264,1297.68 802.775,1101.79 803.286,1140.67 803.796,1264.78 804.307,1207.96 804.817,1231.89 805.328,1100.3 805.838,1148.15 
  806.349,1296.18 806.859,1360.48 807.37,1196 807.88,1210.95 808.391,1330.58 808.901,1083.85 809.412,1281.23 809.923,1187.03 810.433,1382.91 810.944,1207.96 
  811.454,1418.8 811.965,1356 812.475,1222.91 812.986,1251.33 813.496,1243.85 814.007,1248.34 814.517,1358.99 815.028,1327.59 815.538,1142.17 816.049,1196 
  816.56,1258.8 817.07,1351.51 817.581,1281.23 818.091,1363.47 818.602,1321.61 819.112,1282.73 819.623,1167.59 820.133,1312.63 820.644,1176.56 821.154,1258.8 
  821.665,1227.4 822.175,1269.27 822.686,1246.84 823.197,1255.81 823.707,1405.34 824.218,1279.74 824.728,1191.51 825.239,1200.49 825.749,1175.06 826.26,1285.72 
  826.77,1210.95 827.281,1146.65 827.791,1245.34 828.302,1204.97 828.812,1285.72 829.323,1273.76 829.834,1070.39 830.344,1263.29 830.855,1219.92 831.365,1213.94 
  831.876,1134.69 832.386,1257.31 832.897,1327.59 833.407,1115.25 833.918,1164.6 834.428,1276.75 834.939,1231.89 835.449,1131.7 835.96,1285.72 836.471,961.236 
  836.981,1193.01 837.492,1278.24 838.002,1290.2 838.513,1221.42 839.023,1358.99 839.534,1329.08 840.044,1234.88 840.555,1034.51 841.065,1249.83 841.576,1243.85 
  842.086,1312.63 842.597,1314.13 843.108,947.778 843.618,1254.32 844.129,1243.85 844.639,1107.78 845.15,1284.22 845.66,1169.08 846.171,1146.65 846.681,1176.56 
  847.192,1222.91 847.702,1236.37 848.213,1324.6 848.723,1221.42 849.234,1030.02 849.745,1306.65 850.255,1231.89 850.766,1064.41 851.276,1106.28 851.787,1194.5 
  852.297,1228.9 852.808,1052.45 853.318,1131.7 853.829,1246.84 854.339,1261.79 854.85,1366.46 855.36,1267.77 855.871,1185.53 856.382,1187.03 856.892,1370.95 
  857.403,1314.13 857.913,1329.08 858.424,1197.49 858.934,1327.59 859.445,1267.77 859.955,1272.26 860.466,1263.29 860.976,1243.85 861.487,1198.99 861.998,1261.79 
  862.508,1242.35 863.019,1104.79 863.529,1278.24 864.04,1275.25 864.55,1125.72 865.061,1154.13 865.571,1345.53 866.082,1290.2 866.592,1182.54 867.103,1061.42 
  867.613,1209.46 868.124,1314.13 868.635,1224.41 869.145,1357.49 869.656,1261.79 870.166,1106.28 870.677,1224.41 871.187,1318.61 871.698,1341.04 872.208,1210.95 
  872.719,1299.18 873.229,1046.47 873.74,1236.37 874.25,1227.4 874.761,1083.85 875.272,1134.69 875.782,1272.26 876.293,1282.73 876.803,1149.64 877.314,893.947 
  877.824,1296.18 878.335,1297.68 878.845,1281.23 879.356,1251.33 879.866,1246.84 880.377,1000.11 880.887,1122.73 881.398,1228.9 881.909,1305.16 882.419,1204.97 
  882.93,1252.82 883.44,1302.17 883.951,1233.38 884.461,1338.05 884.972,1290.2 885.482,1233.38 885.993,1335.06 886.503,1341.04 887.014,1184.04 887.524,1341.04 
  888.035,1128.71 888.546,1252.82 889.056,1097.31 889.567,1237.87 890.077,1299.18 890.588,1216.93 891.098,1172.07 891.609,1239.36 892.119,1092.82 892.63,1200.49 
  893.14,1097.31 893.651,1275.25 894.161,1122.73 894.672,1306.65 895.183,1363.47 895.693,1314.13 896.204,1311.14 896.714,1281.23 897.225,1134.69 897.735,949.274 
  898.246,1216.93 898.756,1345.53 899.267,1306.65 899.777,1055.44 900.288,1249.83 900.798,1335.06 901.309,1320.11 901.82,1242.35 902.33,1363.47 902.841,1435.25 
  903.351,1285.72 903.862,1191.51 904.372,1198.99 904.883,1321.61 905.393,1249.83 905.904,1237.87 906.414,1296.18 906.925,1231.89 907.435,1237.87 907.946,1137.68 
  908.457,1293.19 908.967,1249.83 909.478,1282.73 909.988,1320.11 910.499,1264.78 911.009,1110.77 911.52,1366.46 912.03,983.666 912.541,1330.58 913.051,1152.64 
  913.562,1258.8 914.072,1175.06 914.583,1136.19 915.094,1240.86 915.604,1218.43 916.115,1303.66 916.625,1136.19 917.136,1172.07 917.646,1167.59 918.157,1267.77 
  918.667,1279.74 919.178,1080.86 919.688,1330.58 920.199,1326.09 920.709,1320.11 921.22,1309.64 921.731,1151.14 922.241,1321.61 922.752,1196 923.262,1318.61 
  923.773,1305.16 924.283,1243.85 924.794,1119.74 925.304,1320.11 925.815,1338.05 926.325,1128.71 926.836,1086.84 927.346,1187.03 927.857,1288.71 928.368,1163.1 
  928.878,1348.52 929.389,1336.56 929.899,1394.88 930.41,1160.11 930.92,1314.13 931.431,1251.33 931.941,1089.83 932.452,1357.49 932.962,1351.51 933.473,1224.41 
  933.983,1364.97 934.494,1290.2 935.005,1321.61 935.515,1222.91 936.026,1324.6 936.536,1206.47 937.047,1296.18 937.557,1300.67 938.068,1110.77 938.578,1272.26 
  939.089,1236.37 939.599,1163.1 940.11,1248.34 940.621,1258.8 941.131,1291.7 941.642,1275.25 942.152,1181.05 942.663,1200.49 943.173,1290.2 943.684,1113.76 
  944.194,1312.63 944.705,1281.23 945.215,1245.34 945.726,1194.5 946.236,1263.29 946.747,1245.34 947.258,1101.79 947.768,1279.74 948.279,1128.71 948.789,1299.18 
  949.3,1210.95 949.81,1263.29 950.321,1257.31 950.831,1266.28 951.342,1330.58 951.852,1315.62 952.363,1272.26 952.873,1167.59 953.384,1267.77 953.895,1221.42 
  954.405,1299.18 954.916,1246.84 955.426,1293.19 955.937,1300.67 956.447,1248.34 956.958,1287.21 957.468,1243.85 957.979,1263.29 958.489,1198.99 959,1308.15 
  959.51,1115.25 960.021,905.91 960.532,1243.85 961.042,1373.94 961.553,1207.96 962.063,1236.37 962.574,1356 963.084,1272.26 963.595,1342.54 964.105,1279.74 
  964.616,1306.65 965.126,1261.79 965.637,1215.44 966.147,1341.04 966.658,1279.74 967.169,1287.21 967.679,1288.71 968.19,1245.34 968.7,1282.73 969.211,1339.55 
  969.721,1173.57 970.232,1305.16 970.742,1354.5 971.253,1290.2 971.763,1143.66 972.274,1285.72 972.784,1255.81 973.295,1360.48 973.806,1190.02 974.316,1263.29 
  974.827,1022.54 975.337,1335.06 975.848,1094.32 976.358,1294.69 976.869,1321.61 977.379,1278.24 977.89,1266.28 978.4,1258.8 978.911,1107.78 979.421,1134.69 
  979.932,1339.55 980.443,1010.58 980.953,1233.38 981.464,1055.44 981.974,1248.34 982.485,1364.97 982.995,1312.63 983.506,1312.63 984.016,1336.56 984.527,1347.03 
  985.037,1143.66 985.548,1163.1 986.058,1246.84 986.569,1285.72 987.08,1345.53 987.59,1207.96 988.101,1291.7 988.611,1024.04 989.122,1373.94 989.632,1222.91 
  990.143,1206.47 990.653,1330.58 991.164,1263.29 991.674,1219.92 992.185,1240.86 992.695,1240.86 993.206,1257.31 993.717,1318.61 994.227,1344.03 994.738,1252.82 
  995.248,1357.49 995.759,1246.84 996.269,1252.82 996.78,1218.43 997.29,1193.01 997.801,1118.24 998.311,1321.61 998.822,1300.67 999.332,1284.22 999.843,1212.45 
  1000.35,1175.06 1000.86,1278.24 1001.37,1258.8 1001.89,1320.11 1002.4,1329.08 1002.91,1149.64 1003.42,1321.61 1003.93,1324.6 1004.44,1315.62 1004.95,1290.2 
  1005.46,1246.84 1005.97,1285.72 1006.48,1190.02 1006.99,1321.61 1007.5,1342.54 1008.01,1338.05 1008.52,949.274 1009.03,1373.94 1009.54,1323.1 1010.05,1294.69 
  1010.56,1308.15 1011.07,1281.23 1011.59,1296.18 1012.1,1206.47 1012.61,1336.56 1013.12,1261.79 1013.63,1216.93 1014.14,1166.09 1014.65,1370.95 1015.16,1257.31 
  1015.67,1266.28 1016.18,1350.02 1016.69,1348.52 1017.2,1347.03 1017.71,1152.64 1018.22,1296.18 1018.73,1267.77 1019.24,1181.05 1019.75,1252.82 1020.26,1191.51 
  1020.78,1227.4 1021.29,1242.35 1021.8,1339.55 1022.31,1266.28 1022.82,1364.97 1023.33,1308.15 1023.84,1339.55 1024.35,1155.63 1024.86,1240.86 1025.37,1194.5 
  1025.88,1224.41 1026.39,1212.45 1026.9,1231.89 1027.41,1312.63 1027.92,1242.35 1028.43,1269.27 1028.94,1246.84 1029.45,1242.35 1029.96,1221.42 1030.48,1145.16 
  1030.99,1193.01 1031.5,1218.43 1032.01,1207.96 1032.52,1246.84 1033.03,1327.59 1033.54,1243.85 1034.05,1224.41 1034.56,1263.29 1035.07,1252.82 1035.58,1209.46 
  1036.09,1086.84 1036.6,1284.22 1037.11,1210.95 1037.62,1269.27 1038.13,1348.52 1038.64,1333.57 1039.15,1254.32 1039.67,1234.88 1040.18,1136.19 1040.69,1145.16 
  1041.2,1366.46 1041.71,1201.98 1042.22,1335.06 1042.73,1288.71 1043.24,1243.85 1043.75,1106.28 1044.26,1320.11 1044.77,1230.39 1045.28,1101.79 1045.79,1282.73 
  1046.3,1276.75 1046.81,1212.45 1047.32,1154.13 1047.83,1197.49 1048.34,1272.26 1048.85,1194.5 1049.37,1237.87 1049.88,1309.64 1050.39,1261.79 1050.9,1311.14 
  1051.41,1052.45 1051.92,1233.38 1052.43,1158.62 1052.94,1193.01 1053.45,1303.66 1053.96,1336.56 1054.47,1338.05 1054.98,1327.59 1055.49,1240.86 1056,1251.33 
  1056.51,1219.92 1057.02,1188.52 1057.53,1266.28 1058.04,1204.97 1058.55,1260.3 1059.07,1311.14 1059.58,1140.67 1060.09,1296.18 1060.6,1309.64 1061.11,1335.06 
  1061.62,1275.25 1062.13,1305.16 1062.64,1239.36 1063.15,1234.88 1063.66,1216.93 1064.17,1188.52 1064.68,1305.16 1065.19,1254.32 1065.7,1330.58 1066.21,1336.56 
  1066.72,1267.77 1067.23,1341.04 1067.74,1320.11 1068.26,1169.08 1068.77,1323.1 1069.28,1299.18 1069.79,1269.27 1070.3,1344.03 1070.81,1275.25 1071.32,1191.51 
  1071.83,1335.06 1072.34,1133.2 1072.85,1291.7 1073.36,1306.65 1073.87,1273.76 1074.38,1279.74 1074.89,1278.24 1075.4,1296.18 1075.91,1184.04 1076.42,1323.1 
  1076.93,1285.72 1077.44,1216.93 1077.96,1225.91 1078.47,1302.17 1078.98,1311.14 1079.49,1215.44 1080,1203.48 1080.51,1266.28 1081.02,1335.06 1081.53,1327.59 
  1082.04,1237.87 1082.55,1353.01 1083.06,1203.48 1083.57,1321.61 1084.08,1251.33 1084.59,1285.72 1085.1,1345.53 1085.61,1306.65 1086.12,1275.25 1086.63,1224.41 
  1087.15,1038.99 1087.66,1222.91 1088.17,1317.12 1088.68,1216.93 1089.19,1234.88 1089.7,1306.65 1090.21,1369.45 1090.72,1342.54 1091.23,1124.22 1091.74,1329.08 
  1092.25,1357.49 1092.76,1178.06 1093.27,1315.62 1093.78,1342.54 1094.29,1285.72 1094.8,1245.34 1095.31,1327.59 1095.82,1233.38 1096.33,1231.89 1096.85,1246.84 
  1097.36,1350.02 1097.87,1266.28 1098.38,1294.69 1098.89,1288.71 1099.4,1288.71 1099.91,1143.66 1100.42,1332.07 1100.93,1276.75 1101.44,1273.76 1101.95,1272.26 
  1102.46,1320.11 1102.97,1360.48 1103.48,1248.34 1103.99,1342.54 1104.5,1173.57 1105.01,1323.1 1105.52,1237.87 1106.04,1287.21 1106.55,1267.77 1107.06,1091.33 
  1107.57,1228.9 1108.08,1278.24 1108.59,1324.6 1109.1,1358.99 1109.61,1290.2 1110.12,1339.55 1110.63,1288.71 1111.14,1228.9 1111.65,1206.47 1112.16,1279.74 
  1112.67,1284.22 1113.18,1357.49 1113.69,1181.05 1114.2,1127.22 1114.71,1293.19 1115.22,1233.38 1115.74,1169.08 1116.25,1267.77 1116.76,1375.44 1117.27,1221.42 
  1117.78,1276.75 1118.29,1113.76 1118.8,1327.59 1119.31,1294.69 1119.82,1196 1120.33,1299.18 1120.84,1369.45 1121.35,1074.88 1121.86,1320.11 1122.37,1203.48 
  1122.88,1261.79 1123.39,1124.22 1123.9,1231.89 1124.41,1272.26 1124.93,1278.24 1125.44,1281.23 1125.95,1246.84 1126.46,1249.83 1126.97,1100.3 1127.48,1294.69 
  1127.99,1206.47 1128.5,1151.14 1129.01,1272.26 1129.52,1257.31 1130.03,1302.17 1130.54,1323.1 1131.05,916.377 1131.56,1291.7 1132.07,1239.36 1132.58,1356 
  1133.09,1326.09 1133.6,1193.01 1134.11,1210.95 1134.63,1378.43 1135.14,1311.14 1135.65,1242.35 1136.16,1187.03 1136.67,1285.72 1137.18,1272.26 1137.69,1064.41 
  1138.2,1197.49 1138.71,1252.82 1139.22,1154.13 1139.73,1294.69 1140.24,1397.87 1140.75,1320.11 1141.26,1282.73 1141.77,1059.93 1142.28,1196 1142.79,1216.93 
  1143.3,1312.63 1143.82,1376.93 1144.33,1314.13 1144.84,1260.3 1145.35,1296.18 1145.86,1335.06 1146.37,1372.45 1146.88,1299.18 1147.39,1320.11 1147.9,1236.37 
  1148.41,1185.53 1148.92,1243.85 1149.43,1270.76 1149.94,1263.29 1150.45,1308.15 1150.96,1221.42 1151.47,1369.45 1151.98,1284.22 1152.49,1309.64 1153,1201.98 
  1153.52,1379.92 1154.03,1092.82 1154.54,1281.23 1155.05,1254.32 1155.56,1332.07 1156.07,1287.21 1156.58,1213.94 1157.09,1303.66 1157.6,1181.05 1158.11,1246.84 
  1158.62,1255.81 1159.13,1215.44 1159.64,1290.2 1160.15,1327.59 1160.66,1252.82 1161.17,1251.33 1161.68,1296.18 1162.19,1245.34 1162.7,1338.05 1163.22,1327.59 
  1163.73,1345.53 1164.24,1201.98 1164.75,1300.67 1165.26,1285.72 1165.77,1269.27 1166.28,1279.74 1166.79,1293.19 1167.3,1303.66 1167.81,1345.53 1168.32,1291.7 
  1168.83,1348.52 1169.34,1270.76 1169.85,1291.7 1170.36,1347.03 1170.87,1257.31 1171.38,1246.84 1171.89,1305.16 1172.41,1341.04 1172.92,1212.45 1173.43,1231.89 
  1173.94,1366.46 1174.45,949.274 1174.96,1315.62 1175.47,1257.31 1175.98,1240.86 1176.49,1320.11 1177,1272.26 1177.51,1254.32 1178.02,1224.41 1178.53,1240.86 
  1179.04,1288.71 1179.55,1300.67 1180.06,1348.52 1180.57,1294.69 1181.08,1191.51 1181.59,1326.09 1182.11,1218.43 1182.62,1326.09 1183.13,1044.97 1183.64,1196 
  1184.15,1264.78 1184.66,1242.35 1185.17,1333.57 1185.68,1278.24 1186.19,1285.72 1186.7,1267.77 1187.21,1243.85 1187.72,1122.73 1188.23,1294.69 1188.74,1400.86 
  1189.25,1360.48 1189.76,1227.4 1190.27,1215.44 1190.78,1293.19 1191.3,1281.23 1191.81,1336.56 1192.32,1300.67 1192.83,1276.75 1193.34,1356 1193.85,1127.22 
  1194.36,1164.6 1194.87,1110.77 1195.38,1267.77 1195.89,1252.82 1196.4,1308.15 1196.91,1136.19 1197.42,1267.77 1197.93,1320.11 1198.44,1293.19 1198.95,1124.22 
  1199.46,1242.35 1199.97,1311.14 1200.48,1296.18 1201,1302.17 1201.51,1260.3 1202.02,1294.69 1202.53,1122.73 1203.04,1329.08 1203.55,1330.58 1204.06,1254.32 
  1204.57,1311.14 1205.08,1287.21 1205.59,1311.14 1206.1,1303.66 1206.61,1299.18 1207.12,1255.81 1207.63,1327.59 1208.14,1303.66 1208.65,1326.09 1209.16,1279.74 
  1209.67,1318.61 1210.19,1260.3 1210.7,1258.8 1211.21,1290.2 1211.72,1305.16 1212.23,1297.68 1212.74,1260.3 1213.25,1204.97 1213.76,1372.45 1214.27,1282.73 
  1214.78,1260.3 1215.29,1252.82 1215.8,1302.17 1216.31,1336.56 1216.82,1258.8 1217.33,1290.2 1217.84,1297.68 1218.35,1170.58 1218.86,1300.67 1219.37,1324.6 
  1219.89,1317.12 1220.4,1350.02 1220.91,1248.34 1221.42,1287.21 1221.93,1302.17 1222.44,1281.23 1222.95,1381.42 1223.46,1282.73 1223.97,1281.23 1224.48,1210.95 
  1224.99,1285.72 1225.5,1233.38 1226.01,1242.35 1226.52,1227.4 1227.03,1264.78 1227.54,1222.91 1228.05,1264.78 1228.56,1311.14 1229.08,1272.26 1229.59,1173.57 
  1230.1,1303.66 1230.61,1266.28 1231.12,1303.66 1231.63,1317.12 1232.14,1309.64 1232.65,1203.48 1233.16,1311.14 1233.67,1347.03 1234.18,1321.61 1234.69,1302.17 
  1235.2,1285.72 1235.71,1305.16 1236.22,1321.61 1236.73,1152.64 1237.24,1303.66 1237.75,1288.71 1238.26,1306.65 1238.78,1239.36 1239.29,1339.55 1239.8,1275.25 
  1240.31,865.536 1240.82,1299.18 1241.33,1207.96 1241.84,1170.58 1242.35,1221.42 1242.86,1269.27 1243.37,1201.98 1243.88,1300.67 1244.39,1260.3 1244.9,1293.19 
  1245.41,1237.87 1245.92,1354.5 1246.43,1267.77 1246.94,1326.09 1247.45,973.198 1247.96,1252.82 1248.48,1338.05 1248.99,1287.21 1249.5,1278.24 1250.01,1249.83 
  1250.52,1197.49 1251.03,1157.12 1251.54,1363.47 1252.05,1234.88 1252.56,1317.12 1253.07,1314.13 1253.58,1079.37 1254.09,1200.49 1254.6,1263.29 1255.11,1155.63 
  1255.62,1294.69 1256.13,1291.7 1256.64,1181.05 1257.15,1308.15 1257.67,1000.11 1258.18,1354.5 1258.69,1339.55 1259.2,1198.99 1259.71,1278.24 1260.22,1285.72 
  1260.73,1163.1 1261.24,1336.56 1261.75,1290.2 1262.26,1234.88 1262.77,1200.49 1263.28,1318.61 1263.79,1311.14 1264.3,1239.36 1264.81,1338.05 1265.32,1175.06 
  1265.83,1233.38 1266.34,1330.58 1266.85,1207.96 1267.37,1276.75 1267.88,1263.29 1268.39,1254.32 1268.9,1354.5 1269.41,1290.2 1269.92,1269.27 1270.43,1234.88 
  1270.94,1294.69 1271.45,1338.05 1271.96,1116.75 1272.47,1363.47 1272.98,1198.99 1273.49,1269.27 1274,1264.78 1274.51,1263.29 1275.02,1297.68 1275.53,1273.76 
  1276.04,1326.09 1276.56,1335.06 1277.07,1347.03 1277.58,1347.03 1278.09,1287.21 1278.6,1309.64 1279.11,1287.21 1279.62,1314.13 1280.13,1210.95 1280.64,1351.51 
  1281.15,1312.63 1281.66,1375.44 1282.17,1176.56 1282.68,1290.2 1283.19,1315.62 1283.7,1348.52 1284.21,1327.59 1284.72,1270.76 1285.23,1275.25 1285.74,1306.65 
  1286.26,1305.16 1286.77,1317.12 1287.28,1210.95 1287.79,1338.05 1288.3,1335.06 1288.81,1309.64 1289.32,1302.17 1289.83,1225.91 1290.34,1312.63 1290.85,1245.34 
  1291.36,1308.15 1291.87,1053.95 1292.38,1294.69 1292.89,1285.72 1293.4,1215.44 1293.91,1360.48 1294.42,1201.98 1294.93,1361.98 1295.45,1357.49 1295.96,1296.18 
  1296.47,1285.72 1296.98,1327.59 1297.49,1317.12 1298,1339.55 1298.51,1315.62 1299.02,1315.62 1299.53,1290.2 1300.04,1305.16 1300.55,1284.22 1301.06,1412.82 
  1301.57,1287.21 1302.08,1255.81 1302.59,1282.73 1303.1,1275.25 1303.61,1314.13 1304.12,1228.9 1304.63,1194.5 1305.15,1321.61 1305.66,1266.28 1306.17,1284.22 
  1306.68,1311.14 1307.19,1302.17 1307.7,1332.07 1308.21,1342.54 1308.72,1278.24 1309.23,1163.1 1309.74,1067.4 1310.25,1264.78 1310.76,1324.6 1311.27,1296.18 
  1311.78,1122.73 1312.29,1275.25 1312.8,1172.07 1313.31,1327.59 1313.82,1293.19 1314.34,1321.61 1314.85,1281.23 1315.36,1206.47 1315.87,1302.17 1316.38,1278.24 
  1316.89,1272.26 1317.4,1269.27 1317.91,1287.21 1318.42,1184.04 1318.93,1266.28 1319.44,1315.62 1319.95,1260.3 1320.46,1291.7 1320.97,1300.67 1321.48,1184.04 
  1321.99,1300.67 1322.5,1285.72 1323.01,1213.94 1323.52,1267.77 1324.04,1317.12 1324.55,1350.02 1325.06,1311.14 1325.57,1239.36 1326.08,1261.79 1326.59,1240.86 
  1327.1,1302.17 1327.61,1303.66 1328.12,1296.18 1328.63,1231.89 1329.14,1291.7 1329.65,1318.61 1330.16,1318.61 1330.67,1326.09 1331.18,1315.62 1331.69,1267.77 
  1332.2,1351.51 1332.71,1230.39 1333.22,1332.07 1333.74,1083.85 1334.25,1287.21 1334.76,1128.71 1335.27,1251.33 1335.78,1324.6 1336.29,1297.68 1336.8,1209.46 
  1337.31,1347.03 1337.82,1124.22 1338.33,1342.54 1338.84,1221.42 1339.35,1254.32 1339.86,1264.78 1340.37,1336.56 1340.88,1185.53 1341.39,1266.28 1341.9,1269.27 
  1342.41,1190.02 1342.93,1281.23 1343.44,1279.74 1343.95,1299.18 1344.46,1263.29 1344.97,1281.23 1345.48,1272.26 1345.99,1193.01 1346.5,1267.77 1347.01,1290.2 
  1347.52,1342.54 1348.03,1243.85 1348.54,1366.46 1349.05,1249.83 1349.56,1151.14 1350.07,1306.65 1350.58,1312.63 1351.09,1341.04 1351.6,1311.14 1352.11,1269.27 
  1352.63,1160.11 1353.14,1351.51 1353.65,1275.25 1354.16,1224.41 1354.67,1254.32 1355.18,1347.03 1355.69,1263.29 1356.2,1315.62 1356.71,1326.09 1357.22,1294.69 
  1357.73,1227.4 1358.24,1276.75 1358.75,1191.51 1359.26,1338.05 1359.77,1270.76 1360.28,1221.42 1360.79,1182.54 1361.3,1252.82 1361.82,1185.53 1362.33,1198.99 
  1362.84,1218.43 1363.35,1312.63 1363.86,1302.17 1364.37,1201.98 1364.88,1239.36 1365.39,1303.66 1365.9,1252.82 1366.41,1240.86 1366.92,1152.64 1367.43,1249.83 
  1367.94,1252.82 1368.45,1285.72 1368.96,1327.59 1369.47,1252.82 1369.98,1267.77 1370.49,1201.98 1371,1228.9 1371.52,1190.02 1372.03,1236.37 1372.54,1291.7 
  1373.05,1197.49 1373.56,1185.53 1374.07,1309.64 1374.58,1341.04 1375.09,1128.71 1375.6,1225.91 1376.11,1291.7 1376.62,1175.06 1377.13,1200.49 1377.64,1367.96 
  1378.15,1270.76 1378.66,1369.45 1379.17,1281.23 1379.68,1356 1380.19,1181.05 1380.71,1324.6 1381.22,1317.12 1381.73,1145.16 1382.24,1335.06 1382.75,1317.12 
  1383.26,1272.26 1383.77,1281.23 1384.28,1288.71 1384.79,1308.15 1385.3,1278.24 1385.81,1308.15 1386.32,1311.14 1386.83,1273.76 1387.34,1287.21 1387.85,1308.15 
  1388.36,1315.62 1388.87,1261.79 1389.38,1288.71 1389.89,1281.23 1390.41,1287.21 1390.92,1215.44 1391.43,1279.74 1391.94,1278.24 1392.45,1196 1392.96,1273.76 
  1393.47,1260.3 1393.98,1080.86 1394.49,1303.66 1395,1314.13 1395.51,1201.98 1396.02,1249.83 1396.53,1252.82 1397.04,1341.04 1397.55,1193.01 1398.06,1245.34 
  1398.57,1146.65 1399.08,1305.16 1399.6,1263.29 1400.11,1245.34 1400.62,1273.76 1401.13,1279.74 1401.64,1294.69 1402.15,1281.23 1402.66,1264.78 1403.17,1369.45 
  1403.68,1290.2 1404.19,1324.6 1404.7,1314.13 1405.21,1327.59 1405.72,1308.15 1406.23,1269.27 1406.74,1366.46 1407.25,1203.48 1407.76,1347.03 1408.27,1282.73 
  1408.78,1320.11 1409.3,1317.12 1409.81,1348.52 1410.32,1358.99 1410.83,1290.2 1411.34,1351.51 1411.85,1276.75 1412.36,1230.39 1412.87,1336.56 1413.38,1233.38 
  1413.89,1204.97 1414.4,1293.19 1414.91,1034.51 1415.42,1267.77 1415.93,1272.26 1416.44,1252.82 1416.95,1312.63 1417.46,1318.61 1417.97,1321.61 1418.48,1282.73 
  1419,1275.25 1419.51,1312.63 1420.02,1021.05 1420.53,1320.11 1421.04,1231.89 1421.55,1191.51 1422.06,1249.83 1422.57,1264.78 1423.08,1124.22 1423.59,1333.57 
  1424.1,1299.18 1424.61,1358.99 1425.12,1278.24 1425.63,1345.53 1426.14,1219.92 1426.65,1347.03 1427.16,1305.16 1427.67,1281.23 1428.19,1230.39 1428.7,1360.48 
  1429.21,1332.07 1429.72,1347.03 1430.23,1376.93 1430.74,1303.66 1431.25,1240.86 1431.76,1255.81 1432.27,1354.5 1432.78,1279.74 1433.29,1297.68 1433.8,1324.6 
  1434.31,1216.93 1434.82,1188.52 1435.33,1314.13 1435.84,1263.29 1436.35,1299.18 1436.86,1336.56 1437.37,1227.4 1437.89,1297.68 1438.4,1306.65 1438.91,1296.18 
  1439.42,1251.33 1439.93,1320.11 1440.44,1269.27 1440.95,1266.28 1441.46,1243.85 1441.97,1314.13 1442.48,1261.79 1442.99,1344.03 1443.5,1356 1444.01,1184.04 
  1444.52,1317.12 1445.03,1224.41 1445.54,1221.42 1446.05,1218.43 1446.56,1300.67 1447.08,1178.06 1447.59,1297.68 1448.1,1278.24 1448.61,1324.6 1449.12,1276.75 
  1449.63,1290.2 1450.14,1282.73 1450.65,1276.75 1451.16,1219.92 1451.67,1234.88 1452.18,1309.64 1452.69,1321.61 1453.2,1227.4 1453.71,1198.99 1454.22,1282.73 
  1454.73,1188.52 1455.24,1353.01 1455.75,1255.81 1456.26,1339.55 1456.78,1252.82 1457.29,1335.06 1457.8,1342.54 1458.31,1198.99 1458.82,1233.38 1459.33,1376.93 
  1459.84,1305.16 1460.35,1297.68 1460.86,1254.32 1461.37,1324.6 1461.88,1181.05 1462.39,1270.76 1462.9,1275.25 1463.41,1312.63 1463.92,1403.85 1464.43,1294.69 
  1464.94,1294.69 1465.45,1290.2 1465.97,1284.22 1466.48,1303.66 1466.99,1275.25 1467.5,1332.07 1468.01,1306.65 1468.52,1278.24 1469.03,1194.5 1469.54,1354.5 
  1470.05,1239.36 1470.56,1302.17 1471.07,1197.49 1471.58,1336.56 1472.09,1300.67 1472.6,1303.66 1473.11,1221.42 1473.62,1305.16 1474.13,1311.14 1474.64,1314.13 
  1475.15,1300.67 1475.67,1356 1476.18,1293.19 1476.69,1209.46 1477.2,1302.17 1477.71,1315.62 1478.22,1341.04 1478.73,1255.81 1479.24,1243.85 1479.75,1294.69 
  1480.26,1296.18 1480.77,1263.29 1481.28,1336.56 1481.79,1308.15 1482.3,1345.53 1482.81,1182.54 1483.32,1329.08 1483.83,1273.76 1484.34,1184.04 1484.86,1157.12 
  1485.37,1264.78 1485.88,1351.51 1486.39,1239.36 1486.9,1309.64 1487.41,1300.67 1487.92,1269.27 1488.43,1263.29 1488.94,1216.93 1489.45,1257.31 1489.96,1317.12 
  1490.47,1321.61 1490.98,1254.32 1491.49,1312.63 1492,1361.98 1492.51,1200.49 1493.02,1097.31 1493.53,1311.14 1494.04,1350.02 1494.56,1267.77 1495.07,1321.61 
  1495.58,1317.12 1496.09,1282.73 1496.6,1222.91 1497.11,1347.03 1497.62,1255.81 1498.13,1309.64 1498.64,1242.35 1499.15,1213.94 1499.66,1290.2 1500.17,1317.12 
  1500.68,1291.7 1501.19,1305.16 1501.7,1276.75 1502.21,1317.12 1502.72,1218.43 1503.23,1345.53 1503.74,1338.05 1504.26,1351.51 1504.77,1252.82 1505.28,1261.79 
  1505.79,1353.01 1506.3,1342.54 1506.81,1282.73 1507.32,1375.44 1507.83,1317.12 1508.34,1270.76 1508.85,1239.36 1509.36,1308.15 1509.87,1279.74 1510.38,1172.07 
  1510.89,1312.63 1511.4,1294.69 1511.91,1263.29 1512.42,1303.66 1512.93,1318.61 1513.45,1279.74 1513.96,1288.71 1514.47,1302.17 1514.98,1351.51 1515.49,1272.26 
  1516,1305.16 1516.51,1243.85 1517.02,1254.32 1517.53,1394.88 1518.04,1388.89 1518.55,1336.56 1519.06,1317.12 1519.57,1282.73 1520.08,1260.3 1520.59,1309.64 
  1521.1,1305.16 1521.61,1300.67 1522.12,1320.11 1522.63,1285.72 1523.15,1309.64 1523.66,1308.15 1524.17,1155.63 1524.68,1245.34 1525.19,1086.84 1525.7,1375.44 
  1526.21,1311.14 1526.72,1335.06 1527.23,1242.35 1527.74,1246.84 1528.25,1336.56 1528.76,1263.29 1529.27,1264.78 1529.78,1345.53 1530.29,1246.84 1530.8,1267.77 
  1531.31,1236.37 1531.82,1297.68 1532.34,1178.06 1532.85,1276.75 1533.36,1299.18 1533.87,1291.7 1534.38,1358.99 1534.89,1297.68 1535.4,1239.36 1535.91,1326.09 
  1536.42,1278.24 1536.93,1335.06 1537.44,1341.04 1537.95,1272.26 1538.46,1172.07 1538.97,1306.65 1539.48,1234.88 1539.99,1290.2 1540.5,1311.14 1541.01,1342.54 
  1541.52,1206.47 1542.04,1360.48 1542.55,1329.08 1543.06,1240.86 1543.57,1305.16 1544.08,1222.91 1544.59,1327.59 1545.1,1272.26 1545.61,1225.91 1546.12,1179.55 
  1546.63,1309.64 1547.14,1296.18 1547.65,1281.23 1548.16,1251.33 1548.67,1302.17 1549.18,1188.52 1549.69,1314.13 1550.2,1284.22 1550.71,1342.54 1551.23,1324.6 
  1551.74,1406.84 1552.25,1240.86 1552.76,1303.66 1553.27,1296.18 1553.78,1309.64 1554.29,1378.43 1554.8,1317.12 1555.31,1290.2 1555.82,1387.4 1556.33,1333.57 
  1556.84,1394.88 1557.35,1306.65 1557.86,1324.6 1558.37,1251.33 1558.88,1279.74 1559.39,1330.58 1559.9,1367.96 1560.41,1315.62 1560.93,1285.72 1561.44,1324.6 
  1561.95,1373.94 1562.46,1258.8 1562.97,1345.53 1563.48,1279.74 1563.99,1344.03 1564.5,1306.65 1565.01,1345.53 1565.52,1315.62 1566.03,1344.03 1566.54,1354.5 
  1567.05,1260.3 1567.56,1293.19 1568.07,1228.9 1568.58,1308.15 1569.09,1308.15 1569.6,1342.54 1570.12,1324.6 1570.63,1166.09 1571.14,1233.38 1571.65,1303.66 
  1572.16,1251.33 1572.67,1367.96 1573.18,1342.54 1573.69,1354.5 1574.2,1302.17 1574.71,1305.16 1575.22,1273.76 1575.73,1327.59 1576.24,1318.61 1576.75,1115.25 
  1577.26,1249.83 1577.77,1336.56 1578.28,1305.16 1578.79,1330.58 1579.3,1288.71 1579.82,1311.14 1580.33,1324.6 1580.84,1321.61 1581.35,1218.43 1581.86,1302.17 
  1582.37,1188.52 1582.88,1361.98 1583.39,1257.31 1583.9,1317.12 1584.41,1264.78 1584.92,1382.91 1585.43,1333.57 1585.94,1372.45 1586.45,1219.92 1586.96,1258.8 
  1587.47,1273.76 1587.98,1366.46 1588.49,1318.61 1589,1323.1 1589.52,1302.17 1590.03,1242.35 1590.54,1281.23 1591.05,1255.81 1591.56,1287.21 1592.07,1335.06 
  1592.58,1378.43 1593.09,1216.93 1593.6,1378.43 1594.11,1332.07 1594.62,1339.55 1595.13,1329.08 1595.64,1191.51 1596.15,1311.14 1596.66,1308.15 1597.17,1279.74 
  1597.68,1361.98 1598.19,1311.14 1598.71,1306.65 1599.22,1240.86 1599.73,1317.12 1600.24,1284.22 1600.75,1297.68 1601.26,1321.61 1601.77,1173.57 1602.28,1178.06 
  1602.79,1314.13 1603.3,1249.83 1603.81,1347.03 1604.32,1330.58 1604.83,1303.66 1605.34,1315.62 1605.85,1269.27 1606.36,1324.6 1606.87,1329.08 1607.38,1326.09 
  1607.89,1299.18 1608.41,1336.56 1608.92,1278.24 1609.43,1275.25 1609.94,1350.02 1610.45,1339.55 1610.96,1300.67 1611.47,1357.49 1611.98,1288.71 1612.49,1209.46 
  1613,1287.21 1613.51,1302.17 1614.02,1324.6 1614.53,1306.65 1615.04,1306.65 1615.55,1311.14 1616.06,1278.24 1616.57,1311.14 1617.08,1233.38 1617.6,1311.14 
  1618.11,1305.16 1618.62,1327.59 1619.13,1272.26 1619.64,1276.75 1620.15,1312.63 1620.66,1294.69 1621.17,1294.69 1621.68,1320.11 1622.19,1303.66 1622.7,1290.2 
  1623.21,1255.81 1623.72,1342.54 1624.23,1329.08 1624.74,1294.69 1625.25,1315.62 1625.76,1358.99 1626.27,1396.37 1626.78,1320.11 1627.3,1317.12 1627.81,1242.35 
  1628.32,1145.16 1628.83,1323.1 1629.34,1246.84 1629.85,1236.37 1630.36,1294.69 1630.87,1332.07 1631.38,1272.26 1631.89,1285.72 1632.4,1284.22 1632.91,1312.63 
  1633.42,1293.19 1633.93,1290.2 1634.44,1329.08 1634.95,1338.05 1635.46,1390.39 1635.97,1312.63 1636.49,1302.17 1637,1308.15 1637.51,1275.25 1638.02,1324.6 
  1638.53,1254.32 1639.04,1302.17 1639.55,1294.69 1640.06,1338.05 1640.57,1308.15 1641.08,1350.02 1641.59,1332.07 1642.1,1318.61 1642.61,1351.51 1643.12,1387.4 
  1643.63,1333.57 1644.14,1284.22 1644.65,1296.18 1645.16,1342.54 1645.67,1315.62 1646.19,1323.1 1646.7,1278.24 1647.21,1276.75 1647.72,1200.49 1648.23,1233.38 
  1648.74,1336.56 1649.25,1326.09 1649.76,1278.24 1650.27,1305.16 1650.78,1303.66 1651.29,1339.55 1651.8,1297.68 1652.31,1341.04 1652.82,1284.22 1653.33,1372.45 
  1653.84,1300.67 1654.35,1326.09 1654.86,1333.57 1655.38,1369.45 1655.89,1285.72 1656.4,1345.53 1656.91,1309.64 1657.42,1312.63 1657.93,1339.55 1658.44,1356 
  1658.95,1278.24 1659.46,1330.58 1659.97,1222.91 1660.48,1311.14 1660.99,1276.75 1661.5,1324.6 1662.01,1332.07 1662.52,1370.95 1663.03,1341.04 1663.54,1188.52 
  1664.05,1266.28 1664.56,1323.1 1665.08,1222.91 1665.59,1357.49 1666.1,1272.26 1666.61,1353.01 1667.12,1255.81 1667.63,1294.69 1668.14,1335.06 1668.65,1342.54 
  1669.16,1333.57 1669.67,1315.62 1670.18,1314.13 1670.69,1282.73 1671.2,1275.25 1671.71,1273.76 1672.22,1293.19 1672.73,1358.99 1673.24,1330.58 1673.75,1330.58 
  1674.26,1267.77 1674.78,1330.58 1675.29,1302.17 1675.8,1278.24 1676.31,1338.05 1676.82,1317.12 1677.33,1294.69 1677.84,1326.09 1678.35,1351.51 1678.86,1378.43 
  1679.37,1335.06 1679.88,1341.04 1680.39,1363.47 1680.9,1324.6 1681.41,1342.54 1681.92,1260.3 1682.43,1308.15 1682.94,1318.61 1683.45,1299.18 1683.97,1347.03 
  1684.48,1299.18 1684.99,1335.06 1685.5,1284.22 1686.01,1266.28 1686.52,1272.26 1687.03,1324.6 1687.54,1302.17 1688.05,1326.09 1688.56,1320.11 1689.07,1216.93 
  1689.58,1336.56 1690.09,1318.61 1690.6,1329.08 1691.11,1372.45 1691.62,1288.71 1692.13,1341.04 1692.64,1323.1 1693.15,1376.93 1693.67,1267.77 1694.18,1314.13 
  1694.69,1338.05 1695.2,1273.76 1695.71,1332.07 1696.22,1323.1 1696.73,1308.15 1697.24,1323.1 1697.75,1360.48 1698.26,1330.58 1698.77,1342.54 1699.28,1264.78 
  1699.79,1267.77 1700.3,1291.7 1700.81,1342.54 1701.32,1366.46 1701.83,1321.61 1702.34,1329.08 1702.86,1339.55 1703.37,1315.62 1703.88,1364.97 1704.39,1321.61 
  1704.9,1336.56 1705.41,1347.03 1705.92,1306.65 1706.43,1278.24 1706.94,1342.54 1707.45,1294.69 1707.96,1366.46 1708.47,1353.01 1708.98,1309.64 1709.49,1290.2 
  1710,1320.11 1710.51,1288.71 1711.02,1270.76 1711.53,1378.43 1712.04,1324.6 1712.56,1306.65 1713.07,1314.13 1713.58,1347.03 1714.09,1361.98 1714.6,1320.11 
  1715.11,1326.09 1715.62,1333.57 1716.13,1338.05 1716.64,1204.97 1717.15,1327.59 1717.66,1326.09 1718.17,1294.69 1718.68,1272.26 1719.19,1347.03 1719.7,1360.48 
  1720.21,1320.11 1720.72,1354.5 1721.23,1336.56 1721.75,1294.69 1722.26,1311.14 1722.77,1357.49 1723.28,1367.96 1723.79,1296.18 1724.3,1329.08 1724.81,1273.76 
  1725.32,1314.13 1725.83,1321.61 1726.34,1269.27 1726.85,1390.39 1727.36,1236.37 1727.87,1187.03 1728.38,1263.29 1728.89,1356 1729.4,1191.51 1729.91,1254.32 
  1730.42,1293.19 1730.93,974.694 1731.45,1306.65 1731.96,1279.74 1732.47,1339.55 1732.98,1414.31 1733.49,1336.56 1734,1257.31 1734.51,1333.57 1735.02,1318.61 
  1735.53,1411.32 1736.04,1326.09 1736.55,1279.74 1737.06,1303.66 1737.57,1370.95 1738.08,1243.85 1738.59,1137.68 1739.1,1065.91 1739.61,1354.5 1740.12,1260.3 
  1740.64,1309.64 1741.15,1320.11 1741.66,1330.58 1742.17,1339.55 1742.68,1305.16 1743.19,1351.51 1743.7,1375.44 1744.21,1266.28 1744.72,1303.66 1745.23,1378.43 
  1745.74,1360.48 1746.25,1306.65 1746.76,1119.74 1747.27,1327.59 1747.78,1326.09 1748.29,1272.26 1748.8,1363.47 1749.31,1204.97 1749.82,1284.22 1750.34,1317.12 
  1750.85,1357.49 1751.36,1341.04 1751.87,1297.68 1752.38,1155.63 1752.89,1335.06 1753.4,1305.16 1753.91,1290.2 1754.42,1393.38 1754.93,1330.58 1755.44,1273.76 
  1755.95,1353.01 1756.46,1293.19 1756.97,1281.23 1757.48,1369.45 1757.99,1321.61 1758.5,1354.5 1759.01,1397.87 1759.52,1227.4 1760.04,1309.64 1760.55,1315.62 
  1761.06,1246.84 1761.57,1122.73 1762.08,1302.17 1762.59,1363.47 1763.1,1369.45 1763.61,1170.58 1764.12,1312.63 1764.63,1400.86 1765.14,1294.69 1765.65,1394.88 
  1766.16,1312.63 1766.67,1278.24 1767.18,1350.02 1767.69,1323.1 1768.2,1381.42 1768.71,1323.1 1769.23,1257.31 1769.74,1187.03 1770.25,1338.05 1770.76,1326.09 
  1771.27,1279.74 1771.78,1231.89 1772.29,1290.2 1772.8,1329.08 1773.31,1294.69 1773.82,1356 1774.33,1314.13 1774.84,1400.86 1775.35,1278.24 1775.86,1143.66 
  1776.37,1351.51 1776.88,1264.78 1777.39,1249.83 1777.9,1320.11 1778.41,1284.22 1778.93,1086.84 1779.44,1354.5 1779.95,1330.58 1780.46,1311.14 1780.97,1324.6 
  1781.48,1293.19 1781.99,1335.06 1782.5,1379.92 1783.01,1378.43 1783.52,1315.62 1784.03,1308.15 1784.54,1347.03 1785.05,1269.27 1785.56,1291.7 1786.07,1353.01 
  1786.58,1329.08 1787.09,1279.74 1787.6,1249.83 1788.12,1321.61 1788.63,1297.68 1789.14,1225.91 1789.65,1308.15 1790.16,1152.64 1790.67,1321.61 1791.18,1351.51 
  1791.69,1323.1 1792.2,1335.06 1792.71,1293.19 1793.22,1350.02 1793.73,1276.75 1794.24,1366.46 1794.75,1347.03 1795.26,1312.63 1795.77,1303.66 1796.28,1326.09 
  1796.79,1347.03 1797.3,1336.56 1797.82,1305.16 1798.33,1360.48 1798.84,1315.62 1799.35,1330.58 1799.86,1345.53 1800.37,1363.47 1800.88,1375.44 1801.39,1311.14 
  1801.9,1320.11 1802.41,1338.05 1802.92,1336.56 1803.43,1326.09 1803.94,1276.75 1804.45,1387.4 1804.96,1308.15 1805.47,1333.57 1805.98,1290.2 1806.49,1239.36 
  1807.01,1288.71 1807.52,1264.78 1808.03,1336.56 1808.54,1305.16 1809.05,1342.54 1809.56,1356 1810.07,1246.84 1810.58,1326.09 1811.09,1308.15 1811.6,1320.11 
  1812.11,1293.19 1812.62,1257.31 1813.13,1318.61 1813.64,1341.04 1814.15,1254.32 1814.66,1324.6 1815.17,1396.37 1815.68,1330.58 1816.19,1330.58 1816.71,1329.08 
  1817.22,1297.68 1817.73,1299.18 1818.24,1394.88 1818.75,1326.09 1819.26,1347.03 1819.77,1296.18 1820.28,1264.78 1820.79,1345.53 1821.3,1254.32 1821.81,1312.63 
  1822.32,1358.99 1822.83,1412.82 1823.34,1296.18 1823.85,1344.03 1824.36,1387.4 1824.87,1290.2 1825.38,1288.71 1825.9,1354.5 1826.41,1339.55 1826.92,1321.61 
  1827.43,1338.05 1827.94,1344.03 1828.45,1324.6 1828.96,1293.19 1829.47,1356 1829.98,1309.64 1830.49,1330.58 1831,1369.45 1831.51,1270.76 1832.02,1357.49 
  1832.53,1397.87 1833.04,1254.32 1833.55,1207.96 1834.06,1297.68 1834.57,1339.55 1835.08,1330.58 1835.6,1408.33 1836.11,1282.73 1836.62,1318.61 1837.13,1321.61 
  1837.64,1306.65 1838.15,1382.91 1838.66,1396.37 1839.17,1290.2 1839.68,1342.54 1840.19,1366.46 1840.7,1231.89 1841.21,1351.51 1841.72,1321.61 1842.23,1329.08 
  1842.74,1285.72 1843.25,1364.97 1843.76,1363.47 1844.27,1376.93 1844.78,1145.16 1845.3,1320.11 1845.81,1353.01 1846.32,1308.15 1846.83,1237.87 1847.34,1302.17 
  1847.85,1323.1 1848.36,1356 1848.87,1243.85 1849.38,1342.54 1849.89,1409.83 1850.4,1341.04 1850.91,1335.06 1851.42,1309.64 1851.93,1317.12 1852.44,1345.53 
  1852.95,1321.61 1853.46,1329.08 1853.97,1285.72 1854.49,1347.03 1855,1312.63 1855.51,1312.63 1856.02,1317.12 1856.53,1296.18 1857.04,1361.98 1857.55,1314.13 
  1858.06,1329.08 1858.57,1354.5 1859.08,1312.63 1859.59,1324.6 1860.1,1305.16 1860.61,1348.52 1861.12,1356 1861.63,1317.12 1862.14,1320.11 1862.65,1249.83 
  1863.16,1213.94 1863.67,1353.01 1864.19,1203.48 1864.7,1264.78 1865.21,1353.01 1865.72,1308.15 1866.23,1345.53 1866.74,1302.17 1867.25,1342.54 1867.76,1264.78 
  1868.27,1188.52 1868.78,1350.02 1869.29,1356 1869.8,1345.53 1870.31,1332.07 1870.82,1297.68 1871.33,1318.61 1871.84,1281.23 1872.35,1326.09 1872.86,1350.02 
  1873.38,1350.02 1873.89,1353.01 1874.4,1320.11 1874.91,1282.73 1875.42,1361.98 1875.93,1344.03 1876.44,1364.97 1876.95,1333.57 1877.46,1357.49 1877.97,1367.96 
  1878.48,1324.6 1878.99,1305.16 1879.5,1312.63 1880.01,1255.81 1880.52,1254.32 1881.03,1266.28 1881.54,1347.03 1882.05,1336.56 1882.56,1341.04 1883.08,1372.45 
  1883.59,1288.71 1884.1,1299.18 1884.61,1330.58 1885.12,1324.6 1885.63,1281.23 1886.14,1347.03 1886.65,1312.63 1887.16,1333.57 1887.67,1219.92 1888.18,1356 
  1888.69,1382.91 1889.2,1288.71 1889.71,1335.06 1890.22,1317.12 1890.73,1100.3 1891.24,1327.59 1891.75,1332.07 1892.27,1317.12 1892.78,1357.49 1893.29,1218.43 
  1893.8,1345.53 1894.31,1281.23 1894.82,1314.13 1895.33,1358.99 1895.84,1170.58 1896.35,1353.01 1896.86,1345.53 1897.37,1318.61 1897.88,1336.56 1898.39,1312.63 
  1898.9,1341.04 1899.41,1354.5 1899.92,1317.12 1900.43,1345.53 1900.94,1323.1 1901.45,1350.02 1901.97,1354.5 1902.48,1336.56 1902.99,1323.1 1903.5,1296.18 
  1904.01,1373.94 1904.52,1358.99 1905.03,1381.42 1905.54,1382.91 1906.05,1294.69 1906.56,1345.53 1907.07,1293.19 1907.58,1341.04 1908.09,1384.41 1908.6,1324.6 
  1909.11,1320.11 1909.62,1332.07 1910.13,1323.1 1910.64,1281.23 1911.16,1360.48 1911.67,1345.53 1912.18,1312.63 1912.69,1342.54 1913.2,1315.62 1913.71,1357.49 
  1914.22,1341.04 1914.73,1351.51 1915.24,1378.43 1915.75,1330.58 1916.26,1358.99 1916.77,1360.48 1917.28,1357.49 1917.79,1306.65 1918.3,1300.67 1918.81,1361.98 
  1919.32,1336.56 1919.83,1341.04 1920.34,1341.04 1920.86,1329.08 1921.37,1312.63 1921.88,1338.05 1922.39,1329.08 1922.9,998.619 1923.41,1354.5 1923.92,1378.43 
  1924.43,1324.6 1924.94,1350.02 1925.45,1324.6 1925.96,1363.47 1926.47,1318.61 1926.98,1344.03 1927.49,1366.46 1928,1347.03 1928.51,1341.04 1929.02,1338.05 
  1929.53,1353.01 1930.04,1358.99 1930.56,1320.11 1931.07,1297.68 1931.58,1294.69 1932.09,1324.6 1932.6,1327.59 1933.11,1285.72 1933.62,1330.58 1934.13,1305.16 
  1934.64,1311.14 1935.15,1338.05 1935.66,1333.57 1936.17,1357.49 1936.68,1306.65 1937.19,1261.79 1937.7,1288.71 1938.21,1354.5 1938.72,1293.19 1939.23,1287.21 
  1939.75,1379.92 1940.26,1356 1940.77,1326.09 1941.28,1287.21 1941.79,1312.63 1942.3,1363.47 1942.81,1357.49 1943.32,1323.1 1943.83,1194.5 1944.34,1308.15 
  1944.85,1240.86 1945.36,1302.17 1945.87,1364.97 1946.38,1341.04 1946.89,1342.54 1947.4,1296.18 1947.91,1357.49 1948.42,1370.95 1948.93,1342.54 1949.45,1291.7 
  1949.96,1320.11 1950.47,1288.71 1950.98,1336.56 1951.49,1320.11 1952,1231.89 1952.51,1341.04 1953.02,1347.03 1953.53,1350.02 1954.04,1326.09 1954.55,1317.12 
  1955.06,1324.6 1955.57,1320.11 1956.08,1364.97 1956.59,1302.17 1957.1,1372.45 1957.61,1320.11 1958.12,1336.56 1958.64,1332.07 1959.15,1335.06 1959.66,1336.56 
  1960.17,1318.61 1960.68,1311.14 1961.19,1345.53 1961.7,1369.45 1962.21,1358.99 1962.72,1329.08 1963.23,1357.49 1963.74,1366.46 1964.25,1320.11 1964.76,1335.06 
  1965.27,1294.69 1965.78,1309.64 1966.29,1348.52 1966.8,1336.56 1967.31,1297.68 1967.82,1335.06 1968.34,1344.03 1968.85,1320.11 1969.36,1311.14 1969.87,1366.46 
  1970.38,1336.56 1970.89,1361.98 1971.4,1221.42 1971.91,1353.01 1972.42,1363.47 1972.93,1345.53 1973.44,1376.93 1973.95,1339.55 1974.46,1303.66 1974.97,1361.98 
  1975.48,1350.02 1975.99,1333.57 1976.5,1344.03 1977.01,1363.47 1977.53,1317.12 1978.04,1323.1 1978.55,1333.57 1979.06,1348.52 1979.57,1344.03 1980.08,1330.58 
  1980.59,1339.55 1981.1,1333.57 1981.61,1381.42 1982.12,1356 1982.63,1336.56 1983.14,1357.49 1983.65,1221.42 1984.16,1312.63 1984.67,1400.86 1985.18,1344.03 
  1985.69,1341.04 1986.2,1356 1986.71,1366.46 1987.23,1163.1 1987.74,1342.54 1988.25,1249.83 1988.76,1375.44 1989.27,1360.48 1989.78,1351.51 1990.29,1339.55 
  1990.8,1364.97 1991.31,1288.71 1991.82,1336.56 1992.33,1353.01 1992.84,1308.15 1993.35,1367.96 1993.86,1360.48 1994.37,1330.58 1994.88,1348.52 1995.39,1324.6 
  1995.9,1347.03 1996.42,1296.18 1996.93,1350.02 1997.44,1366.46 1997.95,1361.98 1998.46,1329.08 1998.97,1324.6 1999.48,1356 1999.99,1353.01 2000.5,1347.03 
  2001.01,1372.45 2001.52,1329.08 2002.03,1330.58 2002.54,1358.99 2003.05,1351.51 2003.56,1382.91 2004.07,1378.43 2004.58,1363.47 2005.09,1299.18 2005.6,1317.12 
  2006.12,1329.08 2006.63,1342.54 2007.14,1366.46 2007.65,1306.65 2008.16,1326.09 2008.67,1370.95 2009.18,1318.61 2009.69,1330.58 2010.2,1315.62 2010.71,1347.03 
  2011.22,1348.52 2011.73,1332.07 2012.24,1308.15 2012.75,1278.24 2013.26,1347.03 2013.77,1314.13 2014.28,1332.07 2014.79,1309.64 2015.3,1338.05 2015.82,1327.59 
  2016.33,1347.03 2016.84,1397.87 2017.35,1391.88 2017.86,1369.45 2018.37,1308.15 2018.88,1339.55 2019.39,1353.01 2019.9,1326.09 2020.41,1360.48 2020.92,1367.96 
  2021.43,1287.21 2021.94,1370.95 2022.45,1296.18 2022.96,1311.14 2023.47,1345.53 2023.98,1353.01 2024.49,1402.35 2025.01,1341.04 2025.52,1308.15 2026.03,1373.94 
  2026.54,1356 2027.05,1339.55 2027.56,1351.51 2028.07,1364.97 2028.58,1347.03 2029.09,1369.45 2029.6,1317.12 2030.11,1353.01 2030.62,1358.99 2031.13,1336.56 
  2031.64,1364.97 2032.15,1276.75 2032.66,1324.6 2033.17,1338.05 2033.68,1376.93 2034.19,1312.63 2034.71,1332.07 2035.22,1312.63 2035.73,1332.07 2036.24,1339.55 
  2036.75,1350.02 2037.26,1361.98 2037.77,1338.05 2038.28,1176.56 2038.79,1318.61 2039.3,1243.85 2039.81,1347.03 2040.32,1366.46 2040.83,1342.54 2041.34,1388.89 
  2041.85,1317.12 2042.36,1312.63 2042.87,1384.41 2043.38,1347.03 2043.9,1323.1 2044.41,1375.44 2044.92,1367.96 2045.43,1222.91 2045.94,1351.51 2046.45,1288.71 
  2046.96,1348.52 2047.47,1356 2047.98,1387.4 2048.49,1384.41 2049,1308.15 2049.51,1336.56 2050.02,1341.04 2050.53,1408.33 2051.04,1312.63 2051.55,1321.61 
  2052.06,1333.57 2052.57,1364.97 2053.08,1300.67 2053.6,1351.51 2054.11,1375.44 2054.62,1357.49 2055.13,1353.01 2055.64,1381.42 2056.15,1335.06 2056.66,1269.27 
  2057.17,1350.02 2057.68,1332.07 2058.19,1372.45 2058.7,1299.18 2059.21,1231.89 2059.72,1366.46 2060.23,1333.57 2060.74,1336.56 2061.25,1336.56 2061.76,1360.48 
  2062.27,1351.51 2062.79,1314.13 2063.3,1308.15 2063.81,1373.94 2064.32,1342.54 2064.83,1323.1 2065.34,1338.05 2065.85,1323.1 2066.36,1370.95 2066.87,1329.08 
  2067.38,1396.37 2067.89,1363.47 2068.4,1281.23 2068.91,1375.44 2069.42,1335.06 2069.93,1327.59 2070.44,1367.96 2070.95,1299.18 2071.46,1332.07 2071.97,1344.03 
  2072.49,1314.13 2073,1293.19 2073.51,1321.61 2074.02,1367.96 2074.53,1306.65 2075.04,1335.06 2075.55,1347.03 2076.06,1366.46 2076.57,1305.16 2077.08,1344.03 
  2077.59,1335.06 2078.1,1317.12 2078.61,1288.71 2079.12,1303.66 2079.63,1351.51 2080.14,1372.45 2080.65,1270.76 2081.16,1326.09 2081.68,1332.07 2082.19,1311.14 
  2082.7,1332.07 2083.21,1218.43 2083.72,1294.69 2084.23,1400.86 2084.74,1361.98 2085.25,1302.17 2085.76,1361.98 2086.27,1333.57 2086.78,1315.62 2087.29,1326.09 
  2087.8,1372.45 2088.31,1353.01 2088.82,1321.61 2089.33,1347.03 2089.84,1367.96 2090.35,1305.16 2090.86,1336.56 2091.38,1309.64 2091.89,1320.11 2092.4,1333.57 
  2092.91,1308.15 2093.42,1344.03 2093.93,1353.01 2094.44,1329.08 2094.95,1327.59 2095.46,1257.31 2095.97,1308.15 2096.48,1327.59 2096.99,1279.74 2097.5,1364.97 
  2098.01,1312.63 2098.52,1327.59 2099.03,1361.98 2099.54,1237.87 2100.05,1306.65 2100.56,1303.66 2101.08,1321.61 2101.59,1391.88 2102.1,1276.75 2102.61,1224.41 
  2103.12,1306.65 2103.63,1342.54 2104.14,1348.52 2104.65,1341.04 2105.16,1348.52 2105.67,1366.46 2106.18,1342.54 2106.69,1345.53 2107.2,1330.58 2107.71,1338.05 
  2108.22,1354.5 2108.73,1303.66 2109.24,1299.18 2109.75,1345.53 2110.27,1364.97 2110.78,1335.06 2111.29,1326.09 2111.8,1276.75 2112.31,1399.36 2112.82,1300.67 
  2113.33,1294.69 2113.84,1357.49 2114.35,1172.07 2114.86,1294.69 2115.37,1333.57 2115.88,1367.96 2116.39,1357.49 2116.9,1350.02 2117.41,1382.91 2117.92,1363.47 
  2118.43,1339.55 2118.94,1397.87 2119.45,1306.65 2119.97,1318.61 2120.48,1320.11 2120.99,1364.97 2121.5,1387.4 2122.01,1326.09 2122.52,1375.44 2123.03,1297.68 
  2123.54,1326.09 2124.05,1370.95 2124.56,1376.93 2125.07,1288.71 2125.58,1323.1 2126.09,1308.15 2126.6,1344.03 2127.11,1370.95 2127.62,1400.86 2128.13,1335.06 
  2128.64,1376.93 2129.16,1345.53 2129.67,1335.06 2130.18,1326.09 2130.69,1276.75 2131.2,1309.64 2131.71,1367.96 2132.22,1299.18 2132.73,1336.56 2133.24,1338.05 
  2133.75,1387.4 2134.26,1396.37 2134.77,1357.49 2135.28,1344.03 2135.79,1344.03 2136.3,1315.62 2136.81,1369.45 2137.32,1394.88 2137.83,1364.97 2138.34,1329.08 
  2138.86,1347.03 2139.37,1338.05 2139.88,1290.2 2140.39,1335.06 2140.9,1382.91 2141.41,1356 2141.92,1353.01 2142.43,1357.49 2142.94,1323.1 2143.45,1351.51 
  2143.96,1367.96 2144.47,1347.03 2144.98,1306.65 2145.49,1299.18 2146,1372.45 2146.51,1405.34 2147.02,1360.48 2147.53,1348.52 2148.05,1293.19 2148.56,1344.03 
  2149.07,1388.89 2149.58,1323.1 2150.09,1339.55 2150.6,1336.56 2151.11,1270.76 2151.62,1361.98 2152.13,1348.52 2152.64,1320.11 2153.15,1287.21 2153.66,1315.62 
  2154.17,1285.72 2154.68,1354.5 2155.19,1364.97 2155.7,1364.97 2156.21,1367.96 2156.72,1353.01 2157.23,1373.94 2157.75,1369.45 2158.26,1372.45 2158.77,1311.14 
  2159.28,1415.81 2159.79,1293.19 2160.3,1354.5 2160.81,1344.03 2161.32,1345.53 2161.83,1338.05 2162.34,1373.94 2162.85,1409.83 2163.36,1370.95 2163.87,1300.67 
  2164.38,1314.13 2164.89,1402.35 2165.4,1348.52 2165.91,1354.5 2166.42,1324.6 2166.94,1339.55 2167.45,1356 2167.96,1329.08 2168.47,1403.85 2168.98,1354.5 
  2169.49,1305.16 2170,1320.11 2170.51,1260.3 2171.02,1321.61 2171.53,1366.46 2172.04,1299.18 2172.55,1341.04 2173.06,1341.04 2173.57,1390.39 2174.08,1350.02 
  2174.59,1336.56 2175.1,1342.54 2175.61,1326.09 2176.12,1317.12 2176.64,1403.85 2177.15,1342.54 2177.66,1357.49 2178.17,1358.99 2178.68,1311.14 2179.19,1317.12 
  2179.7,1306.65 2180.21,1336.56 2180.72,1330.58 2181.23,1384.41 2181.74,1348.52 2182.25,1382.91 2182.76,1299.18 2183.27,1360.48 2183.78,1248.34 2184.29,1281.23 
  2184.8,1373.94 2185.31,1350.02 2185.82,1353.01 2186.34,1351.51 2186.85,1317.12 2187.36,1406.84 2187.87,1297.68 2188.38,1344.03 2188.89,1342.54 2189.4,1329.08 
  2189.91,1347.03 2190.42,1290.2 2190.93,1354.5 2191.44,1370.95 2191.95,1291.7 2192.46,1341.04 2192.97,1335.06 2193.48,1264.78 2193.99,1354.5 2194.5,1382.91 
  2195.01,1350.02 2195.53,1200.49 2196.04,1363.47 2196.55,1396.37 2197.06,1373.94 2197.57,1370.95 2198.08,1378.43 2198.59,1341.04 2199.1,1347.03 2199.61,1358.99 
  2200.12,1333.57 2200.63,1318.61 2201.14,1257.31 2201.65,1357.49 2202.16,1326.09 2202.67,1311.14 2203.18,1403.85 2203.69,1320.11 2204.2,1324.6 2204.71,1370.95 
  2205.23,1172.07 2205.74,1376.93 2206.25,1317.12 2206.76,1360.48 2207.27,1329.08 2207.78,1326.09 2208.29,1336.56 2208.8,1330.58 2209.31,1200.49 2209.82,1133.2 
  2210.33,1348.52 2210.84,1311.14 2211.35,1344.03 2211.86,1297.68 2212.37,1367.96 2212.88,1323.1 2213.39,1372.45 2213.9,1372.45 2214.42,1348.52 2214.93,1326.09 
  2215.44,1372.45 2215.95,1329.08 2216.46,1339.55 2216.97,1335.06 2217.48,1350.02 2217.99,1366.46 2218.5,1321.61 2219.01,1254.32 2219.52,1332.07 2220.03,1332.07 
  2220.54,1323.1 2221.05,1239.36 2221.56,1357.49 2222.07,1338.05 2222.58,1308.15 2223.09,1309.64 2223.6,1309.64 2224.12,1357.49 2224.63,1324.6 2225.14,1345.53 
  2225.65,1366.46 2226.16,1394.88 2226.67,1378.43 2227.18,1326.09 2227.69,1341.04 2228.2,1408.33 2228.71,1309.64 2229.22,1338.05 2229.73,1327.59 2230.24,1342.54 
  2230.75,1348.52 2231.26,1384.41 2231.77,1347.03 2232.28,1329.08 2232.79,1336.56 2233.31,1302.17 2233.82,1356 2234.33,1273.76 2234.84,1342.54 2235.35,1347.03 
  2235.86,1369.45 2236.37,1243.85 2236.88,1323.1 2237.39,1361.98 2237.9,1327.59 2238.41,1366.46 2238.92,1366.46 2239.43,1396.37 2239.94,1354.5 2240.45,1345.53 
  2240.96,1305.16 2241.47,1318.61 2241.98,1323.1 2242.49,1342.54 2243.01,1385.9 2243.52,1351.51 2244.03,1354.5 2244.54,1353.01 2245.05,1311.14 2245.56,1329.08 
  2246.07,1305.16 2246.58,1323.1 2247.09,1320.11 2247.6,1336.56 2248.11,1364.97 2248.62,1382.91 2249.13,1275.25 2249.64,1327.59 2250.15,1342.54 2250.66,1296.18 
  2251.17,1335.06 2251.68,1406.84 2252.2,1329.08 2252.71,1341.04 2253.22,1364.97 2253.73,1326.09 2254.24,1345.53 2254.75,1324.6 2255.26,1344.03 2255.77,1399.36 
  2256.28,1373.94 2256.79,1391.88 2257.3,1379.92 2257.81,1336.56 2258.32,1348.52 2258.83,1336.56 2259.34,1376.93 2259.85,1402.35 2260.36,1270.76 2260.87,1381.42 
  2261.38,1372.45 2261.9,1384.41 2262.41,1354.5 2262.92,1372.45 2263.43,1372.45 2263.94,1372.45 2264.45,1345.53 2264.96,1385.9 2265.47,1321.61 2265.98,1341.04 
  2266.49,1351.51 2267,1381.42 2267.51,1327.59 2268.02,1375.44 2268.53,1350.02 2269.04,1309.64 2269.55,1382.91 2270.06,1339.55 2270.57,1348.52 2271.08,1356 
  2271.6,1348.52 2272.11,1370.95 2272.62,1305.16 2273.13,1318.61 2273.64,1367.96 2274.15,1382.91 2274.66,1351.51 2275.17,1324.6 2275.68,1373.94 2276.19,1275.25 
  2276.7,1378.43 2277.21,1216.93 2277.72,1372.45 2278.23,1412.82 2278.74,1363.47 2279.25,1387.4 2279.76,1336.56 2280.27,1385.9 2280.79,1364.97 2281.3,1366.46 
  2281.81,1333.57 2282.32,1356 2282.83,1418.8 2283.34,1357.49 2283.85,1367.96 2284.36,1354.5 2284.87,1314.13 2285.38,1350.02 2285.89,1364.97 2286.4,1363.47 
  2286.91,1376.93 2287.42,1350.02 2287.93,1384.41 2288.44,1246.84 2288.95,1384.41 2289.46,1351.51 2289.97,1335.06 2290.49,1344.03 2291,1341.04 2291.51,1311.14 
  
  "/>
<path clip-path="url(#clip650)" d="
M1989.14 216.178 L2280.62 216.178 L2280.62 95.2176 L1989.14 95.2176  Z
  " fill="#ffffff" fill-rule="evenodd" fill-opacity="1"/>
<polyline clip-path="url(#clip650)" style="stroke:#000000; stroke-width:4; stroke-opacity:1; fill:none" points="
  1989.14,216.178 2280.62,216.178 2280.62,95.2176 1989.14,95.2176 1989.14,216.178 
  "/>
<polyline clip-path="url(#clip650)" style="stroke:#009af9; stroke-width:4; stroke-opacity:1; fill:none" points="
  2013.19,155.698 2157.46,155.698 
  "/>
<path clip-path="url(#clip650)" d="M 0 0 M2195.35 175.385 Q2193.54 180.015 2191.83 181.427 Q2190.12 182.839 2187.25 182.839 L2183.85 182.839 L2183.85 179.274 L2186.35 179.274 Q2188.1 179.274 2189.08 178.44 Q2190.05 177.607 2191.23 174.505 L2191.99 172.561 L2181.51 147.052 L2186.02 147.052 L2194.12 167.329 L2202.22 147.052 L2206.74 147.052 L2195.35 175.385 Z" fill="#000000" fill-rule="evenodd" fill-opacity="1" /><path clip-path="url(#clip650)" d="M 0 0 M2212.62 169.042 L2220.26 169.042 L2220.26 142.677 L2211.95 144.343 L2211.95 140.084 L2220.21 138.418 L2224.89 138.418 L2224.89 169.042 L2232.53 169.042 L2232.53 172.978 L2212.62 172.978 L2212.62 169.042 Z" fill="#000000" fill-rule="evenodd" fill-opacity="1" /></svg>
