<?xml version="1.0" encoding="utf-8"?>
<svg xmlns="http://www.w3.org/2000/svg" xmlns:xlink="http://www.w3.org/1999/xlink" width="600" height="400" viewBox="0 0 2400 1600">
<defs>
  <clipPath id="clip410">
    <rect x="0" y="0" width="2400" height="1600"/>
  </clipPath>
</defs>
<path clip-path="url(#clip410)" d="
M0 1600 L2400 1600 L2400 0 L0 0  Z
  " fill="#ffffff" fill-rule="evenodd" fill-opacity="1"/>
<defs>
  <clipPath id="clip411">
    <rect x="480" y="0" width="1681" height="1600"/>
  </clipPath>
</defs>
<path clip-path="url(#clip410)" d="
M166.205 1486.45 L2352.76 1486.45 L2352.76 47.2441 L166.205 47.2441  Z
  " fill="#ffffff" fill-rule="evenodd" fill-opacity="1"/>
<defs>
  <clipPath id="clip412">
    <rect x="166" y="47" width="2188" height="1440"/>
  </clipPath>
</defs>
<polyline clip-path="url(#clip412)" style="stroke:#000000; stroke-width:2; stroke-opacity:0.1; fill:none" points="
  227.572,1486.45 227.572,47.2441 
  "/>
<polyline clip-path="url(#clip412)" style="stroke:#000000; stroke-width:2; stroke-opacity:0.1; fill:none" points="
  743.397,1486.45 743.397,47.2441 
  "/>
<polyline clip-path="url(#clip412)" style="stroke:#000000; stroke-width:2; stroke-opacity:0.1; fill:none" points="
  1259.22,1486.45 1259.22,47.2441 
  "/>
<polyline clip-path="url(#clip412)" style="stroke:#000000; stroke-width:2; stroke-opacity:0.1; fill:none" points="
  1775.05,1486.45 1775.05,47.2441 
  "/>
<polyline clip-path="url(#clip412)" style="stroke:#000000; stroke-width:2; stroke-opacity:0.1; fill:none" points="
  2290.87,1486.45 2290.87,47.2441 
  "/>
<polyline clip-path="url(#clip410)" style="stroke:#000000; stroke-width:4; stroke-opacity:1; fill:none" points="
  166.205,1486.45 2352.76,1486.45 
  "/>
<polyline clip-path="url(#clip410)" style="stroke:#000000; stroke-width:4; stroke-opacity:1; fill:none" points="
  227.572,1486.45 227.572,1469.18 
  "/>
<polyline clip-path="url(#clip410)" style="stroke:#000000; stroke-width:4; stroke-opacity:1; fill:none" points="
  743.397,1486.45 743.397,1469.18 
  "/>
<polyline clip-path="url(#clip410)" style="stroke:#000000; stroke-width:4; stroke-opacity:1; fill:none" points="
  1259.22,1486.45 1259.22,1469.18 
  "/>
<polyline clip-path="url(#clip410)" style="stroke:#000000; stroke-width:4; stroke-opacity:1; fill:none" points="
  1775.05,1486.45 1775.05,1469.18 
  "/>
<polyline clip-path="url(#clip410)" style="stroke:#000000; stroke-width:4; stroke-opacity:1; fill:none" points="
  2290.87,1486.45 2290.87,1469.18 
  "/>
<path clip-path="url(#clip410)" d="M 0 0 M227.572 1515.64 Q223.961 1515.64 222.133 1519.2 Q220.327 1522.75 220.327 1529.87 Q220.327 1536.98 222.133 1540.55 Q223.961 1544.09 227.572 1544.09 Q231.207 1544.09 233.012 1540.55 Q234.841 1536.98 234.841 1529.87 Q234.841 1522.75 233.012 1519.2 Q231.207 1515.64 227.572 1515.64 M227.572 1511.93 Q233.383 1511.93 236.438 1516.54 Q239.517 1521.12 239.517 1529.87 Q239.517 1538.6 236.438 1543.21 Q233.383 1547.79 227.572 1547.79 Q221.762 1547.79 218.684 1543.21 Q215.628 1538.6 215.628 1529.87 Q215.628 1521.12 218.684 1516.54 Q221.762 1511.93 227.572 1511.93 Z" fill="#000000" fill-rule="evenodd" fill-opacity="1" /><path clip-path="url(#clip410)" d="M 0 0 M693.259 1543.18 L700.898 1543.18 L700.898 1516.82 L692.587 1518.49 L692.587 1514.23 L700.851 1512.56 L705.527 1512.56 L705.527 1543.18 L713.166 1543.18 L713.166 1547.12 L693.259 1547.12 L693.259 1543.18 Z" fill="#000000" fill-rule="evenodd" fill-opacity="1" /><path clip-path="url(#clip410)" d="M 0 0 M728.235 1515.64 Q724.624 1515.64 722.796 1519.2 Q720.99 1522.75 720.99 1529.87 Q720.99 1536.98 722.796 1540.55 Q724.624 1544.09 728.235 1544.09 Q731.87 1544.09 733.675 1540.55 Q735.504 1536.98 735.504 1529.87 Q735.504 1522.75 733.675 1519.2 Q731.87 1515.64 728.235 1515.64 M728.235 1511.93 Q734.046 1511.93 737.101 1516.54 Q740.18 1521.12 740.18 1529.87 Q740.18 1538.6 737.101 1543.21 Q734.046 1547.79 728.235 1547.79 Q722.425 1547.79 719.347 1543.21 Q716.291 1538.6 716.291 1529.87 Q716.291 1521.12 719.347 1516.54 Q722.425 1511.93 728.235 1511.93 Z" fill="#000000" fill-rule="evenodd" fill-opacity="1" /><path clip-path="url(#clip410)" d="M 0 0 M755.249 1515.64 Q751.638 1515.64 749.809 1519.2 Q748.004 1522.75 748.004 1529.87 Q748.004 1536.98 749.809 1540.55 Q751.638 1544.09 755.249 1544.09 Q758.883 1544.09 760.689 1540.55 Q762.518 1536.98 762.518 1529.87 Q762.518 1522.75 760.689 1519.2 Q758.883 1515.64 755.249 1515.64 M755.249 1511.93 Q761.059 1511.93 764.115 1516.54 Q767.194 1521.12 767.194 1529.87 Q767.194 1538.6 764.115 1543.21 Q761.059 1547.79 755.249 1547.79 Q749.439 1547.79 746.36 1543.21 Q743.305 1538.6 743.305 1529.87 Q743.305 1521.12 746.36 1516.54 Q749.439 1511.93 755.249 1511.93 Z" fill="#000000" fill-rule="evenodd" fill-opacity="1" /><path clip-path="url(#clip410)" d="M 0 0 M782.263 1515.64 Q778.652 1515.64 776.823 1519.2 Q775.018 1522.75 775.018 1529.87 Q775.018 1536.98 776.823 1540.55 Q778.652 1544.09 782.263 1544.09 Q785.897 1544.09 787.703 1540.55 Q789.531 1536.98 789.531 1529.87 Q789.531 1522.75 787.703 1519.2 Q785.897 1515.64 782.263 1515.64 M782.263 1511.93 Q788.073 1511.93 791.129 1516.54 Q794.207 1521.12 794.207 1529.87 Q794.207 1538.6 791.129 1543.21 Q788.073 1547.79 782.263 1547.79 Q776.453 1547.79 773.374 1543.21 Q770.319 1538.6 770.319 1529.87 Q770.319 1521.12 773.374 1516.54 Q776.453 1511.93 782.263 1511.93 Z" fill="#000000" fill-rule="evenodd" fill-opacity="1" /><path clip-path="url(#clip410)" d="M 0 0 M1213.35 1543.18 L1229.67 1543.18 L1229.67 1547.12 L1207.73 1547.12 L1207.73 1543.18 Q1210.39 1540.43 1214.97 1535.8 Q1219.58 1531.15 1220.76 1529.81 Q1223.01 1527.28 1223.89 1525.55 Q1224.79 1523.79 1224.79 1522.1 Q1224.79 1519.34 1222.85 1517.61 Q1220.92 1515.87 1217.82 1515.87 Q1215.62 1515.87 1213.17 1516.63 Q1210.74 1517.4 1207.96 1518.95 L1207.96 1514.23 Q1210.79 1513.09 1213.24 1512.51 Q1215.69 1511.93 1217.73 1511.93 Q1223.1 1511.93 1226.29 1514.62 Q1229.49 1517.31 1229.49 1521.8 Q1229.49 1523.93 1228.68 1525.85 Q1227.89 1527.74 1225.79 1530.34 Q1225.21 1531.01 1222.1 1534.23 Q1219 1537.42 1213.35 1543.18 Z" fill="#000000" fill-rule="evenodd" fill-opacity="1" /><path clip-path="url(#clip410)" d="M 0 0 M1244.74 1515.64 Q1241.13 1515.64 1239.3 1519.2 Q1237.5 1522.75 1237.5 1529.87 Q1237.5 1536.98 1239.3 1540.55 Q1241.13 1544.09 1244.74 1544.09 Q1248.38 1544.09 1250.18 1540.55 Q1252.01 1536.98 1252.01 1529.87 Q1252.01 1522.75 1250.18 1519.2 Q1248.38 1515.64 1244.74 1515.64 M1244.74 1511.93 Q1250.55 1511.93 1253.61 1516.54 Q1256.69 1521.12 1256.69 1529.87 Q1256.69 1538.6 1253.61 1543.21 Q1250.55 1547.79 1244.74 1547.79 Q1238.93 1547.79 1235.85 1543.21 Q1232.8 1538.6 1232.8 1529.87 Q1232.8 1521.12 1235.85 1516.54 Q1238.93 1511.93 1244.74 1511.93 Z" fill="#000000" fill-rule="evenodd" fill-opacity="1" /><path clip-path="url(#clip410)" d="M 0 0 M1271.76 1515.64 Q1268.15 1515.64 1266.32 1519.2 Q1264.51 1522.75 1264.51 1529.87 Q1264.51 1536.98 1266.32 1540.55 Q1268.15 1544.09 1271.76 1544.09 Q1275.39 1544.09 1277.2 1540.55 Q1279.03 1536.98 1279.03 1529.87 Q1279.03 1522.75 1277.2 1519.2 Q1275.39 1515.64 1271.76 1515.64 M1271.76 1511.93 Q1277.57 1511.93 1280.62 1516.54 Q1283.7 1521.12 1283.7 1529.87 Q1283.7 1538.6 1280.62 1543.21 Q1277.57 1547.79 1271.76 1547.79 Q1265.95 1547.79 1262.87 1543.21 Q1259.81 1538.6 1259.81 1529.87 Q1259.81 1521.12 1262.87 1516.54 Q1265.95 1511.93 1271.76 1511.93 Z" fill="#000000" fill-rule="evenodd" fill-opacity="1" /><path clip-path="url(#clip410)" d="M 0 0 M1298.77 1515.64 Q1295.16 1515.64 1293.33 1519.2 Q1291.53 1522.75 1291.53 1529.87 Q1291.53 1536.98 1293.33 1540.55 Q1295.16 1544.09 1298.77 1544.09 Q1302.41 1544.09 1304.21 1540.55 Q1306.04 1536.98 1306.04 1529.87 Q1306.04 1522.75 1304.21 1519.2 Q1302.41 1515.64 1298.77 1515.64 M1298.77 1511.93 Q1304.58 1511.93 1307.64 1516.54 Q1310.72 1521.12 1310.72 1529.87 Q1310.72 1538.6 1307.64 1543.21 Q1304.58 1547.79 1298.77 1547.79 Q1292.96 1547.79 1289.88 1543.21 Q1286.83 1538.6 1286.83 1529.87 Q1286.83 1521.12 1289.88 1516.54 Q1292.96 1511.93 1298.77 1511.93 Z" fill="#000000" fill-rule="evenodd" fill-opacity="1" /><path clip-path="url(#clip410)" d="M 0 0 M1738.77 1528.49 Q1742.13 1529.2 1744.01 1531.47 Q1745.9 1533.74 1745.9 1537.07 Q1745.9 1542.19 1742.39 1544.99 Q1738.87 1547.79 1732.39 1547.79 Q1730.21 1547.79 1727.89 1547.35 Q1725.6 1546.93 1723.15 1546.08 L1723.15 1541.56 Q1725.09 1542.7 1727.41 1543.28 Q1729.72 1543.86 1732.25 1543.86 Q1736.64 1543.86 1738.94 1542.12 Q1741.25 1540.38 1741.25 1537.07 Q1741.25 1534.02 1739.1 1532.31 Q1736.97 1530.57 1733.15 1530.57 L1729.12 1530.57 L1729.12 1526.73 L1733.33 1526.73 Q1736.78 1526.73 1738.61 1525.36 Q1740.44 1523.97 1740.44 1521.38 Q1740.44 1518.72 1738.54 1517.31 Q1736.67 1515.87 1733.15 1515.87 Q1731.23 1515.87 1729.03 1516.29 Q1726.83 1516.7 1724.19 1517.58 L1724.19 1513.42 Q1726.85 1512.68 1729.17 1512.31 Q1731.51 1511.93 1733.57 1511.93 Q1738.89 1511.93 1741.99 1514.37 Q1745.09 1516.77 1745.09 1520.89 Q1745.09 1523.76 1743.45 1525.75 Q1741.81 1527.72 1738.77 1528.49 Z" fill="#000000" fill-rule="evenodd" fill-opacity="1" /><path clip-path="url(#clip410)" d="M 0 0 M1760.97 1515.64 Q1757.36 1515.64 1755.53 1519.2 Q1753.73 1522.75 1753.73 1529.87 Q1753.73 1536.98 1755.53 1540.55 Q1757.36 1544.09 1760.97 1544.09 Q1764.61 1544.09 1766.41 1540.55 Q1768.24 1536.98 1768.24 1529.87 Q1768.24 1522.75 1766.41 1519.2 Q1764.61 1515.64 1760.97 1515.64 M1760.97 1511.93 Q1766.78 1511.93 1769.84 1516.54 Q1772.92 1521.12 1772.92 1529.87 Q1772.92 1538.6 1769.84 1543.21 Q1766.78 1547.79 1760.97 1547.79 Q1755.16 1547.79 1752.08 1543.21 Q1749.03 1538.6 1749.03 1529.87 Q1749.03 1521.12 1752.08 1516.54 Q1755.16 1511.93 1760.97 1511.93 Z" fill="#000000" fill-rule="evenodd" fill-opacity="1" /><path clip-path="url(#clip410)" d="M 0 0 M1787.99 1515.64 Q1784.38 1515.64 1782.55 1519.2 Q1780.74 1522.75 1780.74 1529.87 Q1780.74 1536.98 1782.55 1540.55 Q1784.38 1544.09 1787.99 1544.09 Q1791.62 1544.09 1793.43 1540.55 Q1795.26 1536.98 1795.26 1529.87 Q1795.26 1522.75 1793.43 1519.2 Q1791.62 1515.64 1787.99 1515.64 M1787.99 1511.93 Q1793.8 1511.93 1796.85 1516.54 Q1799.93 1521.12 1799.93 1529.87 Q1799.93 1538.6 1796.85 1543.21 Q1793.8 1547.79 1787.99 1547.79 Q1782.18 1547.79 1779.1 1543.21 Q1776.04 1538.6 1776.04 1529.87 Q1776.04 1521.12 1779.1 1516.54 Q1782.18 1511.93 1787.99 1511.93 Z" fill="#000000" fill-rule="evenodd" fill-opacity="1" /><path clip-path="url(#clip410)" d="M 0 0 M1815 1515.64 Q1811.39 1515.64 1809.56 1519.2 Q1807.76 1522.75 1807.76 1529.87 Q1807.76 1536.98 1809.56 1540.55 Q1811.39 1544.09 1815 1544.09 Q1818.64 1544.09 1820.44 1540.55 Q1822.27 1536.98 1822.27 1529.87 Q1822.27 1522.75 1820.44 1519.2 Q1818.64 1515.64 1815 1515.64 M1815 1511.93 Q1820.81 1511.93 1823.87 1516.54 Q1826.95 1521.12 1826.95 1529.87 Q1826.95 1538.6 1823.87 1543.21 Q1820.81 1547.79 1815 1547.79 Q1809.19 1547.79 1806.11 1543.21 Q1803.06 1538.6 1803.06 1529.87 Q1803.06 1521.12 1806.11 1516.54 Q1809.19 1511.93 1815 1511.93 Z" fill="#000000" fill-rule="evenodd" fill-opacity="1" /><path clip-path="url(#clip410)" d="M 0 0 M2253.36 1516.63 L2241.56 1535.08 L2253.36 1535.08 L2253.36 1516.63 M2252.13 1512.56 L2258.01 1512.56 L2258.01 1535.08 L2262.94 1535.08 L2262.94 1538.97 L2258.01 1538.97 L2258.01 1547.12 L2253.36 1547.12 L2253.36 1538.97 L2237.76 1538.97 L2237.76 1534.46 L2252.13 1512.56 Z" fill="#000000" fill-rule="evenodd" fill-opacity="1" /><path clip-path="url(#clip410)" d="M 0 0 M2278.01 1515.64 Q2274.4 1515.64 2272.57 1519.2 Q2270.77 1522.75 2270.77 1529.87 Q2270.77 1536.98 2272.57 1540.55 Q2274.4 1544.09 2278.01 1544.09 Q2281.65 1544.09 2283.45 1540.55 Q2285.28 1536.98 2285.28 1529.87 Q2285.28 1522.75 2283.45 1519.2 Q2281.65 1515.64 2278.01 1515.64 M2278.01 1511.93 Q2283.82 1511.93 2286.88 1516.54 Q2289.96 1521.12 2289.96 1529.87 Q2289.96 1538.6 2286.88 1543.21 Q2283.82 1547.79 2278.01 1547.79 Q2272.2 1547.79 2269.12 1543.21 Q2266.07 1538.6 2266.07 1529.87 Q2266.07 1521.12 2269.12 1516.54 Q2272.2 1511.93 2278.01 1511.93 Z" fill="#000000" fill-rule="evenodd" fill-opacity="1" /><path clip-path="url(#clip410)" d="M 0 0 M2305.03 1515.64 Q2301.42 1515.64 2299.59 1519.2 Q2297.78 1522.75 2297.78 1529.87 Q2297.78 1536.98 2299.59 1540.55 Q2301.42 1544.09 2305.03 1544.09 Q2308.66 1544.09 2310.47 1540.55 Q2312.3 1536.98 2312.3 1529.87 Q2312.3 1522.75 2310.47 1519.2 Q2308.66 1515.64 2305.03 1515.64 M2305.03 1511.93 Q2310.84 1511.93 2313.89 1516.54 Q2316.97 1521.12 2316.97 1529.87 Q2316.97 1538.6 2313.89 1543.21 Q2310.84 1547.79 2305.03 1547.79 Q2299.22 1547.79 2296.14 1543.21 Q2293.08 1538.6 2293.08 1529.87 Q2293.08 1521.12 2296.14 1516.54 Q2299.22 1511.93 2305.03 1511.93 Z" fill="#000000" fill-rule="evenodd" fill-opacity="1" /><path clip-path="url(#clip410)" d="M 0 0 M2332.04 1515.64 Q2328.43 1515.64 2326.6 1519.2 Q2324.8 1522.75 2324.8 1529.87 Q2324.8 1536.98 2326.6 1540.55 Q2328.43 1544.09 2332.04 1544.09 Q2335.68 1544.09 2337.48 1540.55 Q2339.31 1536.98 2339.31 1529.87 Q2339.31 1522.75 2337.48 1519.2 Q2335.68 1515.64 2332.04 1515.64 M2332.04 1511.93 Q2337.85 1511.93 2340.91 1516.54 Q2343.99 1521.12 2343.99 1529.87 Q2343.99 1538.6 2340.91 1543.21 Q2337.85 1547.79 2332.04 1547.79 Q2326.23 1547.79 2323.15 1543.21 Q2320.1 1538.6 2320.1 1529.87 Q2320.1 1521.12 2323.15 1516.54 Q2326.23 1511.93 2332.04 1511.93 Z" fill="#000000" fill-rule="evenodd" fill-opacity="1" /><polyline clip-path="url(#clip412)" style="stroke:#000000; stroke-width:2; stroke-opacity:0.1; fill:none" points="
  166.205,1315.68 2352.76,1315.68 
  "/>
<polyline clip-path="url(#clip412)" style="stroke:#000000; stroke-width:2; stroke-opacity:0.1; fill:none" points="
  166.205,977.937 2352.76,977.937 
  "/>
<polyline clip-path="url(#clip412)" style="stroke:#000000; stroke-width:2; stroke-opacity:0.1; fill:none" points="
  166.205,640.191 2352.76,640.191 
  "/>
<polyline clip-path="url(#clip412)" style="stroke:#000000; stroke-width:2; stroke-opacity:0.1; fill:none" points="
  166.205,302.445 2352.76,302.445 
  "/>
<polyline clip-path="url(#clip410)" style="stroke:#000000; stroke-width:4; stroke-opacity:1; fill:none" points="
  166.205,1486.45 166.205,47.2441 
  "/>
<polyline clip-path="url(#clip410)" style="stroke:#000000; stroke-width:4; stroke-opacity:1; fill:none" points="
  166.205,1315.68 192.443,1315.68 
  "/>
<polyline clip-path="url(#clip410)" style="stroke:#000000; stroke-width:4; stroke-opacity:1; fill:none" points="
  166.205,977.937 192.443,977.937 
  "/>
<polyline clip-path="url(#clip410)" style="stroke:#000000; stroke-width:4; stroke-opacity:1; fill:none" points="
  166.205,640.191 192.443,640.191 
  "/>
<polyline clip-path="url(#clip410)" style="stroke:#000000; stroke-width:4; stroke-opacity:1; fill:none" points="
  166.205,302.445 192.443,302.445 
  "/>
<path clip-path="url(#clip410)" d="M 0 0 M59.8578 1329.03 L76.1772 1329.03 L76.1772 1332.96 L54.2328 1332.96 L54.2328 1329.03 Q56.8949 1326.27 61.4782 1321.64 Q66.0846 1316.99 67.2652 1315.65 Q69.5105 1313.13 70.3902 1311.39 Q71.2929 1309.63 71.2929 1307.94 Q71.2929 1305.19 69.3485 1303.45 Q67.4272 1301.71 64.3254 1301.71 Q62.1263 1301.71 59.6726 1302.48 Q57.2421 1303.24 54.4643 1304.79 L54.4643 1300.07 Q57.2884 1298.94 59.7421 1298.36 Q62.1958 1297.78 64.2328 1297.78 Q69.6031 1297.78 72.7976 1300.46 Q75.992 1303.15 75.992 1307.64 Q75.992 1309.77 75.1818 1311.69 Q74.3948 1313.59 72.2883 1316.18 Q71.7096 1316.85 68.6078 1320.07 Q65.5059 1323.26 59.8578 1329.03 Z" fill="#000000" fill-rule="evenodd" fill-opacity="1" /><path clip-path="url(#clip410)" d="M 0 0 M91.2465 1301.48 Q87.6354 1301.48 85.8068 1305.05 Q84.0012 1308.59 84.0012 1315.72 Q84.0012 1322.82 85.8068 1326.39 Q87.6354 1329.93 91.2465 1329.93 Q94.8808 1329.93 96.6863 1326.39 Q98.515 1322.82 98.515 1315.72 Q98.515 1308.59 96.6863 1305.05 Q94.8808 1301.48 91.2465 1301.48 M91.2465 1297.78 Q97.0567 1297.78 100.112 1302.38 Q103.191 1306.97 103.191 1315.72 Q103.191 1324.44 100.112 1329.05 Q97.0567 1333.63 91.2465 1333.63 Q85.4364 1333.63 82.3577 1329.05 Q79.3022 1324.44 79.3022 1315.72 Q79.3022 1306.97 82.3577 1302.38 Q85.4364 1297.78 91.2465 1297.78 Z" fill="#000000" fill-rule="evenodd" fill-opacity="1" /><path clip-path="url(#clip410)" d="M 0 0 M118.26 1301.48 Q114.649 1301.48 112.82 1305.05 Q111.015 1308.59 111.015 1315.72 Q111.015 1322.82 112.82 1326.39 Q114.649 1329.93 118.26 1329.93 Q121.895 1329.93 123.7 1326.39 Q125.529 1322.82 125.529 1315.72 Q125.529 1308.59 123.7 1305.05 Q121.895 1301.48 118.26 1301.48 M118.26 1297.78 Q124.07 1297.78 127.126 1302.38 Q130.205 1306.97 130.205 1315.72 Q130.205 1324.44 127.126 1329.05 Q124.07 1333.63 118.26 1333.63 Q112.45 1333.63 109.371 1329.05 Q106.316 1324.44 106.316 1315.72 Q106.316 1306.97 109.371 1302.38 Q112.45 1297.78 118.26 1297.78 Z" fill="#000000" fill-rule="evenodd" fill-opacity="1" /><path clip-path="url(#clip410)" d="M 0 0 M66.5939 964.731 L54.7884 983.18 L66.5939 983.18 L66.5939 964.731 M65.367 960.657 L71.2466 960.657 L71.2466 983.18 L76.1772 983.18 L76.1772 987.069 L71.2466 987.069 L71.2466 995.217 L66.5939 995.217 L66.5939 987.069 L50.9921 987.069 L50.9921 982.555 L65.367 960.657 Z" fill="#000000" fill-rule="evenodd" fill-opacity="1" /><path clip-path="url(#clip410)" d="M 0 0 M91.2465 963.736 Q87.6354 963.736 85.8068 967.301 Q84.0012 970.842 84.0012 977.972 Q84.0012 985.078 85.8068 988.643 Q87.6354 992.185 91.2465 992.185 Q94.8808 992.185 96.6863 988.643 Q98.515 985.078 98.515 977.972 Q98.515 970.842 96.6863 967.301 Q94.8808 963.736 91.2465 963.736 M91.2465 960.032 Q97.0567 960.032 100.112 964.639 Q103.191 969.222 103.191 977.972 Q103.191 986.699 100.112 991.305 Q97.0567 995.889 91.2465 995.889 Q85.4364 995.889 82.3577 991.305 Q79.3022 986.699 79.3022 977.972 Q79.3022 969.222 82.3577 964.639 Q85.4364 960.032 91.2465 960.032 Z" fill="#000000" fill-rule="evenodd" fill-opacity="1" /><path clip-path="url(#clip410)" d="M 0 0 M118.26 963.736 Q114.649 963.736 112.82 967.301 Q111.015 970.842 111.015 977.972 Q111.015 985.078 112.82 988.643 Q114.649 992.185 118.26 992.185 Q121.895 992.185 123.7 988.643 Q125.529 985.078 125.529 977.972 Q125.529 970.842 123.7 967.301 Q121.895 963.736 118.26 963.736 M118.26 960.032 Q124.07 960.032 127.126 964.639 Q130.205 969.222 130.205 977.972 Q130.205 986.699 127.126 991.305 Q124.07 995.889 118.26 995.889 Q112.45 995.889 109.371 991.305 Q106.316 986.699 106.316 977.972 Q106.316 969.222 109.371 964.639 Q112.45 960.032 118.26 960.032 Z" fill="#000000" fill-rule="evenodd" fill-opacity="1" /><path clip-path="url(#clip410)" d="M 0 0 M64.6495 638.328 Q61.5013 638.328 59.6495 640.481 Q57.8208 642.633 57.8208 646.383 Q57.8208 650.11 59.6495 652.286 Q61.5013 654.439 64.6495 654.439 Q67.7976 654.439 69.6263 652.286 Q71.4781 650.11 71.4781 646.383 Q71.4781 642.633 69.6263 640.481 Q67.7976 638.328 64.6495 638.328 M73.9318 623.675 L73.9318 627.934 Q72.1726 627.101 70.367 626.661 Q68.5846 626.221 66.8254 626.221 Q62.1958 626.221 59.7421 629.346 Q57.3115 632.471 56.9643 638.791 Q58.33 636.777 60.3902 635.712 Q62.4504 634.624 64.9272 634.624 Q70.1355 634.624 73.1448 637.795 Q76.1772 640.943 76.1772 646.383 Q76.1772 651.707 73.029 654.925 Q69.8809 658.142 64.6495 658.142 Q58.6541 658.142 55.4828 653.559 Q52.3116 648.953 52.3116 640.226 Q52.3116 632.032 56.2004 627.17 Q60.0893 622.286 66.6402 622.286 Q68.3994 622.286 70.1818 622.633 Q71.9874 622.981 73.9318 623.675 Z" fill="#000000" fill-rule="evenodd" fill-opacity="1" /><path clip-path="url(#clip410)" d="M 0 0 M91.2465 625.99 Q87.6354 625.99 85.8068 629.555 Q84.0012 633.096 84.0012 640.226 Q84.0012 647.332 85.8068 650.897 Q87.6354 654.439 91.2465 654.439 Q94.8808 654.439 96.6863 650.897 Q98.515 647.332 98.515 640.226 Q98.515 633.096 96.6863 629.555 Q94.8808 625.99 91.2465 625.99 M91.2465 622.286 Q97.0567 622.286 100.112 626.893 Q103.191 631.476 103.191 640.226 Q103.191 648.953 100.112 653.559 Q97.0567 658.142 91.2465 658.142 Q85.4364 658.142 82.3577 653.559 Q79.3022 648.953 79.3022 640.226 Q79.3022 631.476 82.3577 626.893 Q85.4364 622.286 91.2465 622.286 Z" fill="#000000" fill-rule="evenodd" fill-opacity="1" /><path clip-path="url(#clip410)" d="M 0 0 M118.26 625.99 Q114.649 625.99 112.82 629.555 Q111.015 633.096 111.015 640.226 Q111.015 647.332 112.82 650.897 Q114.649 654.439 118.26 654.439 Q121.895 654.439 123.7 650.897 Q125.529 647.332 125.529 640.226 Q125.529 633.096 123.7 629.555 Q121.895 625.99 118.26 625.99 M118.26 622.286 Q124.07 622.286 127.126 626.893 Q130.205 631.476 130.205 640.226 Q130.205 648.953 127.126 653.559 Q124.07 658.142 118.26 658.142 Q112.45 658.142 109.371 653.559 Q106.316 648.953 106.316 640.226 Q106.316 631.476 109.371 626.893 Q112.45 622.286 118.26 622.286 Z" fill="#000000" fill-rule="evenodd" fill-opacity="1" /><path clip-path="url(#clip410)" d="M 0 0 M64.3254 303.313 Q60.9921 303.313 59.0708 305.096 Q57.1726 306.878 57.1726 310.003 Q57.1726 313.128 59.0708 314.91 Q60.9921 316.693 64.3254 316.693 Q67.6587 316.693 69.58 314.91 Q71.5013 313.105 71.5013 310.003 Q71.5013 306.878 69.58 305.096 Q67.6819 303.313 64.3254 303.313 M59.6495 301.322 Q56.6402 300.582 54.9504 298.521 Q53.2838 296.461 53.2838 293.498 Q53.2838 289.355 56.2236 286.947 Q59.1865 284.54 64.3254 284.54 Q69.4874 284.54 72.4272 286.947 Q75.367 289.355 75.367 293.498 Q75.367 296.461 73.6772 298.521 Q72.0105 300.582 69.0244 301.322 Q72.404 302.109 74.279 304.401 Q76.1772 306.693 76.1772 310.003 Q76.1772 315.026 73.0985 317.711 Q70.0429 320.396 64.3254 320.396 Q58.6078 320.396 55.5291 317.711 Q52.4736 315.026 52.4736 310.003 Q52.4736 306.693 54.3717 304.401 Q56.2699 302.109 59.6495 301.322 M57.9365 293.938 Q57.9365 296.623 59.6032 298.128 Q61.293 299.633 64.3254 299.633 Q67.3346 299.633 69.0244 298.128 Q70.7374 296.623 70.7374 293.938 Q70.7374 291.253 69.0244 289.748 Q67.3346 288.244 64.3254 288.244 Q61.293 288.244 59.6032 289.748 Q57.9365 291.253 57.9365 293.938 Z" fill="#000000" fill-rule="evenodd" fill-opacity="1" /><path clip-path="url(#clip410)" d="M 0 0 M91.2465 288.244 Q87.6354 288.244 85.8068 291.809 Q84.0012 295.35 84.0012 302.48 Q84.0012 309.586 85.8068 313.151 Q87.6354 316.693 91.2465 316.693 Q94.8808 316.693 96.6863 313.151 Q98.515 309.586 98.515 302.48 Q98.515 295.35 96.6863 291.809 Q94.8808 288.244 91.2465 288.244 M91.2465 284.54 Q97.0567 284.54 100.112 289.147 Q103.191 293.73 103.191 302.48 Q103.191 311.207 100.112 315.813 Q97.0567 320.396 91.2465 320.396 Q85.4364 320.396 82.3577 315.813 Q79.3022 311.207 79.3022 302.48 Q79.3022 293.73 82.3577 289.147 Q85.4364 284.54 91.2465 284.54 Z" fill="#000000" fill-rule="evenodd" fill-opacity="1" /><path clip-path="url(#clip410)" d="M 0 0 M118.26 288.244 Q114.649 288.244 112.82 291.809 Q111.015 295.35 111.015 302.48 Q111.015 309.586 112.82 313.151 Q114.649 316.693 118.26 316.693 Q121.895 316.693 123.7 313.151 Q125.529 309.586 125.529 302.48 Q125.529 295.35 123.7 291.809 Q121.895 288.244 118.26 288.244 M118.26 284.54 Q124.07 284.54 127.126 289.147 Q130.205 293.73 130.205 302.48 Q130.205 311.207 127.126 315.813 Q124.07 320.396 118.26 320.396 Q112.45 320.396 109.371 315.813 Q106.316 311.207 106.316 302.48 Q106.316 293.73 109.371 289.147 Q112.45 284.54 118.26 284.54 Z" fill="#000000" fill-rule="evenodd" fill-opacity="1" /><polyline clip-path="url(#clip412)" style="stroke:#009af9; stroke-width:4; stroke-opacity:1; fill:none" points="
  228.088,1099.53 228.604,755.025 229.12,1178.9 229.636,1107.97 230.151,837.773 230.667,1082.64 231.183,1028.6 231.699,565.887 232.215,964.427 232.731,1131.61 
  233.246,1232.94 233.762,817.508 234.278,959.361 234.794,913.766 235.31,1003.27 235.826,1107.97 236.341,1030.29 236.857,820.885 237.373,1293.73 237.889,1094.46 
  238.405,668.9 238.921,942.474 239.436,797.243 239.952,1053.93 240.468,991.447 240.984,876.613 241.5,702.674 242.015,1106.28 242.531,1187.34 243.047,935.719 
  243.563,753.336 244.079,469.629 244.595,1026.91 245.11,1011.71 245.626,1194.09 246.142,1026.91 246.658,555.755 247.174,1150.19 247.69,1183.96 248.205,1107.97 
  248.721,741.515 249.237,758.402 249.753,1175.52 250.269,1119.79 250.784,1077.57 251.3,1045.49 251.816,601.35 252.332,1057.31 252.848,1167.08 253.364,624.993 
  253.879,1011.71 254.395,1195.78 254.911,879.991 255.427,738.138 255.943,1015.09 256.459,900.256 256.974,1080.95 257.49,657.078 258.006,1131.61 258.522,820.885 
  259.038,1180.58 259.554,613.171 260.069,1194.09 260.585,1106.28 261.101,670.588 261.617,996.513 262.133,932.342 262.648,856.349 263.164,1295.42 263.68,898.567 
  264.196,1136.68 264.712,1018.47 265.228,768.535 265.743,1028.6 266.259,817.508 266.775,817.508 267.291,967.805 267.807,726.316 268.323,910.388 268.838,1079.26 
  269.354,1038.73 269.87,896.878 270.386,935.719 270.902,733.071 271.417,842.839 271.933,815.819 272.449,726.316 272.965,621.615 273.481,749.959 273.997,1097.84 
  274.512,1089.39 275.028,1134.99 275.544,993.136 276.06,1319.06 276.576,1052.24 277.092,190.989 277.607,805.687 278.123,972.871 278.639,1057.31 279.155,1258.27 
  279.671,932.342 280.187,1224.49 280.702,87.9763 281.218,771.912 281.734,1194.09 282.25,1148.5 282.766,1273.47 283.281,760.091 283.797,636.814 284.313,579.397 
  284.829,918.832 285.345,695.919 285.861,868.17 286.376,716.184 286.892,1168.76 287.408,969.494 287.924,1057.31 288.44,885.057 288.956,1082.64 289.471,819.197 
  289.987,977.937 290.503,1140.06 291.019,1261.64 291.535,1107.97 292.05,974.56 292.566,873.236 293.082,1006.65 293.598,800.621 294.114,1123.17 294.63,1075.88 
  295.145,1045.49 295.661,961.05 296.177,1278.53 296.693,1204.23 297.209,672.277 297.725,667.211 298.24,994.825 298.756,1057.31 299.272,1153.57 299.788,846.216 
  300.304,753.336 300.82,1224.49 301.335,1080.95 301.851,1030.29 302.367,1124.86 302.883,1216.05 303.399,910.388 303.914,988.07 304.43,1099.53 304.946,937.408 
  305.462,1376.48 305.978,1107.97 306.494,959.361 307.009,903.633 307.525,961.05 308.041,893.501 308.557,1162.01 309.073,991.447 309.589,780.356 310.104,1069.13 
  310.62,824.263 311.136,1086.02 311.652,1283.6 312.168,1226.18 312.683,898.567 313.199,864.792 313.715,983.004 314.231,1028.6 314.747,1231.25 315.263,1067.44 
  315.778,851.283 316.294,743.204 316.81,1001.58 317.326,690.853 317.842,444.298 318.358,1214.36 318.873,1089.39 319.389,1236.31 319.905,684.098 320.421,599.662 
  320.937,1292.04 321.453,881.68 321.968,961.05 322.484,1072.51 323,983.004 323.516,976.249 324.032,1307.24 324.547,1146.81 325.063,1180.58 325.579,1155.25 
  326.095,677.343 326.611,962.739 327.127,1210.98 327.642,1020.16 328.158,1281.91 328.674,1104.59 329.19,614.86 329.706,947.54 330.222,854.66 330.737,977.937 
  331.253,803.998 331.769,407.146 332.285,1020.16 332.801,814.13 333.316,917.143 333.832,1158.63 334.348,1065.75 334.864,1031.98 335.38,1089.39 335.896,1118.1 
  336.411,1026.91 336.927,792.177 337.443,942.474 337.959,1086.02 338.475,989.758 338.991,907.011 339.506,976.249 340.022,1192.41 340.538,1172.14 341.054,1082.64 
  341.57,1307.24 342.086,957.673 342.601,1281.91 343.117,1167.08 343.633,937.408 344.149,1290.35 344.665,1219.43 345.18,1229.56 345.696,1104.59 346.212,1195.78 
  346.728,1356.21 347.244,969.494 347.76,1325.82 348.275,896.878 348.791,1197.47 349.307,1286.98 349.823,1226.18 350.339,1067.44 350.855,1113.04 351.37,758.402 
  351.886,1312.31 352.402,1315.68 352.918,655.39 353.434,1167.08 353.949,1219.43 354.465,1028.6 354.981,878.302 355.497,918.832 356.013,993.136 356.529,1111.35 
  357.044,969.494 357.56,1062.37 358.076,1209.29 358.592,1182.27 359.108,937.408 359.624,1042.11 360.139,778.667 360.655,344.663 361.171,1146.81 361.687,1057.31 
  362.203,1185.65 362.719,817.508 363.234,743.204 363.75,1038.73 364.266,1096.15 364.782,1102.9 365.298,1010.02 365.813,1199.16 366.329,866.481 366.845,1091.08 
  367.361,1175.52 367.877,1226.18 368.393,1059 368.908,1113.04 369.424,587.841 369.94,1033.67 370.456,1185.65 370.972,824.263 371.488,1238 372.003,969.494 
  372.519,1295.42 373.035,934.03 373.551,1133.3 374.067,852.971 374.582,1204.23 375.098,1143.43 375.614,928.964 376.13,1275.15 376.646,1111.35 377.162,1084.33 
  377.677,1001.58 378.193,800.621 378.709,1035.35 379.225,1138.37 379.741,1072.51 380.257,810.753 380.772,993.136 381.288,1106.28 381.804,1033.67 382.32,782.045 
  382.836,1227.87 383.352,1224.49 383.867,1018.47 384.383,871.547 384.899,1072.51 385.415,1072.51 385.931,1200.85 386.446,665.522 386.962,1025.22 387.478,1126.55 
  387.994,1097.84 388.51,1207.6 389.026,778.667 389.541,1038.73 390.057,1145.12 390.573,1119.79 391.089,939.097 391.605,749.959 392.121,890.123 392.636,1133.3 
  393.152,729.694 393.668,1109.66 394.184,991.447 394.7,1096.15 395.215,1205.92 395.731,1216.05 396.247,1163.7 396.763,1251.51 397.279,1069.13 397.795,863.104 
  398.31,1001.58 398.826,820.885 399.342,868.17 399.858,994.825 400.374,1134.99 400.89,635.125 401.405,994.825 401.921,873.236 402.437,1062.37 402.953,1251.51 
  403.469,1151.88 403.985,1033.67 404.5,1153.57 405.016,871.547 405.532,829.329 406.048,782.045 406.564,1021.84 407.079,1222.8 407.595,1123.17 408.111,1052.24 
  408.627,1096.15 409.143,1153.57 409.659,1305.55 410.174,1178.9 410.69,1222.8 411.206,1035.35 411.722,1146.81 412.238,1123.17 412.754,1148.5 413.269,940.785 
  413.785,1337.64 414.301,1104.59 414.817,1069.13 415.333,986.381 415.848,1138.37 416.364,1091.08 416.88,1008.33 417.396,839.461 417.912,896.878 418.428,1035.35 
  418.943,1084.33 419.459,1234.62 419.975,1315.68 420.491,1074.19 421.007,1148.5 421.523,1102.9 422.038,1320.75 422.554,1077.57 423.07,962.739 423.586,981.315 
  424.102,1124.86 424.618,1210.98 425.133,1202.54 425.649,952.606 426.165,1254.89 426.681,950.918 427.197,1129.92 427.712,920.52 428.228,1265.02 428.744,815.819 
  429.26,1251.51 429.776,1197.47 430.292,947.54 430.807,1278.53 431.323,1303.86 431.839,1234.62 432.355,974.56 432.871,1325.82 433.387,1210.98 433.902,957.673 
  434.418,1106.28 434.934,868.17 435.45,1305.55 435.966,653.701 436.481,1143.43 436.997,1004.96 437.513,1310.62 438.029,1227.87 438.545,1021.84 439.061,1136.68 
  439.576,1273.47 440.092,1170.45 440.608,1006.65 441.124,979.626 441.64,1092.77 442.156,540.556 442.671,1114.72 443.187,1173.83 443.703,1259.96 444.219,1251.51 
  444.735,1141.74 445.251,1249.82 445.766,1053.93 446.282,1199.16 446.798,1263.33 447.314,1185.65 447.83,915.454 448.345,1006.65 448.861,1270.09 449.377,1265.02 
  449.893,1219.43 450.409,1332.57 450.925,1354.52 451.44,1182.27 451.956,999.891 452.472,895.19 452.988,1167.08 453.504,1207.6 454.02,1216.05 454.535,923.898 
  455.051,1195.78 455.567,1266.71 456.083,1025.22 456.599,1050.55 457.114,1384.92 457.63,1172.14 458.146,999.891 458.662,1197.47 459.178,1177.21 459.694,1222.8 
  460.209,1276.84 460.725,1273.47 461.241,1133.3 461.757,1217.74 462.273,972.871 462.789,925.587 463.304,1123.17 463.82,1156.94 464.336,1055.62 464.852,1391.68 
  465.368,918.832 465.884,1156.94 466.399,907.011 466.915,944.163 467.431,1170.45 467.947,1217.74 468.463,1332.57 468.978,1033.67 469.494,1089.39 470.01,1136.68 
  470.526,1325.82 471.042,1280.22 471.558,1273.47 472.073,1229.56 472.589,1263.33 473.105,1209.29 473.621,1087.7 474.137,1055.62 474.653,1165.39 475.168,1060.69 
  475.684,1197.47 476.2,1129.92 476.716,1173.83 477.232,1099.53 477.747,1151.88 478.263,957.673 478.779,954.295 479.295,1151.88 479.811,1042.11 480.327,1189.03 
  480.842,1212.67 481.358,1324.13 481.874,1134.99 482.39,1244.76 482.906,1236.31 483.422,1109.66 483.937,1271.78 484.453,1129.92 484.969,1158.63 485.485,1129.92 
  486.001,1192.41 486.517,1045.49 487.032,1197.47 487.548,1335.95 488.064,1096.15 488.58,1141.74 489.096,1199.16 489.611,1202.54 490.127,1212.67 490.643,1070.82 
  491.159,1265.02 491.675,981.315 492.191,1182.27 492.706,1248.13 493.222,893.501 493.738,1097.84 494.254,1072.51 494.77,1102.9 495.286,1268.4 495.801,1261.64 
  496.317,1312.31 496.833,1221.11 497.349,1113.04 497.865,1246.45 498.38,1077.57 498.896,1134.99 499.412,1298.8 499.928,1153.57 500.444,954.295 500.96,1162.01 
  501.475,1165.39 501.991,1227.87 502.507,1234.62 503.023,1244.76 503.539,1246.45 504.055,1327.5 504.57,1160.32 505.086,1177.21 505.602,1229.56 506.118,1248.13 
  506.634,1072.51 507.15,1199.16 507.665,1136.68 508.181,1251.51 508.697,1362.97 509.213,1075.88 509.729,1089.39 510.244,1207.6 510.76,1254.89 511.276,1072.51 
  511.792,1114.72 512.308,1167.08 512.824,1261.64 513.339,1270.09 513.855,1263.33 514.371,1280.22 514.887,1016.78 515.403,1384.92 515.919,1187.34 516.434,858.037 
  516.95,1178.9 517.466,1199.16 517.982,1205.92 518.498,1259.96 519.013,1183.96 519.529,1114.72 520.045,1425.45 520.561,1229.56 521.077,1374.79 521.593,1427.14 
  522.108,1322.44 522.624,1214.36 523.14,1261.64 523.656,1219.43 524.172,1307.24 524.688,1075.88 525.203,1244.76 525.719,1182.27 526.235,1278.53 526.751,1175.52 
  527.267,1129.92 527.783,1246.45 528.298,1129.92 528.814,1167.08 529.33,1102.9 529.846,868.17 530.362,1192.41 530.877,1197.47 531.393,1053.93 531.909,1224.49 
  532.425,1261.64 532.941,1167.08 533.457,1069.13 533.972,1253.2 534.488,1268.4 535.004,1244.76 535.52,969.494 536.036,1013.4 536.552,1302.17 537.067,1195.78 
  537.583,1106.28 538.099,930.653 538.615,1302.17 539.131,1053.93 539.646,1239.69 540.162,1214.36 540.678,1158.63 541.194,966.116 541.71,1295.42 542.226,1077.57 
  542.741,1226.18 543.257,1151.88 543.773,1062.37 544.289,1062.37 544.805,912.077 545.321,950.918 545.836,1344.39 546.352,1243.07 546.868,1015.09 547.384,1170.45 
  547.9,1216.05 548.416,1128.23 548.931,1254.89 549.447,1042.11 549.963,1270.09 550.479,1258.27 550.995,1140.06 551.51,1136.68 552.026,1332.57 552.542,1158.63 
  553.058,1290.35 553.574,1246.45 554.09,1151.88 554.605,1168.76 555.121,1094.46 555.637,1298.8 556.153,1170.45 556.669,1295.42 557.185,1155.25 557.7,1126.55 
  558.216,1111.35 558.732,1102.9 559.248,1092.77 559.764,1224.49 560.279,1241.38 560.795,1239.69 561.311,1111.35 561.827,1045.49 562.343,1185.65 562.859,1292.04 
  563.374,1298.8 563.89,1261.64 564.406,1384.92 564.922,1197.47 565.438,1048.86 565.954,1192.41 566.469,1371.41 566.985,1140.06 567.501,1109.66 568.017,1359.59 
  568.533,1212.67 569.049,1310.62 569.564,1232.94 570.08,1427.14 570.596,1195.78 571.112,1004.96 571.628,1182.27 572.143,1234.62 572.659,932.342 573.175,1187.34 
  573.691,1263.33 574.207,1167.08 574.723,1349.46 575.238,1153.57 575.754,1158.63 576.27,1222.8 576.786,1165.39 577.302,1160.32 577.818,1143.43 578.333,1303.86 
  578.849,1229.56 579.365,1050.55 579.881,1205.92 580.397,1131.61 580.912,1150.19 581.428,1254.89 581.944,1231.25 582.46,1325.82 582.976,1273.47 583.492,1134.99 
  584.007,1297.11 584.523,1160.32 585.039,1305.55 585.555,1310.62 586.071,1248.13 586.587,1246.45 587.102,1308.93 587.618,1308.93 588.134,1162.01 588.65,1190.72 
  589.166,952.606 589.682,1185.65 590.197,1310.62 590.713,1373.1 591.229,1134.99 591.745,1356.21 592.261,1226.18 592.776,1204.23 593.292,1344.39 593.808,1192.41 
  594.324,1393.37 594.84,1271.78 595.356,1170.45 595.871,1396.74 596.387,1180.58 596.903,1238 597.419,1438.96 597.935,1216.05 598.451,1099.53 598.966,1276.84 
  599.482,1276.84 599.998,1381.54 600.514,1239.69 601.03,1273.47 601.545,1332.57 602.061,1325.82 602.577,1129.92 603.093,1418.7 603.609,1177.21 604.125,1290.35 
  604.64,976.249 605.156,1238 605.672,1313.99 606.188,1292.04 606.704,1217.74 607.22,1222.8 607.735,1292.04 608.251,1349.46 608.767,1200.85 609.283,1256.58 
  609.799,1298.8 610.315,1280.22 610.83,1107.97 611.346,1232.94 611.862,1278.53 612.378,1197.47 612.894,1329.19 613.409,1290.35 613.925,1288.66 614.441,1074.19 
  614.957,1330.88 615.473,1283.6 615.989,1133.3 616.504,1295.42 617.02,1209.29 617.536,1199.16 618.052,1346.08 618.568,1254.89 619.084,1238 619.599,1195.78 
  620.115,1119.79 620.631,1249.82 621.147,1329.19 621.663,1297.11 622.178,1200.85 622.694,1295.42 623.21,1341.01 623.726,1398.43 624.242,1107.97 624.758,1315.68 
  625.273,1200.85 625.789,1263.33 626.305,1261.64 626.821,1263.33 627.337,1146.81 627.853,1276.84 628.368,1371.41 628.884,1300.48 629.4,1273.47 629.916,1315.68 
  630.432,1280.22 630.948,1192.41 631.463,1276.84 631.979,1261.64 632.495,984.692 633.011,1383.23 633.527,1106.28 634.042,1248.13 634.558,1204.23 635.074,1278.53 
  635.59,1298.8 636.106,1194.09 636.622,1283.6 637.137,1283.6 637.653,1124.86 638.169,1129.92 638.685,1180.58 639.201,1163.7 639.717,1352.84 640.232,1280.22 
  640.748,1295.42 641.264,1199.16 641.78,1219.43 642.296,1231.25 642.811,1337.64 643.327,1297.11 643.843,1140.06 644.359,1292.04 644.875,1271.78 645.391,1292.04 
  645.906,1389.99 646.422,1286.98 646.938,1298.8 647.454,1104.59 647.97,1118.1 648.486,1249.82 649.001,1396.74 649.517,1212.67 650.033,1303.86 650.549,1222.8 
  651.065,1210.98 651.581,1222.8 652.096,1168.76 652.612,1172.14 653.128,1357.9 653.644,1173.83 654.16,1212.67 654.675,1249.82 655.191,1168.76 655.707,1281.91 
  656.223,1297.11 656.739,1270.09 657.255,1334.26 657.77,1270.09 658.286,1290.35 658.802,1374.79 659.318,1303.86 659.834,1234.62 660.35,1275.15 660.865,1226.18 
  661.381,1305.55 661.897,1087.7 662.413,1268.4 662.929,1335.95 663.444,1160.32 663.96,1209.29 664.476,1180.58 664.992,1212.67 665.508,1047.18 666.024,1226.18 
  666.539,1178.9 667.055,1298.8 667.571,1298.8 668.087,1361.28 668.603,1317.37 669.119,1224.49 669.634,1307.24 670.15,1216.05 670.666,1214.36 671.182,1362.97 
  671.698,1239.69 672.214,1317.37 672.729,1239.69 673.245,1251.51 673.761,1182.27 674.277,1405.19 674.793,1351.15 675.308,1300.48 675.824,1123.17 676.34,1325.82 
  676.856,1288.66 677.372,1079.26 677.888,1209.29 678.403,1253.2 678.919,1308.93 679.435,1315.68 679.951,1322.44 680.467,1334.26 680.983,1308.93 681.498,1325.82 
  682.014,1325.82 682.53,1261.64 683.046,1129.92 683.562,1251.51 684.077,1253.2 684.593,1332.57 685.109,1339.33 685.625,1183.96 686.141,1114.72 686.657,1341.01 
  687.172,1195.78 687.688,1160.32 688.204,1288.66 688.72,1366.35 689.236,1189.03 689.752,1408.56 690.267,1388.3 690.783,1163.7 691.299,1290.35 691.815,1297.11 
  692.331,1217.74 692.847,1352.84 693.362,1330.88 693.878,1271.78 694.394,1244.76 694.91,1391.68 695.426,1386.61 695.941,1209.29 696.457,1261.64 696.973,1212.67 
  697.489,1080.95 698.005,1271.78 698.521,1310.62 699.036,1445.72 699.552,1315.68 700.068,1270.09 700.584,1285.29 701.1,1173.83 701.616,1178.9 702.131,1298.8 
  702.647,1297.11 703.163,1371.41 703.679,1351.15 704.195,1160.32 704.71,1261.64 705.226,1319.06 705.742,1172.14 706.258,1214.36 706.774,1300.48 707.29,1244.76 
  707.805,1327.5 708.321,1334.26 708.837,1221.11 709.353,1204.23 709.869,1324.13 710.385,1317.37 710.9,1335.95 711.416,1337.64 711.932,1126.55 712.448,1315.68 
  712.964,1297.11 713.48,1300.48 713.995,1346.08 714.511,1307.24 715.027,1251.51 715.543,1265.02 716.059,1197.47 716.574,1249.82 717.09,1373.1 717.606,1226.18 
  718.122,1281.91 718.638,1344.39 719.154,1364.66 719.669,1183.96 720.185,1290.35 720.701,1423.76 721.217,1204.23 721.733,1209.29 722.249,1163.7 722.764,1092.77 
  723.28,1209.29 723.796,1298.8 724.312,1123.17 724.828,1383.23 725.343,1214.36 725.859,1168.76 726.375,1368.03 726.891,1214.36 727.407,1357.9 727.923,1320.75 
  728.438,1307.24 728.954,1102.9 729.47,1325.82 729.986,1403.5 730.502,1398.43 731.018,1273.47 731.533,1278.53 732.049,1275.15 732.565,1379.86 733.081,1207.6 
  733.597,1352.84 734.113,1219.43 734.628,1366.35 735.144,1312.31 735.66,1236.31 736.176,1172.14 736.692,1216.05 737.207,1086.02 737.723,1285.29 738.239,1330.88 
  738.755,1266.71 739.271,1254.89 739.787,1231.25 740.302,1168.76 740.818,1249.82 741.334,1324.13 741.85,1259.96 742.366,1322.44 742.882,1305.55 743.397,1243.07 
  743.913,1281.91 744.429,1305.55 744.945,1273.47 745.461,1298.8 745.976,1236.31 746.492,1337.64 747.008,1249.82 747.524,1305.55 748.04,1209.29 748.556,1229.56 
  749.071,1288.66 749.587,1307.24 750.103,1312.31 750.619,1411.94 751.135,1087.7 751.651,1271.78 752.166,1352.84 752.682,1281.91 753.198,1312.31 753.714,1315.68 
  754.23,1408.56 754.746,1356.21 755.261,1401.81 755.777,1317.37 756.293,1334.26 756.809,1351.15 757.325,1308.93 757.84,1335.95 758.356,1202.54 758.872,1437.27 
  759.388,1243.07 759.904,1332.57 760.42,1232.94 760.935,1313.99 761.451,1224.49 761.967,1060.69 762.483,1356.21 762.999,1368.03 763.515,1292.04 764.03,1313.99 
  764.546,1256.58 765.062,1293.73 765.578,1362.97 766.094,1303.86 766.609,1249.82 767.125,1329.19 767.641,1248.13 768.157,1288.66 768.673,1182.27 769.189,1256.58 
  769.704,1254.89 770.22,1354.52 770.736,1366.35 771.252,1254.89 771.768,1212.67 772.284,1209.29 772.799,1307.24 773.315,1352.84 773.831,1357.9 774.347,1320.75 
  774.863,1190.72 775.379,1344.39 775.894,1251.51 776.41,1344.39 776.926,1342.7 777.442,1357.9 777.958,1359.59 778.473,1308.93 778.989,1351.15 779.505,1366.35 
  780.021,1349.46 780.537,1307.24 781.053,1308.93 781.568,1231.25 782.084,1263.33 782.6,1226.18 783.116,1378.17 783.632,1165.39 784.148,1265.02 784.663,1410.25 
  785.179,1231.25 785.695,1222.8 786.211,1315.68 786.727,1249.82 787.242,1347.77 787.758,1280.22 788.274,1312.31 788.79,1337.64 789.306,1281.91 789.822,1261.64 
  790.337,1342.7 790.853,1378.17 791.369,1084.33 791.885,1322.44 792.401,1334.26 792.917,1280.22 793.432,1312.31 793.948,1317.37 794.464,1204.23 794.98,1134.99 
  795.496,1322.44 796.012,1162.01 796.527,1256.58 797.043,1433.89 797.559,1243.07 798.075,1330.88 798.591,1190.72 799.106,1168.76 799.622,1197.47 800.138,1243.07 
  800.654,1396.74 801.17,1276.84 801.686,1384.92 802.201,1384.92 802.717,1187.34 803.233,1210.98 803.749,1374.79 804.265,1239.69 804.781,1249.82 805.296,1295.42 
  805.812,1312.31 806.328,1347.77 806.844,1415.32 807.36,1374.79 807.875,1243.07 808.391,1060.69 808.907,1121.48 809.423,1354.52 809.939,1442.34 810.455,1128.23 
  810.97,1278.53 811.486,1231.25 812.002,1202.54 812.518,1204.23 813.034,1347.77 813.55,1067.44 814.065,1204.23 814.581,1322.44 815.097,1410.25 815.613,1263.33 
  816.129,1244.76 816.645,1354.52 817.16,1337.64 817.676,1347.77 818.192,1364.66 818.708,1398.43 819.224,1209.29 819.739,1187.34 820.255,1168.76 820.771,1438.96 
  821.287,1238 821.803,1183.96 822.319,1351.15 822.834,1406.87 823.35,1271.78 823.866,1141.74 824.382,1315.68 824.898,1396.74 825.414,1197.47 825.929,1150.19 
  826.445,1219.43 826.961,1300.48 827.477,1160.32 827.993,1388.3 828.508,1379.86 829.024,1364.66 829.54,1185.65 830.056,1403.5 830.572,1349.46 831.088,1359.59 
  831.603,1204.23 832.119,1047.18 832.635,1238 833.151,1109.66 833.667,1281.91 834.183,1209.29 834.698,1376.48 835.214,1244.76 835.73,1275.15 836.246,1295.42 
  836.762,1207.6 837.278,1249.82 837.793,1351.15 838.309,1146.81 838.825,1357.9 839.341,1273.47 839.857,1251.51 840.372,1258.27 840.888,1298.8 841.404,1410.25 
  841.92,1283.6 842.436,1194.09 842.952,1298.8 843.467,1173.83 843.983,1403.5 844.499,1310.62 845.015,1096.15 845.531,1268.4 846.047,1361.28 846.562,1351.15 
  847.078,1337.64 847.594,1366.35 848.11,1079.26 848.626,1231.25 849.141,1205.92 849.657,1244.76 850.173,1182.27 850.689,1411.94 851.205,1335.95 851.721,1357.9 
  852.236,1258.27 852.752,1319.06 853.268,1259.96 853.784,1265.02 854.3,1167.08 854.816,1187.34 855.331,1322.44 855.847,1209.29 856.363,1266.71 856.879,1209.29 
  857.395,1131.61 857.911,1204.23 858.426,1251.51 858.942,1124.86 859.458,1200.85 859.974,1341.01 860.49,1327.5 861.005,1297.11 861.521,1209.29 862.037,1266.71 
  862.553,1131.61 863.069,1364.66 863.585,1214.36 864.1,1349.46 864.616,1310.62 865.132,1273.47 865.648,1357.9 866.164,1347.77 866.68,1253.2 867.195,1315.68 
  867.711,1175.52 868.227,1229.56 868.743,1178.9 869.259,1410.25 869.774,1379.86 870.29,1312.31 870.806,1268.4 871.322,1243.07 871.838,1373.1 872.354,1190.72 
  872.869,1204.23 873.385,1182.27 873.901,1320.75 874.417,1182.27 874.933,1265.02 875.449,1374.79 875.964,1004.96 876.48,1308.93 876.996,1253.2 877.512,1391.68 
  878.028,1376.48 878.544,1104.59 879.059,1349.46 879.575,1362.97 880.091,1362.97 880.607,1202.54 881.123,1396.74 881.638,1395.05 882.154,1334.26 882.67,1263.33 
  883.186,1373.1 883.702,1266.71 884.218,1298.8 884.733,1411.94 885.249,1195.78 885.765,1123.17 886.281,1273.47 886.797,1195.78 887.313,1265.02 887.828,1205.92 
  888.344,1325.82 888.86,1322.44 889.376,1131.61 889.892,1165.39 890.407,1324.13 890.923,1146.81 891.439,1254.89 891.955,1254.89 892.471,1364.66 892.987,1286.98 
  893.502,1423.76 894.018,1329.19 894.534,1388.3 895.05,1134.99 895.566,1330.88 896.082,1342.7 896.597,1271.78 897.113,1342.7 897.629,1420.38 898.145,1393.37 
  898.661,1342.7 899.177,1219.43 899.692,1099.53 900.208,1232.94 900.724,1339.33 901.24,1307.24 901.756,1401.81 902.271,1376.48 902.787,1376.48 903.303,1308.93 
  903.819,1143.43 904.335,1011.71 904.851,1319.06 905.366,1205.92 905.882,1195.78 906.398,1295.42 906.914,1150.19 907.43,1393.37 907.946,1204.23 908.461,1275.15 
  908.977,1209.29 909.493,1303.86 910.009,1278.53 910.525,1308.93 911.04,1229.56 911.556,1216.05 912.072,1374.79 912.588,1310.62 913.104,1349.46 913.62,1204.23 
  914.135,1126.55 914.651,1178.9 915.167,1286.98 915.683,1212.67 916.199,1231.25 916.715,1249.82 917.23,1308.93 917.746,1243.07 918.262,1319.06 918.778,1271.78 
  919.294,1349.46 919.81,1263.33 920.325,1415.32 920.841,1256.58 921.357,1305.55 921.873,1270.09 922.389,1258.27 922.904,1307.24 923.42,1324.13 923.936,1346.08 
  924.452,1290.35 924.968,1216.05 925.484,1295.42 925.999,1349.46 926.515,1199.16 927.031,1099.53 927.547,1283.6 928.063,1266.71 928.579,1290.35 929.094,1329.19 
  929.61,1204.23 930.126,1315.68 930.642,1401.81 931.158,1297.11 931.673,1256.58 932.189,1227.87 932.705,1236.31 933.221,1222.8 933.737,1271.78 934.253,1302.17 
  934.768,1226.18 935.284,1281.91 935.8,1273.47 936.316,1288.66 936.832,1256.58 937.348,1334.26 937.863,1217.74 938.379,1248.13 938.895,1183.96 939.411,1232.94 
  939.927,1352.84 940.443,1236.31 940.958,1298.8 941.474,1219.43 941.99,1354.52 942.506,1347.77 943.022,1280.22 943.537,1270.09 944.053,1300.48 944.569,1342.7 
  945.085,1246.45 945.601,1270.09 946.117,1146.81 946.632,1354.52 947.148,1248.13 947.664,1310.62 948.18,1395.05 948.696,1232.94 949.212,1244.76 949.727,1357.9 
  950.243,1168.76 950.759,1368.03 951.275,1341.01 951.791,1275.15 952.306,1341.01 952.822,1362.97 953.338,1298.8 953.854,1243.07 954.37,1381.54 954.886,1165.39 
  955.401,1335.95 955.917,1276.84 956.433,1357.9 956.949,1369.72 957.465,1329.19 957.981,1214.36 958.496,1389.99 959.012,1373.1 959.528,1307.24 960.044,1224.49 
  960.56,1330.88 961.076,1324.13 961.591,1368.03 962.107,1254.89 962.623,1361.28 963.139,1307.24 963.655,1315.68 964.17,1433.89 964.686,1278.53 965.202,1143.43 
  965.718,1249.82 966.234,1371.41 966.75,1207.6 967.265,1300.48 967.781,1281.91 968.297,1351.15 968.813,1398.43 969.329,1366.35 969.845,1403.5 970.36,1290.35 
  970.876,1330.88 971.392,1315.68 971.908,1297.11 972.424,1244.76 972.939,1244.76 973.455,1241.38 973.971,1292.04 974.487,1266.71 975.003,1307.24 975.519,1300.48 
  976.034,1324.13 976.55,1281.91 977.066,1292.04 977.582,1411.94 978.098,1295.42 978.614,1334.26 979.129,1256.58 979.645,1138.37 980.161,1347.77 980.677,1378.17 
  981.193,1307.24 981.709,1381.54 982.224,1288.66 982.74,1342.7 983.256,1297.11 983.772,1357.9 984.288,1259.96 984.803,1189.03 985.319,1298.8 985.835,1339.33 
  986.351,1379.86 986.867,1217.74 987.383,1160.32 987.898,1312.31 988.414,1319.06 988.93,1389.99 989.446,1106.28 989.962,1205.92 990.478,1295.42 990.993,1415.32 
  991.509,1342.7 992.025,1307.24 992.541,1342.7 993.057,1305.55 993.572,1315.68 994.088,1298.8 994.604,1386.61 995.12,1236.31 995.636,1368.03 996.152,1273.47 
  996.667,1393.37 997.183,1366.35 997.699,1293.73 998.215,1357.9 998.731,1307.24 999.247,1244.76 999.762,1384.92 1000.28,1327.5 1000.79,1286.98 1001.31,1329.19 
  1001.83,1239.69 1002.34,1265.02 1002.86,1364.66 1003.37,1413.63 1003.89,1295.42 1004.4,1342.7 1004.92,1308.93 1005.44,1356.21 1005.95,1290.35 1006.47,1337.64 
  1006.98,1268.4 1007.5,1295.42 1008.02,1329.19 1008.53,1212.67 1009.05,1398.43 1009.56,1165.39 1010.08,1334.26 1010.59,1244.76 1011.11,1430.52 1011.63,1263.33 
  1012.14,1270.09 1012.66,1386.61 1013.17,1292.04 1013.69,1172.14 1014.21,1249.82 1014.72,1238 1015.24,1283.6 1015.75,1182.27 1016.27,1347.77 1016.78,1378.17 
  1017.3,1369.72 1017.82,1346.08 1018.33,1330.88 1018.85,1293.73 1019.36,1243.07 1019.88,1327.5 1020.4,1319.06 1020.91,1194.09 1021.43,1285.29 1021.94,1369.72 
  1022.46,1313.99 1022.97,1329.19 1023.49,1347.77 1024.01,1259.96 1024.52,1305.55 1025.04,1275.15 1025.55,1354.52 1026.07,1415.32 1026.59,1393.37 1027.1,1325.82 
  1027.62,1131.61 1028.13,1320.75 1028.65,1327.5 1029.16,1263.33 1029.68,1313.99 1030.2,1400.12 1030.71,1342.7 1031.23,1330.88 1031.74,1236.31 1032.26,1354.52 
  1032.78,1300.48 1033.29,1329.19 1033.81,1251.51 1034.32,1342.7 1034.84,1276.84 1035.35,1334.26 1035.87,1354.52 1036.39,1324.13 1036.9,1278.53 1037.42,1337.64 
  1037.93,1308.93 1038.45,1325.82 1038.97,1238 1039.48,1173.83 1040,1347.77 1040.51,1342.7 1041.03,1357.9 1041.54,1319.06 1042.06,1339.33 1042.58,1271.78 
  1043.09,1317.37 1043.61,1271.78 1044.12,1256.58 1044.64,1310.62 1045.15,1384.92 1045.67,1339.33 1046.19,1231.25 1046.7,1366.35 1047.22,1361.28 1047.73,1310.62 
  1048.25,1308.93 1048.77,1411.94 1049.28,1227.87 1049.8,1256.58 1050.31,1369.72 1050.83,1099.53 1051.34,1322.44 1051.86,1236.31 1052.38,1379.86 1052.89,1297.11 
  1053.41,1381.54 1053.92,1312.31 1054.44,1401.81 1054.96,1177.21 1055.47,1261.64 1055.99,1168.76 1056.5,1268.4 1057.02,1393.37 1057.53,1295.42 1058.05,1371.41 
  1058.57,1359.59 1059.08,1325.82 1059.6,1361.28 1060.11,1303.86 1060.63,1238 1061.15,1297.11 1061.66,1417.01 1062.18,1281.91 1062.69,1283.6 1063.21,1222.8 
  1063.72,1295.42 1064.24,1320.75 1064.76,1324.13 1065.27,1342.7 1065.79,1320.75 1066.3,1384.92 1066.82,1249.82 1067.34,957.673 1067.85,1315.68 1068.37,1126.55 
  1068.88,1319.06 1069.4,1278.53 1069.91,1293.73 1070.43,1334.26 1070.95,1359.59 1071.46,1351.15 1071.98,1075.88 1072.49,1305.55 1073.01,1302.17 1073.53,1246.45 
  1074.04,1362.97 1074.56,1167.08 1075.07,1305.55 1075.59,1263.33 1076.1,1261.64 1076.62,1386.61 1077.14,1265.02 1077.65,1271.78 1078.17,1364.66 1078.68,1395.05 
  1079.2,1339.33 1079.72,1411.94 1080.23,1286.98 1080.75,1310.62 1081.26,1334.26 1081.78,1249.82 1082.29,1383.23 1082.81,1263.33 1083.33,1406.87 1083.84,1337.64 
  1084.36,1292.04 1084.87,1384.92 1085.39,1238 1085.91,1286.98 1086.42,1217.74 1086.94,1325.82 1087.45,1322.44 1087.97,1418.7 1088.48,1378.17 1089,1261.64 
  1089.52,1357.9 1090.03,1357.9 1090.55,1286.98 1091.06,1195.78 1091.58,1293.73 1092.1,1334.26 1092.61,1334.26 1093.13,1187.34 1093.64,1357.9 1094.16,1352.84 
  1094.67,1347.77 1095.19,1315.68 1095.71,1293.73 1096.22,1337.64 1096.74,1330.88 1097.25,1341.01 1097.77,1221.11 1098.28,1295.42 1098.8,1381.54 1099.32,1388.3 
  1099.83,1243.07 1100.35,1339.33 1100.86,1337.64 1101.38,1359.59 1101.9,1395.05 1102.41,1417.01 1102.93,1319.06 1103.44,1389.99 1103.96,1373.1 1104.47,1349.46 
  1104.99,1351.15 1105.51,1234.62 1106.02,1312.31 1106.54,1327.5 1107.05,1352.84 1107.57,1395.05 1108.09,1214.36 1108.6,1351.15 1109.12,1219.43 1109.63,1285.29 
  1110.15,1293.73 1110.66,1351.15 1111.18,1276.84 1111.7,1366.35 1112.21,1292.04 1112.73,1324.13 1113.24,1428.83 1113.76,1259.96 1114.28,1275.15 1114.79,1270.09 
  1115.31,1320.75 1115.82,1327.5 1116.34,1325.82 1116.85,1342.7 1117.37,1280.22 1117.89,1384.92 1118.4,1325.82 1118.92,1357.9 1119.43,1417.01 1119.95,1315.68 
  1120.47,1290.35 1120.98,1266.71 1121.5,1361.28 1122.01,1335.95 1122.53,1276.84 1123.04,1286.98 1123.56,1239.69 1124.08,1229.56 1124.59,1303.86 1125.11,1244.76 
  1125.62,1302.17 1126.14,1359.59 1126.66,1346.08 1127.17,1361.28 1127.69,1275.15 1128.2,1295.42 1128.72,1430.52 1129.23,1312.31 1129.75,1280.22 1130.27,1216.05 
  1130.78,1320.75 1131.3,1258.27 1131.81,1381.54 1132.33,1256.58 1132.85,1281.91 1133.36,1371.41 1133.88,1332.57 1134.39,1317.37 1134.91,1386.61 1135.42,1366.35 
  1135.94,1371.41 1136.46,1339.33 1136.97,1366.35 1137.49,1373.1 1138,1335.95 1138.52,1361.28 1139.04,1307.24 1139.55,1339.33 1140.07,1207.6 1140.58,1335.95 
  1141.1,1330.88 1141.61,1359.59 1142.13,1244.76 1142.65,1329.19 1143.16,1422.07 1143.68,1324.13 1144.19,1315.68 1144.71,1406.87 1145.23,1317.37 1145.74,1307.24 
  1146.26,1389.99 1146.77,1231.25 1147.29,1378.17 1147.8,1359.59 1148.32,1349.46 1148.84,1393.37 1149.35,1354.52 1149.87,1224.49 1150.38,1283.6 1150.9,1388.3 
  1151.41,1285.29 1151.93,1303.86 1152.45,1395.05 1152.96,1295.42 1153.48,1381.54 1153.99,1265.02 1154.51,1376.48 1155.03,1371.41 1155.54,1342.7 1156.06,1388.3 
  1156.57,1297.11 1157.09,1261.64 1157.6,1315.68 1158.12,1374.79 1158.64,1423.76 1159.15,1357.9 1159.67,1347.77 1160.18,1308.93 1160.7,1319.06 1161.22,1373.1 
  1161.73,1366.35 1162.25,1238 1162.76,1379.86 1163.28,1373.1 1163.79,1298.8 1164.31,1313.99 1164.83,1354.52 1165.34,1307.24 1165.86,1369.72 1166.37,1381.54 
  1166.89,1307.24 1167.41,1373.1 1167.92,1342.7 1168.44,1366.35 1168.95,1313.99 1169.47,1417.01 1169.98,1305.55 1170.5,1192.41 1171.02,1376.48 1171.53,1395.05 
  1172.05,1403.5 1172.56,1403.5 1173.08,1276.84 1173.6,1374.79 1174.11,1368.03 1174.63,1405.19 1175.14,1310.62 1175.66,1381.54 1176.17,1335.95 1176.69,1357.9 
  1177.21,1373.1 1177.72,1251.51 1178.24,1389.99 1178.75,1366.35 1179.27,1388.3 1179.79,1369.72 1180.3,1373.1 1180.82,955.984 1181.33,1342.7 1181.85,1401.81 
  1182.36,1275.15 1182.88,1288.66 1183.4,1366.35 1183.91,1368.03 1184.43,1232.94 1184.94,1312.31 1185.46,1308.93 1185.98,1339.33 1186.49,1388.3 1187.01,1303.86 
  1187.52,1329.19 1188.04,1381.54 1188.55,1298.8 1189.07,1324.13 1189.59,1312.31 1190.1,1359.59 1190.62,1396.74 1191.13,1298.8 1191.65,1270.09 1192.17,1315.68 
  1192.68,1265.02 1193.2,1359.59 1193.71,1298.8 1194.23,1401.81 1194.74,1332.57 1195.26,1342.7 1195.78,1315.68 1196.29,1381.54 1196.81,1364.66 1197.32,1423.76 
  1197.84,1373.1 1198.36,1308.93 1198.87,1366.35 1199.39,1341.01 1199.9,1335.95 1200.42,1433.89 1200.93,1148.5 1201.45,1395.05 1201.97,1288.66 1202.48,1415.32 
  1203,1357.9 1203.51,1371.41 1204.03,1307.24 1204.54,1205.92 1205.06,1351.15 1205.58,1373.1 1206.09,1395.05 1206.61,1303.86 1207.12,1410.25 1207.64,1216.05 
  1208.16,1386.61 1208.67,1401.81 1209.19,1249.82 1209.7,1395.05 1210.22,1401.81 1210.73,1430.52 1211.25,1337.64 1211.77,1335.95 1212.28,1423.76 1212.8,1378.17 
  1213.31,1381.54 1213.83,1381.54 1214.35,1124.86 1214.86,1401.81 1215.38,1319.06 1215.89,1337.64 1216.41,1254.89 1216.92,1356.21 1217.44,1401.81 1217.96,1303.86 
  1218.47,1227.87 1218.99,1395.05 1219.5,1393.37 1220.02,1389.99 1220.54,1423.76 1221.05,1327.5 1221.57,1403.5 1222.08,1430.52 1222.6,1381.54 1223.11,1373.1 
  1223.63,1374.79 1224.15,1373.1 1224.66,1393.37 1225.18,1430.52 1225.69,1413.63 1226.21,1401.81 1226.73,1417.01 1227.24,1381.54 1227.76,1312.31 1228.27,1378.17 
  1228.79,1389.99 1229.3,1346.08 1229.82,1401.81 1230.34,1393.37 1230.85,1381.54 1231.37,1359.59 1231.88,1163.7 1232.4,1329.19 1232.92,1298.8 1233.43,1393.37 
  1233.95,1410.25 1234.46,1273.47 1234.98,1410.25 1235.49,1268.4 1236.01,1410.25 1236.53,1334.26 1237.04,1395.05 1237.56,1388.3 1238.07,1393.37 1238.59,1410.25 
  1239.11,1376.48 1239.62,1381.54 1240.14,1393.37 1240.65,1256.58 1241.17,1389.99 1241.68,1423.76 1242.2,1410.25 1242.72,1401.81 1243.23,1415.32 1243.75,1389.99 
  1244.26,1335.95 1244.78,1376.48 1245.3,1346.08 1245.81,1341.01 1246.33,1401.81 1246.84,1337.64 1247.36,1401.81 1247.87,1384.92 1248.39,1386.61 1248.91,1362.97 
  1249.42,1386.61 1249.94,1403.5 1250.45,1337.64 1250.97,1141.74 1251.48,1335.95 1252,1368.03 1252.52,1305.55 1253.03,1400.12 1253.55,1398.43 1254.06,1373.1 
  1254.58,1393.37 1255.1,1415.32 1255.61,1303.86 1256.13,1379.86 1256.64,1376.48 1257.16,1327.5 1257.67,1423.76 1258.19,1376.48 1258.71,1359.59 1259.22,1401.81 
  1259.74,1373.1 1260.25,1307.24 1260.77,1410.25 1261.29,1410.25 1261.8,1376.48 1262.32,1395.05 1262.83,1381.54 1263.35,1401.81 1263.86,1335.95 1264.38,1384.92 
  1264.9,1415.32 1265.41,1376.48 1265.93,1401.81 1266.44,1410.25 1266.96,1401.81 1267.48,1423.76 1267.99,1307.24 1268.51,1357.9 1269.02,1384.92 1269.54,1393.37 
  1270.05,1386.61 1270.57,1401.81 1271.09,1327.5 1271.6,1403.5 1272.12,1366.35 1272.63,1361.28 1273.15,1423.76 1273.67,1369.72 1274.18,1410.25 1274.7,1319.06 
  1275.21,1388.3 1275.73,1401.81 1276.24,1374.79 1276.76,1319.06 1277.28,1423.76 1277.79,1401.81 1278.31,1410.25 1278.82,1259.96 1279.34,1386.61 1279.86,1437.27 
  1280.37,1302.17 1280.89,1308.93 1281.4,1329.19 1281.92,1401.81 1282.43,1319.06 1282.95,1376.48 1283.47,1401.81 1283.98,1415.32 1284.5,1408.56 1285.01,1415.32 
  1285.53,1395.05 1286.05,1403.5 1286.56,1401.81 1287.08,1373.1 1287.59,1396.74 1288.11,1384.92 1288.62,1408.56 1289.14,1395.05 1289.66,1403.5 1290.17,1401.81 
  1290.69,1393.37 1291.2,1401.81 1291.72,1324.13 1292.24,1341.01 1292.75,1423.76 1293.27,1401.81 1293.78,1423.76 1294.3,1405.19 1294.81,1410.25 1295.33,1381.54 
  1295.85,1369.72 1296.36,1393.37 1296.88,1395.05 1297.39,1401.81 1297.91,1415.32 1298.43,1297.11 1298.94,1389.99 1299.46,1401.81 1299.97,1410.25 1300.49,1386.61 
  1301,1423.76 1301.52,1312.31 1302.04,1401.81 1302.55,1378.17 1303.07,1423.76 1303.58,1366.35 1304.1,1405.19 1304.61,1395.05 1305.13,1384.92 1305.65,1417.01 
  1306.16,1423.76 1306.68,1415.32 1307.19,1388.3 1307.71,1330.88 1308.23,1401.81 1308.74,1393.37 1309.26,1401.81 1309.77,1373.1 1310.29,1437.27 1310.8,1401.81 
  1311.32,1384.92 1311.84,1398.43 1312.35,1337.64 1312.87,1395.05 1313.38,1389.99 1313.9,1396.74 1314.42,1393.37 1314.93,1395.05 1315.45,1395.05 1315.96,1405.19 
  1316.48,1401.81 1316.99,1415.32 1317.51,1410.25 1318.03,1415.32 1318.54,977.937 1319.06,1423.76 1319.57,1395.05 1320.09,1381.54 1320.61,1393.37 1321.12,1410.25 
  1321.64,1410.25 1322.15,1327.5 1322.67,1401.81 1323.18,1423.76 1323.7,1167.08 1324.22,1335.95 1324.73,1315.68 1325.25,1406.87 1325.76,1430.52 1326.28,1381.54 
  1326.8,1401.81 1327.31,1359.59 1327.83,1410.25 1328.34,1384.92 1328.86,1410.25 1329.37,1423.76 1329.89,1410.25 1330.41,1410.25 1330.92,1371.41 1331.44,1423.76 
  1331.95,1410.25 1332.47,1395.05 1332.99,1410.25 1333.5,1241.38 1334.02,1398.43 1334.53,1423.76 1335.05,1415.32 1335.56,1401.81 1336.08,1410.25 1336.6,1393.37 
  1337.11,1410.25 1337.63,1425.45 1338.14,1393.37 1338.66,1401.81 1339.18,1423.76 1339.69,1401.81 1340.21,1401.81 1340.72,1410.25 1341.24,1423.76 1341.75,1401.81 
  1342.27,1415.32 1342.79,1410.25 1343.3,1410.25 1343.82,1423.76 1344.33,1410.25 1344.85,1423.76 1345.37,1395.05 1345.88,1423.76 1346.4,1410.25 1346.91,1423.76 
  1347.43,1408.56 1347.94,1410.25 1348.46,1423.76 1348.98,1410.25 1349.49,1410.25 1350.01,1417.01 1350.52,1401.81 1351.04,1389.99 1351.56,1359.59 1352.07,1415.32 
  1352.59,1423.76 1353.1,1423.76 1353.62,1423.76 1354.13,1430.52 1354.65,1423.76 1355.17,1401.81 1355.68,1401.81 1356.2,1395.05 1356.71,1423.76 1357.23,1423.76 
  1357.74,1423.76 1358.26,1391.68 1358.78,1393.37 1359.29,1423.76 1359.81,1406.87 1360.32,1403.5 1360.84,1430.52 1361.36,1359.59 1361.87,1415.32 1362.39,1408.56 
  1362.9,1410.25 1363.42,1423.76 1363.93,1423.76 1364.45,1410.25 1364.97,1410.25 1365.48,1395.05 1366,1423.76 1366.51,1430.52 1367.03,1366.35 1367.55,1418.7 
  1368.06,1423.76 1368.58,1423.76 1369.09,1410.25 1369.61,1410.25 1370.12,1423.76 1370.64,1384.92 1371.16,1401.81 1371.67,1411.94 1372.19,1401.81 1372.7,1410.25 
  1373.22,1410.25 1373.74,1410.25 1374.25,1423.76 1374.77,1349.46 1375.28,1401.81 1375.8,1410.25 1376.31,1430.52 1376.83,1430.52 1377.35,1423.76 1377.86,1395.05 
  1378.38,1411.94 1378.89,1410.25 1379.41,1423.76 1379.93,1410.25 1380.44,1410.25 1380.96,1415.32 1381.47,1423.76 1381.99,1417.01 1382.5,1415.32 1383.02,1430.52 
  1383.54,1410.25 1384.05,1422.07 1384.57,1415.32 1385.08,1408.56 1385.6,1418.7 1386.12,1415.32 1386.63,1410.25 1387.15,1359.59 1387.66,1423.76 1388.18,1410.25 
  1388.69,1417.01 1389.21,1430.52 1389.73,1410.25 1390.24,1423.76 1390.76,1425.45 1391.27,1401.81 1391.79,1395.05 1392.31,1401.81 1392.82,1410.25 1393.34,1368.03 
  1393.85,1430.52 1394.37,1430.52 1394.88,1410.25 1395.4,1423.76 1395.92,1423.76 1396.43,1401.81 1396.95,1410.25 1397.46,1423.76 1397.98,1422.07 1398.5,1423.76 
  1399.01,1423.76 1399.53,1401.81 1400.04,1418.7 1400.56,1423.76 1401.07,1415.32 1401.59,1401.81 1402.11,1401.81 1402.62,1415.32 1403.14,1408.56 1403.65,1423.76 
  1404.17,1410.25 1404.69,1376.48 1405.2,1410.25 1405.72,1423.76 1406.23,1437.27 1406.75,1410.25 1407.26,1423.76 1407.78,1423.76 1408.3,1430.52 1408.81,1430.52 
  1409.33,1423.76 1409.84,1324.13 1410.36,1422.07 1410.87,1423.76 1411.39,1423.76 1411.91,1423.76 1412.42,1410.25 1412.94,1430.52 1413.45,1430.52 1413.97,1388.3 
  1414.49,1423.76 1415,1423.76 1415.52,1423.76 1416.03,1430.52 1416.55,1430.52 1417.06,1437.27 1417.58,1423.76 1418.1,1423.76 1418.61,1425.45 1419.13,1430.52 
  1419.64,1417.01 1420.16,1408.56 1420.68,1423.76 1421.19,1430.52 1421.71,1401.81 1422.22,1423.76 1422.74,1415.32 1423.25,1422.07 1423.77,1415.32 1424.29,1423.76 
  1424.8,1415.32 1425.32,1437.27 1425.83,1430.52 1426.35,1417.01 1426.87,1437.27 1427.38,1430.52 1427.9,1430.52 1428.41,1417.01 1428.93,1425.45 1429.44,1413.63 
  1429.96,1422.07 1430.48,1410.25 1430.99,1417.01 1431.51,1423.76 1432.02,1415.32 1432.54,1423.76 1433.06,1403.5 1433.57,1430.52 1434.09,1415.32 1434.6,1423.76 
  1435.12,1430.52 1435.63,1430.52 1436.15,1413.63 1436.67,1430.52 1437.18,1423.76 1437.7,1391.68 1438.21,1430.52 1438.73,1423.76 1439.25,1417.01 1439.76,1410.25 
  1440.28,1423.76 1440.79,1415.32 1441.31,1398.43 1441.82,1379.86 1442.34,1423.76 1442.86,1430.52 1443.37,1359.59 1443.89,1411.94 1444.4,1386.61 1444.92,1437.27 
  1445.44,1418.7 1445.95,1430.52 1446.47,1398.43 1446.98,1423.76 1447.5,1437.27 1448.01,1415.32 1448.53,1423.76 1449.05,1430.52 1449.56,1415.32 1450.08,1417.01 
  1450.59,1430.52 1451.11,1417.01 1451.63,1423.76 1452.14,1417.01 1452.66,1430.52 1453.17,1430.52 1453.69,1437.27 1454.2,1422.07 1454.72,1395.05 1455.24,1417.01 
  1455.75,1430.52 1456.27,1430.52 1456.78,1430.52 1457.3,1430.52 1457.81,1423.76 1458.33,1422.07 1458.85,1398.43 1459.36,1430.52 1459.88,1430.52 1460.39,1423.76 
  1460.91,1430.52 1461.43,1430.52 1461.94,1430.52 1462.46,1437.27 1462.97,1437.27 1463.49,1423.76 1464,1395.05 1464.52,1430.52 1465.04,1422.07 1465.55,1428.83 
  1466.07,1417.01 1466.58,1430.52 1467.1,1437.27 1467.62,1422.07 1468.13,1437.27 1468.65,1437.27 1469.16,1423.76 1469.68,1423.76 1470.19,1415.32 1470.71,1430.52 
  1471.23,1430.52 1471.74,1437.27 1472.26,1410.25 1472.77,1437.27 1473.29,1356.21 1473.81,1423.76 1474.32,1430.52 1474.84,1410.25 1475.35,1430.52 1475.87,1423.76 
  1476.38,1437.27 1476.9,1395.05 1477.42,1410.25 1477.93,1430.52 1478.45,1430.52 1478.96,1437.27 1479.48,1408.56 1480,1401.81 1480.51,1418.7 1481.03,1430.52 
  1481.54,1430.52 1482.06,1422.07 1482.57,1356.21 1483.09,1425.45 1483.61,1430.52 1484.12,1422.07 1484.64,1391.68 1485.15,1423.76 1485.67,1430.52 1486.19,1418.7 
  1486.7,1430.52 1487.22,1418.7 1487.73,1430.52 1488.25,1410.25 1488.76,1437.27 1489.28,1430.52 1489.8,1415.32 1490.31,1381.54 1490.83,1378.17 1491.34,1437.27 
  1491.86,1437.27 1492.38,1423.76 1492.89,1418.7 1493.41,1430.52 1493.92,1413.63 1494.44,1430.52 1494.95,1430.52 1495.47,1401.81 1495.99,1418.7 1496.5,1430.52 
  1497.02,1437.27 1497.53,1405.19 1498.05,1418.7 1498.57,1430.52 1499.08,1430.52 1499.6,1430.52 1500.11,1383.23 1500.63,1428.83 1501.14,1418.7 1501.66,1410.25 
  1502.18,1418.7 1502.69,1437.27 1503.21,1430.52 1503.72,1437.27 1504.24,1401.81 1504.76,1430.52 1505.27,1430.52 1505.79,1437.27 1506.3,1418.7 1506.82,1423.76 
  1507.33,1430.52 1507.85,1437.27 1508.37,1430.52 1508.88,1430.52 1509.4,1423.76 1509.91,1395.05 1510.43,1430.52 1510.94,1437.27 1511.46,1422.07 1511.98,1395.05 
  1512.49,1417.01 1513.01,1388.3 1513.52,1430.52 1514.04,1395.05 1514.56,1430.52 1515.07,1406.87 1515.59,1430.52 1516.1,1430.52 1516.62,1430.52 1517.13,1430.52 
  1517.65,1437.27 1518.17,1430.52 1518.68,1430.52 1519.2,1422.07 1519.71,1430.52 1520.23,1430.52 1520.75,1437.27 1521.26,1430.52 1521.78,1430.52 1522.29,1437.27 
  1522.81,1430.52 1523.32,1430.52 1523.84,1430.52 1524.36,1420.38 1524.87,1423.76 1525.39,1373.1 1525.9,1437.27 1526.42,1437.27 1526.94,1437.27 1527.45,1437.27 
  1527.97,1430.52 1528.48,1430.52 1529,1437.27 1529.51,1425.45 1530.03,1430.52 1530.55,1418.7 1531.06,1406.87 1531.58,1430.52 1532.09,1417.01 1532.61,1371.41 
  1533.13,1423.76 1533.64,1430.52 1534.16,1430.52 1534.67,1401.81 1535.19,1437.27 1535.7,1428.83 1536.22,1406.87 1536.74,1411.94 1537.25,1418.7 1537.77,1437.27 
  1538.28,1430.52 1538.8,1423.76 1539.32,1430.52 1539.83,1430.52 1540.35,1430.52 1540.86,1420.38 1541.38,1437.27 1541.89,1430.52 1542.41,1430.52 1542.93,1430.52 
  1543.44,1430.52 1543.96,1383.23 1544.47,1430.52 1544.99,1417.01 1545.51,1430.52 1546.02,1423.76 1546.54,1430.52 1547.05,1408.56 1547.57,1430.52 1548.08,1437.27 
  1548.6,1430.52 1549.12,1437.27 1549.63,1430.52 1550.15,1430.52 1550.66,1430.52 1551.18,1417.01 1551.7,1430.52 1552.21,1417.01 1552.73,1374.79 1553.24,1423.76 
  1553.76,1430.52 1554.27,1437.27 1554.79,1423.76 1555.31,1430.52 1555.82,1423.76 1556.34,1430.52 1556.85,1381.54 1557.37,1422.07 1557.89,1430.52 1558.4,1437.27 
  1558.92,1422.07 1559.43,1430.52 1559.95,1430.52 1560.46,1430.52 1560.98,1430.52 1561.5,1430.52 1562.01,1430.52 1562.53,1430.52 1563.04,1430.52 1563.56,1430.52 
  1564.07,1430.52 1564.59,1430.52 1565.11,1430.52 1565.62,1422.07 1566.14,1437.27 1566.65,1413.63 1567.17,1417.01 1567.69,1430.52 1568.2,1422.07 1568.72,1430.52 
  1569.23,1430.52 1569.75,1430.52 1570.26,1422.07 1570.78,1430.52 1571.3,1430.52 1571.81,1430.52 1572.33,1430.52 1572.84,1437.27 1573.36,1408.56 1573.88,1415.32 
  1574.39,1400.12 1574.91,1422.07 1575.42,1430.52 1575.94,1430.52 1576.45,1430.52 1576.97,1384.92 1577.49,1423.76 1578,1423.76 1578.52,1423.76 1579.03,1423.76 
  1579.55,1437.27 1580.07,1437.27 1580.58,1400.12 1581.1,1430.52 1581.61,1423.76 1582.13,1430.52 1582.64,1437.27 1583.16,1430.52 1583.68,1384.92 1584.19,1354.52 
  1584.71,1395.05 1585.22,1389.99 1585.74,1430.52 1586.26,1413.63 1586.77,1437.27 1587.29,1395.05 1587.8,1437.27 1588.32,1430.52 1588.83,1395.05 1589.35,1395.05 
  1589.87,1430.52 1590.38,1422.07 1590.9,1437.27 1591.41,1430.52 1591.93,1437.27 1592.45,1430.52 1592.96,1437.27 1593.48,1437.27 1593.99,1430.52 1594.51,1430.52 
  1595.02,1415.32 1595.54,1430.52 1596.06,1430.52 1596.57,1423.76 1597.09,1408.56 1597.6,1430.52 1598.12,1422.07 1598.64,1437.27 1599.15,1430.52 1599.67,1423.76 
  1600.18,1437.27 1600.7,1437.27 1601.21,1430.52 1601.73,1430.52 1602.25,1437.27 1602.76,1437.27 1603.28,1437.27 1603.79,1430.52 1604.31,1437.27 1604.83,1356.21 
  1605.34,1430.52 1605.86,1422.07 1606.37,1430.52 1606.89,1437.27 1607.4,1428.83 1607.92,1430.52 1608.44,1430.52 1608.95,1430.52 1609.47,1430.52 1609.98,1430.52 
  1610.5,1430.52 1611.02,1437.27 1611.53,1437.27 1612.05,1437.27 1612.56,1430.52 1613.08,1395.05 1613.59,1437.27 1614.11,1422.07 1614.63,1417.01 1615.14,1415.32 
  1615.66,1430.52 1616.17,1410.25 1616.69,1423.76 1617.2,1401.81 1617.72,1437.27 1618.24,1437.27 1618.75,1422.07 1619.27,1430.52 1619.78,1411.94 1620.3,1430.52 
  1620.82,1430.52 1621.33,1437.27 1621.85,1437.27 1622.36,1430.52 1622.88,1430.52 1623.39,1417.01 1623.91,1415.32 1624.43,1430.52 1624.94,1430.52 1625.46,1401.81 
  1625.97,1422.07 1626.49,1423.76 1627.01,1430.52 1627.52,1422.07 1628.04,1437.27 1628.55,1430.52 1629.07,1423.76 1629.58,1437.27 1630.1,1417.01 1630.62,1437.27 
  1631.13,1430.52 1631.65,1430.52 1632.16,1430.52 1632.68,1423.76 1633.2,1430.52 1633.71,1417.01 1634.23,1430.52 1634.74,1418.7 1635.26,1422.07 1635.77,1423.76 
  1636.29,1430.52 1636.81,1415.32 1637.32,1437.27 1637.84,1422.07 1638.35,1155.25 1638.87,1422.07 1639.39,1430.52 1639.9,1428.83 1640.42,1430.52 1640.93,1430.52 
  1641.45,1428.83 1641.96,1417.01 1642.48,1430.52 1643,1395.05 1643.51,1430.52 1644.03,1415.32 1644.54,1430.52 1645.06,1437.27 1645.58,1422.07 1646.09,1430.52 
  1646.61,1384.92 1647.12,1430.52 1647.64,1430.52 1648.15,1430.52 1648.67,1437.27 1649.19,1430.52 1649.7,1437.27 1650.22,1437.27 1650.73,1437.27 1651.25,1437.27 
  1651.77,1401.81 1652.28,1430.52 1652.8,1430.52 1653.31,1423.76 1653.83,1430.52 1654.34,1422.07 1654.86,1430.52 1655.38,1430.52 1655.89,1437.27 1656.41,1430.52 
  1656.92,1437.27 1657.44,1437.27 1657.96,1389.99 1658.47,1428.83 1658.99,1430.52 1659.5,1430.52 1660.02,1437.27 1660.53,1437.27 1661.05,1437.27 1661.57,1430.52 
  1662.08,1437.27 1662.6,1437.27 1663.11,1381.54 1663.63,1437.27 1664.15,1437.27 1664.66,1437.27 1665.18,1430.52 1665.69,1430.52 1666.21,1425.45 1666.72,1437.27 
  1667.24,1430.52 1667.76,1430.52 1668.27,1395.05 1668.79,1437.27 1669.3,1430.52 1669.82,1430.52 1670.33,1423.76 1670.85,1430.52 1671.37,1437.27 1671.88,1430.52 
  1672.4,1418.7 1672.91,1437.27 1673.43,1437.27 1673.95,1437.27 1674.46,1430.52 1674.98,1430.52 1675.49,1422.07 1676.01,1430.52 1676.52,1425.45 1677.04,1437.27 
  1677.56,1430.52 1678.07,1422.07 1678.59,1423.76 1679.1,1423.76 1679.62,1437.27 1680.14,1430.52 1680.65,1437.27 1681.17,1437.27 1681.68,1437.27 1682.2,1437.27 
  1682.71,1430.52 1683.23,1437.27 1683.75,1425.45 1684.26,1418.7 1684.78,1437.27 1685.29,1437.27 1685.81,1430.52 1686.33,1425.45 1686.84,1430.52 1687.36,1430.52 
  1687.87,1430.52 1688.39,1401.81 1688.9,1430.52 1689.42,1388.3 1689.94,1430.52 1690.45,1437.27 1690.97,1371.41 1691.48,1437.27 1692,1437.27 1692.52,1430.52 
  1693.03,1428.83 1693.55,1423.76 1694.06,1423.76 1694.58,1430.52 1695.09,1437.27 1695.61,1437.27 1696.13,1430.52 1696.64,1415.32 1697.16,1430.52 1697.67,1437.27 
  1698.19,1437.27 1698.71,1423.76 1699.22,1423.76 1699.74,1437.27 1700.25,1430.52 1700.77,1430.52 1701.28,1437.27 1701.8,1415.32 1702.32,1428.83 1702.83,1437.27 
  1703.35,1428.83 1703.86,1437.27 1704.38,1430.52 1704.9,1437.27 1705.41,1430.52 1705.93,1437.27 1706.44,1395.05 1706.96,1430.52 1707.47,1437.27 1707.99,1437.27 
  1708.51,1430.52 1709.02,1437.27 1709.54,1430.52 1710.05,1430.52 1710.57,1430.52 1711.09,1423.76 1711.6,1430.52 1712.12,1430.52 1712.63,1423.76 1713.15,1417.01 
  1713.66,1430.52 1714.18,1437.27 1714.7,1437.27 1715.21,1430.52 1715.73,1437.27 1716.24,1422.07 1716.76,1437.27 1717.27,1401.81 1717.79,1437.27 1718.31,1430.52 
  1718.82,1430.52 1719.34,1430.52 1719.85,1437.27 1720.37,1437.27 1720.89,1430.52 1721.4,1430.52 1721.92,1430.52 1722.43,1430.52 1722.95,1430.52 1723.46,1430.52 
  1723.98,1437.27 1724.5,1422.07 1725.01,1437.27 1725.53,1437.27 1726.04,1422.07 1726.56,1430.52 1727.08,1430.52 1727.59,1437.27 1728.11,1413.63 1728.62,1430.52 
  1729.14,1437.27 1729.65,1437.27 1730.17,1430.52 1730.69,1437.27 1731.2,1423.76 1731.72,1430.52 1732.23,1437.27 1732.75,1430.52 1733.27,1430.52 1733.78,1437.27 
  1734.3,1422.07 1734.81,1437.27 1735.33,1423.76 1735.84,1401.81 1736.36,1422.07 1736.88,1430.52 1737.39,1437.27 1737.91,1437.27 1738.42,1437.27 1738.94,1437.27 
  1739.46,1430.52 1739.97,1437.27 1740.49,1430.52 1741,1234.62 1741.52,1437.27 1742.03,1362.97 1742.55,1437.27 1743.07,1430.52 1743.58,1437.27 1744.1,1422.07 
  1744.61,1437.27 1745.13,1437.27 1745.65,1389.99 1746.16,1430.52 1746.68,1430.52 1747.19,1430.52 1747.71,1430.52 1748.22,1437.27 1748.74,1430.52 1749.26,1430.52 
  1749.77,1430.52 1750.29,1437.27 1750.8,1437.27 1751.32,1437.27 1751.84,1430.52 1752.35,1437.27 1752.87,1430.52 1753.38,1437.27 1753.9,1401.81 1754.41,1430.52 
  1754.93,1437.27 1755.45,1437.27 1755.96,1425.45 1756.48,1422.07 1756.99,1430.52 1757.51,1430.52 1758.03,1417.01 1758.54,1430.52 1759.06,1430.52 1759.57,1430.52 
  1760.09,1437.27 1760.6,1428.83 1761.12,1425.45 1761.64,1430.52 1762.15,1430.52 1762.67,1430.52 1763.18,1437.27 1763.7,1430.52 1764.22,1430.52 1764.73,1430.52 
  1765.25,1430.52 1765.76,1430.52 1766.28,1417.01 1766.79,1423.76 1767.31,1430.52 1767.83,1430.52 1768.34,1430.52 1768.86,1423.76 1769.37,1423.76 1769.89,1437.27 
  1770.4,1437.27 1770.92,1430.52 1771.44,1430.52 1771.95,1430.52 1772.47,1437.27 1772.98,1430.52 1773.5,1430.52 1774.02,1425.45 1774.53,1430.52 1775.05,1430.52 
  1775.56,1143.43 1776.08,1430.52 1776.59,1437.27 1777.11,1418.7 1777.63,1430.52 1778.14,1430.52 1778.66,1430.52 1779.17,1430.52 1779.69,1430.52 1780.21,1406.87 
  1780.72,1430.52 1781.24,1437.27 1781.75,1418.7 1782.27,1384.92 1782.78,1391.68 1783.3,1344.39 1783.82,1349.46 1784.33,1418.7 1784.85,1322.44 1785.36,1430.52 
  1785.88,1430.52 1786.4,1430.52 1786.91,1430.52 1787.43,1430.52 1787.94,1430.52 1788.46,1430.52 1788.97,1422.07 1789.49,1437.27 1790.01,1423.76 1790.52,1417.01 
  1791.04,1430.52 1791.55,1437.27 1792.07,1430.52 1792.59,1430.52 1793.1,1430.52 1793.62,1422.07 1794.13,1437.27 1794.65,1417.01 1795.16,1437.27 1795.68,1430.52 
  1796.2,1430.52 1796.71,1430.52 1797.23,1430.52 1797.74,1430.52 1798.26,1430.52 1798.78,1430.52 1799.29,1430.52 1799.81,1430.52 1800.32,1423.76 1800.84,1430.52 
  1801.35,1422.07 1801.87,1430.52 1802.39,1415.32 1802.9,1423.76 1803.42,1422.07 1803.93,1430.52 1804.45,1430.52 1804.97,1430.52 1805.48,1359.59 1806,1430.52 
  1806.51,1430.52 1807.03,1430.52 1807.54,1430.52 1808.06,1430.52 1808.58,1430.52 1809.09,1430.52 1809.61,1430.52 1810.12,1437.27 1810.64,1430.52 1811.16,1430.52 
  1811.67,1430.52 1812.19,1423.76 1812.7,1422.07 1813.22,1430.52 1813.73,1430.52 1814.25,1430.52 1814.77,1428.83 1815.28,1430.52 1815.8,1437.27 1816.31,1430.52 
  1816.83,1437.27 1817.35,1430.52 1817.86,1428.83 1818.38,1437.27 1818.89,1430.52 1819.41,1437.27 1819.92,1417.01 1820.44,1430.52 1820.96,1401.81 1821.47,1430.52 
  1821.99,1422.07 1822.5,1430.52 1823.02,1437.27 1823.53,1430.52 1824.05,1437.27 1824.57,1422.07 1825.08,1437.27 1825.6,1437.27 1826.11,1430.52 1826.63,1430.52 
  1827.15,1422.07 1827.66,1430.52 1828.18,1437.27 1828.69,1430.52 1829.21,1430.52 1829.72,1395.05 1830.24,1430.52 1830.76,1430.52 1831.27,1437.27 1831.79,1430.52 
  1832.3,1437.27 1832.82,1437.27 1833.34,1430.52 1833.85,1422.07 1834.37,1437.27 1834.88,1422.07 1835.4,1430.52 1835.91,1430.52 1836.43,1437.27 1836.95,1430.52 
  1837.46,1437.27 1837.98,1430.52 1838.49,1437.27 1839.01,1422.07 1839.53,1430.52 1840.04,1437.27 1840.56,1430.52 1841.07,1428.83 1841.59,1430.52 1842.1,1428.83 
  1842.62,1437.27 1843.14,1430.52 1843.65,1430.52 1844.17,1430.52 1844.68,1430.52 1845.2,1430.52 1845.72,1437.27 1846.23,1395.05 1846.75,1430.52 1847.26,1430.52 
  1847.78,1437.27 1848.29,1430.52 1848.81,1437.27 1849.33,1430.52 1849.84,1437.27 1850.36,1437.27 1850.87,1437.27 1851.39,1437.27 1851.91,1437.27 1852.42,1437.27 
  1852.94,1437.27 1853.45,1437.27 1853.97,1417.01 1854.48,1430.52 1855,1428.83 1855.52,1430.52 1856.03,1430.52 1856.55,1430.52 1857.06,1437.27 1857.58,1437.27 
  1858.1,1430.52 1858.61,1437.27 1859.13,1437.27 1859.64,1437.27 1860.16,1430.52 1860.67,1437.27 1861.19,1430.52 1861.71,1437.27 1862.22,1430.52 1862.74,1422.07 
  1863.25,1423.76 1863.77,1437.27 1864.29,1430.52 1864.8,1437.27 1865.32,1430.52 1865.83,1430.52 1866.35,1430.52 1866.86,1437.27 1867.38,1437.27 1867.9,1422.07 
  1868.41,1430.52 1868.93,1437.27 1869.44,1437.27 1869.96,1430.52 1870.48,1430.52 1870.99,1430.52 1871.51,1437.27 1872.02,1422.07 1872.54,1430.52 1873.05,1430.52 
  1873.57,1437.27 1874.09,1430.52 1874.6,1437.27 1875.12,1437.27 1875.63,1437.27 1876.15,1437.27 1876.66,1437.27 1877.18,1430.52 1877.7,1437.27 1878.21,1422.07 
  1878.73,1437.27 1879.24,1430.52 1879.76,1430.52 1880.28,1428.83 1880.79,1437.27 1881.31,1437.27 1881.82,1437.27 1882.34,1437.27 1882.85,1437.27 1883.37,1010.02 
  1883.89,1437.27 1884.4,1437.27 1884.92,1430.52 1885.43,1423.76 1885.95,1395.05 1886.47,1413.63 1886.98,1425.45 1887.5,1437.27 1888.01,1430.52 1888.53,1437.27 
  1889.04,1430.52 1889.56,1437.27 1890.08,1430.52 1890.59,1418.7 1891.11,1417.01 1891.62,1437.27 1892.14,1437.27 1892.66,1425.45 1893.17,1437.27 1893.69,1425.45 
  1894.2,1437.27 1894.72,1437.27 1895.23,1437.27 1895.75,1430.52 1896.27,1425.45 1896.78,1437.27 1897.3,1437.27 1897.81,1437.27 1898.33,1430.52 1898.85,1388.3 
  1899.36,1430.52 1899.88,1430.52 1900.39,1430.52 1900.91,1437.27 1901.42,1437.27 1901.94,1423.76 1902.46,1430.52 1902.97,1430.52 1903.49,1362.97 1904,1403.5 
  1904.52,1437.27 1905.04,1430.52 1905.55,1430.52 1906.07,1430.52 1906.58,1437.27 1907.1,1437.27 1907.61,1417.01 1908.13,1437.27 1908.65,1437.27 1909.16,1430.52 
  1909.68,1430.52 1910.19,1437.27 1910.71,1430.52 1911.23,1430.52 1911.74,1430.52 1912.26,1430.52 1912.77,1430.52 1913.29,1417.01 1913.8,1423.76 1914.32,1430.52 
  1914.84,1437.27 1915.35,1425.45 1915.87,1430.52 1916.38,1430.52 1916.9,1423.76 1917.42,1430.52 1917.93,1430.52 1918.45,1437.27 1918.96,1430.52 1919.48,1437.27 
  1919.99,1430.52 1920.51,1430.52 1921.03,1430.52 1921.54,1430.52 1922.06,1430.52 1922.57,1430.52 1923.09,1430.52 1923.6,1437.27 1924.12,1430.52 1924.64,1423.76 
  1925.15,1437.27 1925.67,1430.52 1926.18,1430.52 1926.7,1423.76 1927.22,1425.45 1927.73,1430.52 1928.25,1437.27 1928.76,1430.52 1929.28,1437.27 1929.79,1437.27 
  1930.31,1437.27 1930.83,1430.52 1931.34,1437.27 1931.86,1430.52 1932.37,1430.52 1932.89,1423.76 1933.41,1437.27 1933.92,1430.52 1934.44,1430.52 1934.95,1403.5 
  1935.47,1437.27 1935.98,1437.27 1936.5,1430.52 1937.02,1430.52 1937.53,1430.52 1938.05,1437.27 1938.56,1437.27 1939.08,1411.94 1939.6,1430.52 1940.11,1430.52 
  1940.63,1430.52 1941.14,1437.27 1941.66,1430.52 1942.17,1437.27 1942.69,1437.27 1943.21,1437.27 1943.72,1437.27 1944.24,1430.52 1944.75,1430.52 1945.27,1430.52 
  1945.79,1425.45 1946.3,1430.52 1946.82,1430.52 1947.33,1430.52 1947.85,1437.27 1948.36,1437.27 1948.88,1430.52 1949.4,1437.27 1949.91,1430.52 1950.43,1437.27 
  1950.94,1437.27 1951.46,1437.27 1951.98,1437.27 1952.49,1437.27 1953.01,1437.27 1953.52,1430.52 1954.04,1437.27 1954.55,1430.52 1955.07,1423.76 1955.59,1430.52 
  1956.1,1418.7 1956.62,1437.27 1957.13,1425.45 1957.65,1418.7 1958.17,1430.52 1958.68,1437.27 1959.2,1430.52 1959.71,1430.52 1960.23,1437.27 1960.74,1425.45 
  1961.26,1437.27 1961.78,1418.7 1962.29,1395.05 1962.81,1437.27 1963.32,1437.27 1963.84,1430.52 1964.36,1437.27 1964.87,1425.45 1965.39,1437.27 1965.9,1437.27 
  1966.42,1437.27 1966.93,1437.27 1967.45,1430.52 1967.97,1430.52 1968.48,1437.27 1969,1437.27 1969.51,1437.27 1970.03,1437.27 1970.55,1437.27 1971.06,1437.27 
  1971.58,1437.27 1972.09,1437.27 1972.61,1437.27 1973.12,1430.52 1973.64,1437.27 1974.16,1437.27 1974.67,1430.52 1975.19,1430.52 1975.7,1437.27 1976.22,1430.52 
  1976.73,1437.27 1977.25,1430.52 1977.77,1437.27 1978.28,1430.52 1978.8,1430.52 1979.31,1437.27 1979.83,1437.27 1980.35,1437.27 1980.86,1437.27 1981.38,1437.27 
  1981.89,1437.27 1982.41,1437.27 1982.92,1425.45 1983.44,1403.5 1983.96,1437.27 1984.47,1437.27 1984.99,1437.27 1985.5,1437.27 1986.02,1422.07 1986.54,1437.27 
  1987.05,1437.27 1987.57,1430.52 1988.08,1437.27 1988.6,1430.52 1989.11,1437.27 1989.63,1437.27 1990.15,1437.27 1990.66,1417.01 1991.18,1437.27 1991.69,1423.76 
  1992.21,1437.27 1992.73,1437.27 1993.24,1437.27 1993.76,1437.27 1994.27,1437.27 1994.79,1437.27 1995.3,1437.27 1995.82,1437.27 1996.34,1437.27 1996.85,1437.27 
  1997.37,1437.27 1997.88,1437.27 1998.4,1430.52 1998.92,1437.27 1999.43,1437.27 1999.95,1437.27 2000.46,1430.52 2000.98,1437.27 2001.49,1437.27 2002.01,1437.27 
  2002.53,1437.27 2003.04,1437.27 2003.56,1437.27 2004.07,1437.27 2004.59,1400.12 2005.11,1437.27 2005.62,1420.38 2006.14,1437.27 2006.65,1423.76 2007.17,1437.27 
  2007.68,1422.07 2008.2,1437.27 2008.72,1437.27 2009.23,1437.27 2009.75,1437.27 2010.26,1437.27 2010.78,1437.27 2011.3,1437.27 2011.81,1437.27 2012.33,1437.27 
  2012.84,1437.27 2013.36,1437.27 2013.87,1437.27 2014.39,1437.27 2014.91,1437.27 2015.42,1430.52 2015.94,1423.76 2016.45,1437.27 2016.97,1437.27 2017.49,1423.76 
  2018,1437.27 2018.52,1437.27 2019.03,1430.52 2019.55,1422.07 2020.06,1437.27 2020.58,1437.27 2021.1,1430.52 2021.61,1437.27 2022.13,1437.27 2022.64,1423.76 
  2023.16,1430.52 2023.68,1437.27 2024.19,1430.52 2024.71,1430.52 2025.22,1430.52 2025.74,1437.27 2026.25,1437.27 2026.77,1437.27 2027.29,1437.27 2027.8,1425.45 
  2028.32,1437.27 2028.83,1437.27 2029.35,1437.27 2029.86,1437.27 2030.38,1425.45 2030.9,1437.27 2031.41,1437.27 2031.93,1437.27 2032.44,1437.27 2032.96,1437.27 
  2033.48,1437.27 2033.99,1437.27 2034.51,1418.7 2035.02,1437.27 2035.54,1423.76 2036.05,1437.27 2036.57,1437.27 2037.09,1425.45 2037.6,1425.45 2038.12,1430.52 
  2038.63,1437.27 2039.15,1417.01 2039.67,1437.27 2040.18,1437.27 2040.7,1437.27 2041.21,1437.27 2041.73,1437.27 2042.24,1437.27 2042.76,1425.45 2043.28,1437.27 
  2043.79,1437.27 2044.31,1437.27 2044.82,1437.27 2045.34,1437.27 2045.86,1430.52 2046.37,1437.27 2046.89,1437.27 2047.4,1437.27 2047.92,1437.27 2048.43,1425.45 
  2048.95,1430.52 2049.47,1437.27 2049.98,1437.27 2050.5,1437.27 2051.01,1437.27 2051.53,1437.27 2052.05,1437.27 2052.56,1437.27 2053.08,1437.27 2053.59,1401.81 
  2054.11,1430.52 2054.62,1437.27 2055.14,1423.76 2055.66,1437.27 2056.17,1437.27 2056.69,1437.27 2057.2,1423.76 2057.72,1437.27 2058.24,1430.52 2058.75,1430.52 
  2059.27,1437.27 2059.78,1437.27 2060.3,1430.52 2060.81,1422.07 2061.33,1437.27 2061.85,1437.27 2062.36,1437.27 2062.88,1423.76 2063.39,1437.27 2063.91,1430.52 
  2064.43,1437.27 2064.94,1437.27 2065.46,1437.27 2065.97,1437.27 2066.49,1437.27 2067,1437.27 2067.52,1437.27 2068.04,1437.27 2068.55,1425.45 2069.07,1437.27 
  2069.58,1437.27 2070.1,1437.27 2070.62,1430.52 2071.13,1437.27 2071.65,1430.52 2072.16,1437.27 2072.68,1437.27 2073.19,1437.27 2073.71,1437.27 2074.23,1437.27 
  2074.74,1430.52 2075.26,1425.45 2075.77,1437.27 2076.29,1437.27 2076.81,1430.52 2077.32,1430.52 2077.84,1437.27 2078.35,1437.27 2078.87,1437.27 2079.38,1423.76 
  2079.9,1437.27 2080.42,1430.52 2080.93,1437.27 2081.45,1437.27 2081.96,1437.27 2082.48,1437.27 2082.99,1437.27 2083.51,1437.27 2084.03,1437.27 2084.54,1437.27 
  2085.06,1437.27 2085.57,1418.7 2086.09,1437.27 2086.61,1437.27 2087.12,1423.76 2087.64,1418.7 2088.15,1437.27 2088.67,1437.27 2089.18,1437.27 2089.7,1437.27 
  2090.22,1437.27 2090.73,1428.83 2091.25,1437.27 2091.76,1437.27 2092.28,1430.52 2092.8,1413.63 2093.31,1430.52 2093.83,1437.27 2094.34,1437.27 2094.86,1437.27 
  2095.37,1437.27 2095.89,1437.27 2096.41,1437.27 2096.92,1437.27 2097.44,1437.27 2097.95,1437.27 2098.47,1437.27 2098.99,1437.27 2099.5,1395.05 2100.02,1437.27 
  2100.53,1437.27 2101.05,1425.45 2101.56,1437.27 2102.08,1437.27 2102.6,1437.27 2103.11,1437.27 2103.63,1437.27 2104.14,1437.27 2104.66,1437.27 2105.18,1437.27 
  2105.69,1437.27 2106.21,1437.27 2106.72,1437.27 2107.24,1437.27 2107.75,1437.27 2108.27,1437.27 2108.79,1430.52 2109.3,1437.27 2109.82,1437.27 2110.33,1437.27 
  2110.85,1437.27 2111.37,1437.27 2111.88,1437.27 2112.4,1423.76 2112.91,1437.27 2113.43,1437.27 2113.94,1437.27 2114.46,1437.27 2114.98,1437.27 2115.49,1425.45 
  2116.01,1423.76 2116.52,1437.27 2117.04,1437.27 2117.56,1437.27 2118.07,1437.27 2118.59,1430.52 2119.1,1437.27 2119.62,1437.27 2120.13,1437.27 2120.65,1437.27 
  2121.17,1423.76 2121.68,1437.27 2122.2,1437.27 2122.71,1437.27 2123.23,1437.27 2123.75,1437.27 2124.26,1437.27 2124.78,1423.76 2125.29,1437.27 2125.81,1437.27 
  2126.32,1437.27 2126.84,1437.27 2127.36,1437.27 2127.87,1437.27 2128.39,1437.27 2128.9,1437.27 2129.42,1437.27 2129.93,1437.27 2130.45,1437.27 2130.97,1437.27 
  2131.48,1423.76 2132,1430.52 2132.51,1437.27 2133.03,1437.27 2133.55,1437.27 2134.06,1430.52 2134.58,1437.27 2135.09,1437.27 2135.61,1437.27 2136.12,1418.7 
  2136.64,1437.27 2137.16,1437.27 2137.67,1437.27 2138.19,1437.27 2138.7,1437.27 2139.22,1437.27 2139.74,1437.27 2140.25,1430.52 2140.77,1437.27 2141.28,1411.94 
  2141.8,1395.05 2142.31,1437.27 2142.83,1437.27 2143.35,1437.27 2143.86,1430.52 2144.38,1437.27 2144.89,1430.52 2145.41,1437.27 2145.93,1437.27 2146.44,1430.52 
  2146.96,1437.27 2147.47,1425.45 2147.99,1437.27 2148.5,1437.27 2149.02,1437.27 2149.54,1437.27 2150.05,1437.27 2150.57,1437.27 2151.08,1437.27 2151.6,1437.27 
  2152.12,1437.27 2152.63,1437.27 2153.15,1430.52 2153.66,1437.27 2154.18,1437.27 2154.69,1437.27 2155.21,1437.27 2155.73,1413.63 2156.24,1437.27 2156.76,1437.27 
  2157.27,1437.27 2157.79,1430.52 2158.31,1437.27 2158.82,1437.27 2159.34,1430.52 2159.85,1437.27 2160.37,1437.27 2160.88,1437.27 2161.4,1437.27 2161.92,1437.27 
  2162.43,1437.27 2162.95,1437.27 2163.46,1437.27 2163.98,1437.27 2164.5,1437.27 2165.01,1437.27 2165.53,1437.27 2166.04,1437.27 2166.56,1430.52 2167.07,1437.27 
  2167.59,1417.01 2168.11,1437.27 2168.62,1430.52 2169.14,1430.52 2169.65,1437.27 2170.17,1437.27 2170.69,1430.52 2171.2,1437.27 2171.72,1430.52 2172.23,1437.27 
  2172.75,1437.27 2173.26,1437.27 2173.78,1437.27 2174.3,1417.01 2174.81,1437.27 2175.33,1437.27 2175.84,1437.27 2176.36,1437.27 2176.88,1437.27 2177.39,1437.27 
  2177.91,1437.27 2178.42,1437.27 2178.94,1437.27 2179.45,1437.27 2179.97,1437.27 2180.49,1437.27 2181,1437.27 2181.52,1437.27 2182.03,1437.27 2182.55,1437.27 
  2183.06,1413.63 2183.58,1437.27 2184.1,1437.27 2184.61,1437.27 2185.13,1437.27 2185.64,1437.27 2186.16,1430.52 2186.68,1437.27 2187.19,1430.52 2187.71,1437.27 
  2188.22,1437.27 2188.74,1437.27 2189.25,1437.27 2189.77,1437.27 2190.29,1437.27 2190.8,1437.27 2191.32,1437.27 2191.83,1437.27 2192.35,1437.27 2192.87,1437.27 
  2193.38,1423.76 2193.9,1437.27 2194.41,1437.27 2194.93,1437.27 2195.44,1437.27 2195.96,1430.52 2196.48,1437.27 2196.99,1430.52 2197.51,1437.27 2198.02,1437.27 
  2198.54,1437.27 2199.06,1437.27 2199.57,1437.27 2200.09,1437.27 2200.6,1437.27 2201.12,1437.27 2201.63,1437.27 2202.15,1437.27 2202.67,1437.27 2203.18,1437.27 
  2203.7,1430.52 2204.21,1430.52 2204.73,1437.27 2205.25,1423.76 2205.76,1437.27 2206.28,1430.52 2206.79,1422.07 2207.31,1437.27 2207.82,1437.27 2208.34,1437.27 
  2208.86,1437.27 2209.37,1437.27 2209.89,1423.76 2210.4,1437.27 2210.92,1437.27 2211.44,1437.27 2211.95,1430.52 2212.47,1437.27 2212.98,1437.27 2213.5,1437.27 
  2214.01,1437.27 2214.53,1437.27 2215.05,1437.27 2215.56,1437.27 2216.08,1437.27 2216.59,1437.27 2217.11,1437.27 2217.63,1437.27 2218.14,1437.27 2218.66,1437.27 
  2219.17,1425.45 2219.69,1437.27 2220.2,1437.27 2220.72,1437.27 2221.24,1437.27 2221.75,1437.27 2222.27,1437.27 2222.78,1437.27 2223.3,1437.27 2223.82,1437.27 
  2224.33,1437.27 2224.85,1430.52 2225.36,1437.27 2225.88,1437.27 2226.39,1437.27 2226.91,1437.27 2227.43,1437.27 2227.94,1437.27 2228.46,1430.52 2228.97,1437.27 
  2229.49,1437.27 2230.01,1437.27 2230.52,1437.27 2231.04,1430.52 2231.55,1437.27 2232.07,1437.27 2232.58,1437.27 2233.1,1437.27 2233.62,1437.27 2234.13,1437.27 
  2234.65,1437.27 2235.16,1437.27 2235.68,1437.27 2236.19,1437.27 2236.71,1437.27 2237.23,1437.27 2237.74,1437.27 2238.26,1437.27 2238.77,1437.27 2239.29,1437.27 
  2239.81,1437.27 2240.32,1437.27 2240.84,1437.27 2241.35,1437.27 2241.87,1413.63 2242.38,1437.27 2242.9,1437.27 2243.42,1437.27 2243.93,1437.27 2244.45,1437.27 
  2244.96,1437.27 2245.48,1437.27 2246,1437.27 2246.51,1437.27 2247.03,1437.27 2247.54,1437.27 2248.06,1413.63 2248.57,1437.27 2249.09,1437.27 2249.61,1437.27 
  2250.12,1437.27 2250.64,1437.27 2251.15,1437.27 2251.67,1413.63 2252.19,1437.27 2252.7,1437.27 2253.22,1423.76 2253.73,1437.27 2254.25,1437.27 2254.76,1437.27 
  2255.28,1437.27 2255.8,1437.27 2256.31,1437.27 2256.83,1430.52 2257.34,1437.27 2257.86,1437.27 2258.38,1437.27 2258.89,1437.27 2259.41,1437.27 2259.92,1425.45 
  2260.44,1437.27 2260.95,1437.27 2261.47,1437.27 2261.99,1425.45 2262.5,1430.52 2263.02,1437.27 2263.53,1437.27 2264.05,1437.27 2264.57,1430.52 2265.08,1437.27 
  2265.6,1437.27 2266.11,1437.27 2266.63,1437.27 2267.14,1437.27 2267.66,1437.27 2268.18,1437.27 2268.69,1437.27 2269.21,1437.27 2269.72,1437.27 2270.24,1437.27 
  2270.76,1437.27 2271.27,1437.27 2271.79,1437.27 2272.3,1437.27 2272.82,1437.27 2273.33,1437.27 2273.85,1418.7 2274.37,1437.27 2274.88,1430.52 2275.4,1437.27 
  2275.91,1425.45 2276.43,1437.27 2276.95,1437.27 2277.46,1437.27 2277.98,1437.27 2278.49,1437.27 2279.01,1437.27 2279.52,1437.27 2280.04,1437.27 2280.56,1437.27 
  2281.07,1437.27 2281.59,1437.27 2282.1,1437.27 2282.62,1430.52 2283.14,1437.27 2283.65,1437.27 2284.17,1430.52 2284.68,1437.27 2285.2,1437.27 2285.71,1430.52 
  2286.23,1437.27 2286.75,1437.27 2287.26,1437.27 2287.78,1437.27 2288.29,1437.27 2288.81,1437.27 2289.32,1437.27 2289.84,1437.27 2290.36,1437.27 2290.87,1437.27 
  
  "/>
<path clip-path="url(#clip410)" d="
M1985.9 216.178 L2279.87 216.178 L2279.87 95.2176 L1985.9 95.2176  Z
  " fill="#ffffff" fill-rule="evenodd" fill-opacity="1"/>
<polyline clip-path="url(#clip410)" style="stroke:#000000; stroke-width:4; stroke-opacity:1; fill:none" points="
  1985.9,216.178 2279.87,216.178 2279.87,95.2176 1985.9,95.2176 1985.9,216.178 
  "/>
<polyline clip-path="url(#clip410)" style="stroke:#009af9; stroke-width:4; stroke-opacity:1; fill:none" points="
  2010.2,155.698 2155.97,155.698 
  "/>
<path clip-path="url(#clip410)" d="M 0 0 M2194.11 175.385 Q2192.3 180.015 2190.59 181.427 Q2188.87 182.839 2186 182.839 L2182.6 182.839 L2182.6 179.274 L2185.1 179.274 Q2186.86 179.274 2187.83 178.44 Q2188.8 177.607 2189.98 174.505 L2190.75 172.561 L2180.26 147.052 L2184.78 147.052 L2192.88 167.329 L2200.98 147.052 L2205.49 147.052 L2194.11 175.385 Z" fill="#000000" fill-rule="evenodd" fill-opacity="1" /><path clip-path="url(#clip410)" d="M 0 0 M2211.37 169.042 L2219.01 169.042 L2219.01 142.677 L2210.7 144.343 L2210.7 140.084 L2218.97 138.418 L2223.64 138.418 L2223.64 169.042 L2231.28 169.042 L2231.28 172.978 L2211.37 172.978 L2211.37 169.042 Z" fill="#000000" fill-rule="evenodd" fill-opacity="1" /></svg>
